{"glyphs":{"0":{"ha":861,"x_min":28,"x_max":833,"o":"m 431 944 q 656 888 567 944 q 789 726 744 832 q 833 471 833 619 q 788 210 833 324 q 653 33 743 97 q 431 -31 564 -31 q 210 30 300 -31 q 74 199 121 90 q 28 453 28 308 q 72 713 28 603 q 206 884 117 824 q 431 944 294 944 m 431 72 q 495 125 472 72 q 527 267 518 178 q 536 463 536 356 q 527 656 536 569 q 495 792 518 742 q 431 842 472 842 q 366 792 389 842 q 334 656 343 742 q 325 463 325 569 q 334 267 325 356 q 366 125 343 178 q 431 72 389 72 z "},"1":{"ha":861,"x_min":46,"x_max":828,"o":"m 633 125 l 828 125 l 828 0 l 117 0 l 117 125 l 339 125 l 339 732 l 375 708 q 293 645 356 681 q 163 610 231 610 q 46 749 46 610 q 310 834 178 786 q 561 944 442 882 l 633 910 l 633 125 z "},"2":{"ha":861,"x_min":53,"x_max":799,"o":"m 374 944 q 661 876 547 944 q 775 667 775 808 q 737 513 775 583 q 638 383 699 442 q 508 279 578 325 q 432 231 471 254 q 358 186 393 207 l 799 200 l 799 0 l 67 0 l 57 101 q 93 132 75 117 q 129 164 111 147 q 165 197 147 181 q 382 389 283 286 q 481 596 481 492 q 428 717 481 678 q 282 756 375 756 q 180 724 221 756 q 107 639 139 692 q 67 681 81 656 q 53 739 53 707 q 101 859 53 814 q 224 924 150 904 q 374 944 299 944 z "},"3":{"ha":861,"x_min":81,"x_max":792,"o":"m 413 944 q 649 894 553 944 q 744 722 744 844 q 698 587 744 643 q 576 504 651 531 q 736 433 681 488 q 792 272 792 378 q 678 47 792 125 q 374 -31 565 -31 q 238 -10 306 -31 q 126 55 171 10 q 81 175 81 100 q 89 223 81 200 q 117 261 97 246 q 198 183 147 208 q 310 158 249 158 q 445 193 393 158 q 497 292 497 228 q 458 388 497 358 q 351 417 418 417 q 316 416 335 417 q 282 414 297 415 l 282 519 q 434 542 363 519 q 506 644 506 564 q 450 728 506 701 q 321 756 394 756 q 221 724 261 756 q 146 639 181 692 q 92 739 100 671 q 140 859 92 814 q 263 924 189 904 q 413 944 338 944 z "},"4":{"ha":861,"x_min":7,"x_max":869,"o":"m 722 917 l 722 347 l 869 347 l 857 168 l 724 168 l 724 0 l 415 0 l 415 168 l 39 168 q 7 247 7 193 q 18 304 7 276 q 46 356 29 332 l 426 917 l 722 917 m 424 713 l 185 347 l 424 347 l 424 713 z "},"5":{"ha":861,"x_min":60,"x_max":800,"o":"m 710 917 l 724 717 l 263 717 l 247 578 q 335 584 286 582 q 421 586 383 586 q 699 521 599 586 q 800 299 800 456 q 681 56 800 142 q 381 -31 563 -31 q 232 -10 306 -31 q 109 55 158 10 q 60 175 60 100 q 69 223 60 200 q 96 261 78 246 q 321 158 142 158 q 449 193 393 158 q 506 292 506 228 q 437 408 506 383 q 267 433 368 433 q 179 432 231 433 q 96 428 128 431 l 146 917 l 710 917 z "},"6":{"ha":861,"x_min":35,"x_max":838,"o":"m 500 944 q 621 930 556 944 q 733 883 686 915 q 781 796 781 850 q 746 711 781 742 q 652 752 708 739 q 550 765 596 765 q 392 709 432 765 q 353 535 353 653 q 453 592 399 575 q 568 608 508 608 q 734 561 675 608 q 815 447 793 514 q 838 317 838 379 q 730 60 838 151 q 457 -31 622 -31 q 232 28 326 -31 q 86 188 138 86 q 35 419 35 289 q 84 684 35 565 q 236 874 133 803 q 500 944 339 944 m 457 492 q 370 422 389 492 q 351 285 351 353 q 370 144 351 217 q 457 72 389 72 q 544 144 525 72 q 563 285 563 217 q 544 422 563 353 q 457 492 525 492 z "},"7":{"ha":861,"x_min":54,"x_max":824,"o":"m 814 917 l 824 815 l 456 -32 l 140 1 l 536 731 l 54 703 l 54 917 l 814 917 z "},"8":{"ha":861,"x_min":46,"x_max":815,"o":"m 756 726 q 703 599 756 656 q 586 511 650 542 q 746 403 676 464 q 815 242 815 343 q 759 82 815 142 q 614 -4 703 22 q 425 -31 525 -31 q 242 -4 328 -31 q 101 81 156 22 q 46 235 46 139 q 106 366 46 311 q 239 457 167 421 q 125 560 172 500 q 78 700 78 621 q 128 845 78 792 q 260 922 179 899 q 435 944 342 944 q 589 923 515 944 q 709 853 663 901 q 756 726 756 806 m 528 189 q 472 293 528 247 q 343 385 417 339 q 313 306 324 350 q 301 225 301 261 q 332 117 301 163 q 425 72 363 72 q 503 104 478 72 q 528 189 528 136 m 342 740 q 383 651 342 692 q 485 574 425 611 q 518 648 507 604 q 529 726 529 692 q 506 808 529 775 q 435 842 483 842 q 365 815 388 842 q 342 740 342 788 z "},"9":{"ha":861,"x_min":24,"x_max":826,"o":"m 404 944 q 629 886 535 944 q 775 726 724 828 q 826 494 826 625 q 777 230 826 349 q 625 40 728 111 q 361 -31 522 -31 q 240 -16 306 -31 q 128 31 175 -1 q 81 118 81 64 q 115 203 81 172 q 209 162 153 175 q 311 149 265 149 q 469 205 429 149 q 508 379 508 261 q 408 322 463 339 q 293 306 353 306 q 127 353 186 306 q 46 467 68 400 q 24 597 24 535 q 131 853 24 763 q 404 944 239 944 m 404 842 q 317 769 336 842 q 299 629 299 697 q 317 492 299 561 q 404 422 336 422 q 491 492 472 422 q 510 629 510 561 q 491 769 510 697 q 404 842 472 842 z "},"A":{"ha":817,"x_min":-10,"x_max":815,"o":"m 583 917 l 815 0 l 514 0 l 463 219 l 221 219 l 171 0 l -10 0 l 240 917 l 583 917 m 247 336 l 436 336 l 340 749 l 247 336 z "},"Á":{"ha":817,"x_min":-10,"x_max":815,"o":"m 583 917 l 815 0 l 514 0 l 463 219 l 221 219 l 171 0 l -10 0 l 240 917 l 583 917 m 247 336 l 436 336 l 340 749 l 247 336 m 261 1057 l 603 1197 q 640 1151 625 1179 q 656 1096 656 1124 q 596 1018 656 1032 q 479 1000 536 1004 l 278 986 l 261 1057 z "},"Ă":{"ha":817,"x_min":-10,"x_max":815,"o":"m 583 917 l 815 0 l 514 0 l 463 219 l 221 219 l 171 0 l -10 0 l 240 917 l 583 917 m 247 336 l 436 336 l 340 749 l 247 336 m 676 1163 q 621 1026 676 1081 q 408 972 565 972 q 196 1026 251 972 q 140 1163 140 1081 l 343 1163 q 346 1083 343 1122 q 408 1044 349 1044 q 471 1083 468 1044 q 474 1163 474 1122 l 676 1163 z "},"Â":{"ha":817,"x_min":-10,"x_max":815,"o":"m 583 917 l 815 0 l 514 0 l 463 219 l 221 219 l 171 0 l -10 0 l 240 917 l 583 917 m 247 336 l 436 336 l 340 749 l 247 336 z "},"Ä":{"ha":817,"x_min":-10,"x_max":815,"o":"m 583 917 l 815 0 l 514 0 l 463 219 l 221 219 l 171 0 l -10 0 l 240 917 l 583 917 m 247 336 l 436 336 l 340 749 l 247 336 z "},"À":{"ha":817,"x_min":-10,"x_max":815,"o":"m 583 917 l 815 0 l 514 0 l 463 219 l 221 219 l 171 0 l -10 0 l 240 917 l 583 917 m 247 336 l 436 336 l 340 749 l 247 336 m 535 986 l 333 1000 q 217 1018 276 1004 q 157 1096 157 1032 q 172 1151 157 1124 q 210 1197 188 1179 l 551 1057 l 535 986 z "},"Ā":{"ha":817,"x_min":-10,"x_max":815,"o":"m 583 917 l 815 0 l 514 0 l 463 219 l 221 219 l 171 0 l -10 0 l 240 917 l 583 917 m 247 336 l 436 336 l 340 749 l 247 336 m 608 1199 q 617 1175 614 1189 q 621 1144 621 1161 q 599 1091 621 1111 q 542 1071 578 1071 l 207 1071 q 194 1125 194 1092 q 274 1199 194 1199 l 608 1199 z "},"Ą":{"ha":817,"x_min":-10,"x_max":899,"o":"m 583 917 l 815 0 l 514 0 l 463 219 l 221 219 l 171 0 l -10 0 l 240 917 l 583 917 m 247 336 l 436 336 l 340 749 l 247 336 m 833 14 q 746 -70 782 -22 q 710 -175 710 -118 q 729 -234 710 -219 q 788 -249 749 -249 q 831 -241 807 -249 q 864 -214 854 -233 q 888 -237 878 -225 q 899 -272 899 -250 q 873 -328 899 -308 q 812 -358 847 -349 q 749 -367 776 -367 q 606 -335 669 -367 q 543 -224 543 -303 q 610 -75 543 -136 q 758 22 678 -14 l 833 14 z "},"Å":{"ha":817,"x_min":-10,"x_max":815,"o":"m 583 917 l 815 0 l 514 0 l 463 219 l 221 219 l 171 0 l -10 0 l 240 917 l 583 917 m 247 336 l 436 336 l 340 749 l 247 336 m 408 971 q 294 1007 340 971 q 249 1106 249 1043 q 294 1203 249 1169 q 408 1236 339 1236 q 523 1203 478 1236 q 568 1106 568 1169 q 522 1007 568 1043 q 408 971 476 971 m 408 1026 q 456 1049 440 1026 q 471 1106 471 1072 q 456 1158 471 1136 q 408 1181 440 1181 q 361 1158 376 1181 q 346 1106 346 1136 q 360 1049 346 1072 q 408 1026 375 1026 z "},"Ǻ":{"ha":817,"x_min":-10,"x_max":815,"o":"m 411 869 q 297 900 342 869 q 251 983 251 931 q 297 1065 251 1036 q 411 1093 342 1093 q 526 1065 481 1093 q 571 983 571 1036 q 526 900 571 931 q 411 869 481 869 m 411 917 q 474 983 474 917 q 411 1046 474 1046 q 349 983 349 1046 q 411 917 349 917 m 583 917 l 815 0 l 514 0 l 463 219 l 221 219 l 171 0 l -10 0 l 240 917 l 583 917 m 247 336 l 436 336 l 340 749 l 247 336 m 265 1172 l 607 1313 q 644 1267 629 1294 q 660 1211 660 1239 q 600 1133 660 1147 q 483 1115 540 1119 l 282 1101 l 265 1172 z "},"Ã":{"ha":817,"x_min":-10,"x_max":815,"o":"m 583 917 l 815 0 l 514 0 l 463 219 l 221 219 l 171 0 l -10 0 l 240 917 l 583 917 m 247 336 l 436 336 l 340 749 l 247 336 m 651 1160 q 674 1120 665 1143 q 683 1076 683 1097 q 642 1004 683 1021 q 546 988 601 988 q 401 1001 489 988 q 254 1015 313 1015 q 207 1010 231 1015 q 165 988 183 1006 q 142 1027 151 1004 q 133 1071 133 1050 q 174 1143 133 1126 q 271 1160 215 1160 q 416 1146 328 1160 q 563 1132 504 1132 q 610 1137 586 1132 q 651 1160 633 1142 z "},"Æ":{"ha":1019,"x_min":-19,"x_max":1018,"o":"m 997 917 l 997 800 l 778 800 l 778 529 l 956 529 l 956 413 l 778 413 l 778 117 l 1018 117 l 1007 0 l 483 0 l 483 219 l 264 219 l 175 0 l -19 0 l 383 917 l 997 917 m 483 776 l 311 336 l 483 336 l 483 776 z "},"Ǽ":{"ha":1019,"x_min":-19,"x_max":1018,"o":"m 997 917 l 997 800 l 778 800 l 778 529 l 956 529 l 956 413 l 778 413 l 778 117 l 1018 117 l 1007 0 l 483 0 l 483 219 l 264 219 l 175 0 l -19 0 l 383 917 l 997 917 m 483 776 l 311 336 l 483 336 l 483 776 m 422 1057 l 764 1197 q 801 1151 786 1179 q 817 1096 817 1124 q 757 1018 817 1032 q 640 1000 697 1004 l 439 986 l 422 1057 z "},"B":{"ha":864,"x_min":69,"x_max":844,"o":"m 771 706 q 727 587 771 636 q 617 518 683 538 q 783 438 722 500 q 844 268 844 375 q 781 102 844 164 q 620 13 718 40 q 417 -14 522 -14 q 246 -9 331 -14 q 69 6 161 -4 l 69 907 q 246 919 153 914 q 422 924 339 924 q 593 908 514 924 q 722 844 672 892 q 771 706 771 797 m 364 97 q 422 89 392 89 q 526 140 496 89 q 556 264 556 190 q 522 395 556 349 q 403 442 488 442 q 383 441 393 442 q 364 439 374 440 l 364 97 m 364 539 q 403 535 383 535 q 501 578 472 535 q 531 692 531 622 q 506 786 531 751 q 422 821 482 821 q 364 813 393 821 l 364 539 z "},"C":{"ha":815,"x_min":28,"x_max":796,"o":"m 464 842 q 381 782 406 842 q 350 643 356 722 q 344 506 344 564 q 363 335 344 411 q 426 216 381 260 q 553 172 472 172 q 742 289 675 172 q 796 189 796 256 q 747 65 796 114 q 624 -7 697 17 q 475 -31 550 -31 q 218 34 317 -31 q 74 208 119 99 q 28 453 28 318 q 78 717 28 607 q 228 886 128 828 q 483 944 329 944 q 629 928 558 944 q 747 872 700 913 q 793 757 793 831 q 742 641 793 682 q 621 600 692 600 q 585 602 606 600 q 549 610 565 604 q 557 686 557 651 q 540 794 557 746 q 464 842 524 842 z "},"Ć":{"ha":815,"x_min":28,"x_max":796,"o":"m 464 842 q 381 782 406 842 q 350 643 356 722 q 344 506 344 564 q 363 335 344 411 q 426 216 381 260 q 553 172 472 172 q 742 289 675 172 q 796 189 796 256 q 747 65 796 114 q 624 -7 697 17 q 475 -31 550 -31 q 218 34 317 -31 q 74 208 119 99 q 28 453 28 318 q 78 717 28 607 q 228 886 128 828 q 483 944 329 944 q 629 928 558 944 q 747 872 700 913 q 793 757 793 831 q 742 641 793 682 q 621 600 692 600 q 585 602 606 600 q 549 610 565 604 q 557 686 557 651 q 540 794 557 746 q 464 842 524 842 m 314 1057 l 656 1197 q 693 1151 678 1179 q 708 1096 708 1124 q 649 1018 708 1032 q 532 1000 589 1004 l 331 986 l 314 1057 z "},"Č":{"ha":815,"x_min":28,"x_max":796,"o":"m 464 842 q 381 782 406 842 q 350 643 356 722 q 344 506 344 564 q 363 335 344 411 q 426 216 381 260 q 553 172 472 172 q 742 289 675 172 q 796 189 796 256 q 747 65 796 114 q 624 -7 697 17 q 475 -31 550 -31 q 218 34 317 -31 q 74 208 119 99 q 28 453 28 318 q 78 717 28 607 q 228 886 128 828 q 483 944 329 944 q 629 928 558 944 q 747 872 700 913 q 793 757 793 831 q 742 641 793 682 q 621 600 692 600 q 585 602 606 600 q 549 610 565 604 q 557 686 557 651 q 540 794 557 746 q 464 842 524 842 m 646 1190 l 700 1126 l 504 965 l 417 965 l 217 1126 l 271 1190 l 458 1118 l 646 1190 z "},"Ç":{"ha":815,"x_min":28,"x_max":796,"o":"m 464 842 q 381 782 406 842 q 350 643 356 722 q 344 506 344 564 q 363 335 344 411 q 426 216 381 260 q 553 172 472 172 q 742 289 675 172 q 796 189 796 256 q 747 65 796 114 q 624 -7 697 17 q 475 -31 550 -31 q 218 34 317 -31 q 74 208 119 99 q 28 453 28 318 q 78 717 28 607 q 228 886 128 828 q 483 944 329 944 q 629 928 558 944 q 747 872 700 913 q 793 757 793 831 q 742 641 793 682 q 621 600 692 600 q 585 602 606 600 q 549 610 565 604 q 557 686 557 651 q 540 794 557 746 q 464 842 524 842 m 488 15 l 444 -96 l 429 -83 q 456 -81 439 -82 q 486 -79 472 -79 q 609 -110 560 -79 q 658 -214 658 -140 q 594 -323 658 -287 q 457 -358 531 -358 q 362 -342 415 -358 q 308 -274 308 -326 q 325 -219 308 -239 q 367 -252 342 -240 q 435 -264 393 -264 q 474 -249 457 -264 q 490 -210 490 -233 q 461 -163 490 -174 q 397 -153 432 -153 q 369 -153 383 -153 q 342 -156 356 -154 l 404 15 l 488 15 z "},"Ĉ":{"ha":815,"x_min":28,"x_max":796,"o":"m 464 842 q 381 782 406 842 q 350 643 356 722 q 344 506 344 564 q 363 335 344 411 q 426 216 381 260 q 553 172 472 172 q 742 289 675 172 q 796 189 796 256 q 747 65 796 114 q 624 -7 697 17 q 475 -31 550 -31 q 218 34 317 -31 q 74 208 119 99 q 28 453 28 318 q 78 717 28 607 q 228 886 128 828 q 483 944 329 944 q 629 928 558 944 q 747 872 700 913 q 793 757 793 831 q 742 641 793 682 q 621 600 692 600 q 585 602 606 600 q 549 610 565 604 q 557 686 557 651 q 540 794 557 746 q 464 842 524 842 z "},"Ċ":{"ha":815,"x_min":28,"x_max":796,"o":"m 464 842 q 381 782 406 842 q 350 643 356 722 q 344 506 344 564 q 363 335 344 411 q 426 216 381 260 q 553 172 472 172 q 742 289 675 172 q 796 189 796 256 q 747 65 796 114 q 624 -7 697 17 q 475 -31 550 -31 q 218 34 317 -31 q 74 208 119 99 q 28 453 28 318 q 78 717 28 607 q 228 886 128 828 q 483 944 329 944 q 629 928 558 944 q 747 872 700 913 q 793 757 793 831 q 742 641 793 682 q 621 600 692 600 q 585 602 606 600 q 549 610 565 604 q 557 686 557 651 q 540 794 557 746 q 464 842 524 842 m 471 1250 q 576 1221 535 1250 q 617 1139 617 1192 q 573 1056 617 1083 q 465 1028 529 1028 q 359 1056 401 1028 q 317 1136 317 1083 q 362 1221 317 1192 q 471 1250 407 1250 z "},"D":{"ha":919,"x_min":69,"x_max":892,"o":"m 69 907 q 253 919 153 914 q 436 924 353 924 q 779 813 667 924 q 892 471 892 703 q 772 111 892 236 q 417 -14 653 -14 q 246 -9 331 -14 q 69 6 161 -4 l 69 907 m 436 89 q 527 147 497 89 q 566 292 557 206 q 575 463 575 378 q 566 629 575 547 q 527 766 557 711 q 436 821 497 821 q 400 819 414 821 q 364 810 386 817 l 364 99 q 436 89 399 89 z "},"Ǳ":{"ha":1583,"x_min":69,"x_max":1588,"o":"m 69 907 q 253 919 153 914 q 436 924 353 924 q 779 813 667 924 q 892 471 892 703 q 772 111 892 236 q 417 -14 653 -14 q 246 -9 331 -14 q 69 6 161 -4 l 69 907 m 436 89 q 527 147 497 89 q 566 292 557 206 q 575 463 575 378 q 566 629 575 547 q 527 766 557 711 q 436 821 497 821 q 400 819 414 821 q 364 810 386 817 l 364 99 q 436 89 399 89 m 1561 917 l 1571 811 l 1244 125 l 1588 125 l 1574 0 l 939 0 l 929 106 l 1256 792 l 957 792 l 957 917 l 1561 917 z "},"Ǆ":{"ha":1583,"x_min":69,"x_max":1588,"o":"m 69 907 q 253 919 153 914 q 436 924 353 924 q 779 813 667 924 q 892 471 892 703 q 772 111 892 236 q 417 -14 653 -14 q 246 -9 331 -14 q 69 6 161 -4 l 69 907 m 436 89 q 527 147 497 89 q 566 292 557 206 q 575 463 575 378 q 566 629 575 547 q 527 766 557 711 q 436 821 497 821 q 400 819 414 821 q 364 810 386 817 l 364 99 q 436 89 399 89 m 1561 917 l 1571 811 l 1244 125 l 1588 125 l 1574 0 l 939 0 l 929 106 l 1256 792 l 957 792 l 957 917 l 1561 917 m 1436 1190 l 1490 1126 l 1294 965 l 1207 965 l 1007 1126 l 1061 1190 l 1249 1118 l 1436 1190 z "},"Ð":{"ha":919,"x_min":-10,"x_max":892,"o":"m -4 403 q -8 425 -7 413 q -10 444 -10 438 q 85 531 -10 531 l 492 531 q 496 508 494 521 q 497 489 497 496 q 403 403 497 403 l -4 403 m 69 907 q 253 919 153 914 q 436 924 353 924 q 779 813 667 924 q 892 471 892 703 q 772 111 892 236 q 417 -14 653 -14 q 246 -9 331 -14 q 69 6 161 -4 l 69 907 m 436 89 q 527 147 497 89 q 566 292 557 206 q 575 463 575 378 q 566 629 575 547 q 527 766 557 711 q 436 821 497 821 q 400 819 414 821 q 364 810 386 817 l 364 99 q 436 89 399 89 z "},"Ď":{"ha":919,"x_min":69,"x_max":892,"o":"m 69 907 q 253 919 153 914 q 436 924 353 924 q 779 813 667 924 q 892 471 892 703 q 772 111 892 236 q 417 -14 653 -14 q 246 -9 331 -14 q 69 6 161 -4 l 69 907 m 436 89 q 527 147 497 89 q 566 292 557 206 q 575 463 575 378 q 566 629 575 547 q 527 766 557 711 q 436 821 497 821 q 400 819 414 821 q 364 810 386 817 l 364 99 q 436 89 399 89 m 622 1197 l 676 1133 l 481 972 l 393 972 l 193 1133 l 247 1197 l 435 1125 l 622 1197 z "},"Đ":{"ha":919,"x_min":-10,"x_max":892,"o":"m -4 403 q -8 425 -7 413 q -10 444 -10 438 q 85 531 -10 531 l 490 531 q 495 508 493 521 q 497 489 497 496 q 403 403 497 403 l -4 403 m 69 907 q 253 919 153 914 q 436 924 353 924 q 779 813 667 924 q 892 471 892 703 q 772 111 892 236 q 417 -14 653 -14 q 246 -9 331 -14 q 69 6 161 -4 l 69 907 m 436 89 q 527 147 497 89 q 566 292 557 206 q 575 463 575 378 q 566 629 575 547 q 527 766 557 711 q 436 821 497 821 q 400 819 414 821 q 364 810 386 817 l 364 99 q 436 89 399 89 z "},"Ḍ":{"ha":919,"x_min":69,"x_max":892,"o":"m 69 907 q 253 919 153 914 q 436 924 353 924 q 779 813 667 924 q 892 471 892 703 q 772 111 892 236 q 417 -14 653 -14 q 246 -9 331 -14 q 69 6 161 -4 l 69 907 m 436 89 q 527 147 497 89 q 566 292 557 206 q 575 463 575 378 q 566 629 575 547 q 527 766 557 711 q 436 821 497 821 q 400 819 414 821 q 364 810 386 817 l 364 99 q 436 89 399 89 z "},"ǲ":{"ha":1518,"x_min":69,"x_max":1500,"o":"m 69 907 q 253 919 153 914 q 436 924 353 924 q 779 813 667 924 q 892 471 892 703 q 772 111 892 236 q 417 -14 653 -14 q 246 -9 331 -14 q 69 6 161 -4 l 69 907 m 436 89 q 527 147 497 89 q 566 292 557 206 q 575 463 575 378 q 566 629 575 547 q 527 766 557 711 q 436 821 497 821 q 400 819 414 821 q 364 810 386 817 l 364 99 q 436 89 399 89 m 1489 708 l 1497 626 l 1228 117 l 1500 136 l 1486 0 l 929 0 l 921 82 l 1189 590 l 947 572 l 961 708 l 1489 708 z "},"ǅ":{"ha":1518,"x_min":69,"x_max":1500,"o":"m 69 907 q 253 919 153 914 q 436 924 353 924 q 779 813 667 924 q 892 471 892 703 q 772 111 892 236 q 417 -14 653 -14 q 246 -9 331 -14 q 69 6 161 -4 l 69 907 m 436 89 q 527 147 497 89 q 566 292 557 206 q 575 463 575 378 q 566 629 575 547 q 527 766 557 711 q 436 821 497 821 q 400 819 414 821 q 364 810 386 817 l 364 99 q 436 89 399 89 m 1489 708 l 1497 626 l 1228 117 l 1500 136 l 1486 0 l 929 0 l 921 82 l 1189 590 l 947 572 l 961 708 l 1489 708 m 1404 982 l 1458 918 l 1263 757 l 1175 757 l 975 918 l 1029 982 l 1217 910 l 1404 982 z "},"E":{"ha":633,"x_min":69,"x_max":632,"o":"m 611 917 l 611 800 l 364 800 l 364 529 l 569 529 l 569 413 l 364 413 l 364 117 l 632 117 l 621 0 l 69 0 l 69 917 l 611 917 z "},"É":{"ha":633,"x_min":69,"x_max":632,"o":"m 611 917 l 611 800 l 364 800 l 364 529 l 569 529 l 569 413 l 364 413 l 364 117 l 632 117 l 621 0 l 69 0 l 69 917 l 611 917 m 194 1057 l 536 1197 q 574 1151 558 1179 q 589 1096 589 1124 q 529 1018 589 1032 q 413 1000 469 1004 l 211 986 l 194 1057 z "},"Ĕ":{"ha":633,"x_min":69,"x_max":632,"o":"m 611 917 l 611 800 l 364 800 l 364 529 l 569 529 l 569 413 l 364 413 l 364 117 l 632 117 l 621 0 l 69 0 l 69 917 l 611 917 m 610 1163 q 554 1026 610 1081 q 342 972 499 972 q 129 1026 185 972 q 74 1163 74 1081 l 276 1163 q 279 1083 276 1122 q 342 1044 282 1044 q 404 1083 401 1044 q 407 1163 407 1122 l 610 1163 z "},"Ě":{"ha":633,"x_min":69,"x_max":632,"o":"m 611 917 l 611 800 l 364 800 l 364 529 l 569 529 l 569 413 l 364 413 l 364 117 l 632 117 l 621 0 l 69 0 l 69 917 l 611 917 m 526 1190 l 581 1126 l 385 965 l 297 965 l 97 1126 l 151 1190 l 339 1118 l 526 1190 z "},"Ê":{"ha":633,"x_min":69,"x_max":632,"o":"m 611 917 l 611 800 l 364 800 l 364 529 l 569 529 l 569 413 l 364 413 l 364 117 l 632 117 l 621 0 l 69 0 l 69 917 l 611 917 z "},"Ë":{"ha":633,"x_min":32,"x_max":650,"o":"m 611 917 l 611 800 l 364 800 l 364 529 l 569 529 l 569 413 l 364 413 l 364 117 l 632 117 l 621 0 l 69 0 l 69 917 l 611 917 z "},"Ė":{"ha":633,"x_min":69,"x_max":632,"o":"m 349 1207 q 453 1178 413 1207 q 494 1096 494 1149 q 451 1013 494 1040 q 343 985 407 985 q 237 1013 279 985 q 194 1093 194 1040 q 240 1178 194 1149 q 349 1207 285 1207 m 611 917 l 611 800 l 364 800 l 364 529 l 569 529 l 569 413 l 364 413 l 364 117 l 632 117 l 621 0 l 69 0 l 69 917 l 611 917 z "},"Ẹ":{"ha":633,"x_min":69,"x_max":632,"o":"m 611 917 l 611 800 l 364 800 l 364 529 l 569 529 l 569 413 l 364 413 l 364 117 l 632 117 l 621 0 l 69 0 l 69 917 l 611 917 z "},"È":{"ha":633,"x_min":69,"x_max":632,"o":"m 611 917 l 611 800 l 364 800 l 364 529 l 569 529 l 569 413 l 364 413 l 364 117 l 632 117 l 621 0 l 69 0 l 69 917 l 611 917 m 468 986 l 267 1000 q 150 1018 210 1004 q 90 1096 90 1032 q 106 1151 90 1124 q 143 1197 121 1179 l 485 1057 l 468 986 z "},"Ē":{"ha":633,"x_min":69,"x_max":632,"o":"m 563 1146 q 572 1122 568 1136 q 575 1092 575 1108 q 553 1038 575 1058 q 496 1018 532 1018 l 161 1018 q 149 1072 149 1039 q 228 1146 149 1146 l 563 1146 m 611 917 l 611 800 l 364 800 l 364 529 l 569 529 l 569 413 l 364 413 l 364 117 l 632 117 l 621 0 l 69 0 l 69 917 l 611 917 z "},"Ę":{"ha":633,"x_min":69,"x_max":696,"o":"m 611 917 l 611 800 l 364 800 l 364 529 l 569 529 l 569 413 l 364 413 l 364 117 l 632 117 l 621 0 l 69 0 l 69 917 l 611 917 m 631 14 q 543 -70 579 -22 q 507 -175 507 -118 q 526 -234 507 -219 q 585 -249 546 -249 q 628 -241 604 -249 q 661 -214 651 -233 q 685 -237 675 -225 q 696 -272 696 -250 q 670 -328 696 -308 q 609 -358 644 -349 q 546 -367 574 -367 q 403 -335 467 -367 q 340 -224 340 -303 q 408 -75 340 -136 q 556 22 475 -14 l 631 14 z "},"Ẽ":{"ha":633,"x_min":67,"x_max":632,"o":"m 611 917 l 611 800 l 364 800 l 364 529 l 569 529 l 569 413 l 364 413 l 364 117 l 632 117 l 621 0 l 69 0 l 69 917 l 611 917 m 585 1160 q 608 1120 599 1143 q 617 1076 617 1097 q 576 1004 617 1021 q 479 988 535 988 q 334 1001 422 988 q 188 1015 246 1015 q 140 1010 164 1015 q 99 988 117 1006 q 76 1027 85 1004 q 67 1071 67 1050 q 108 1143 67 1126 q 204 1160 149 1160 q 349 1146 261 1160 q 496 1132 438 1132 q 543 1137 519 1132 q 585 1160 567 1142 z "},"F":{"ha":613,"x_min":69,"x_max":611,"o":"m 611 917 l 611 800 l 364 800 l 364 510 l 569 510 l 569 393 l 364 393 l 364 0 l 69 0 l 69 917 l 611 917 z "},"G":{"ha":846,"x_min":28,"x_max":821,"o":"m 478 842 q 388 783 417 842 q 352 646 360 725 q 344 506 344 567 q 356 334 344 417 q 404 197 367 251 q 524 143 442 143 q 596 154 563 143 l 586 421 l 801 440 l 801 29 l 801 26 q 641 -18 724 -6 q 475 -31 558 -31 q 133 110 238 -31 q 28 453 28 250 q 144 817 28 689 q 497 944 261 944 q 649 930 575 944 q 772 875 724 915 q 821 757 821 835 q 770 641 821 682 q 649 600 719 600 q 613 602 633 600 q 576 610 593 604 q 585 686 585 651 q 562 794 585 747 q 478 842 539 842 z "},"Ğ":{"ha":846,"x_min":28,"x_max":821,"o":"m 478 842 q 388 783 417 842 q 352 646 360 725 q 344 506 344 567 q 356 334 344 417 q 404 197 367 251 q 524 143 442 143 q 596 154 563 143 l 586 421 l 801 440 l 801 29 l 801 26 q 641 -18 724 -6 q 475 -31 558 -31 q 133 110 238 -31 q 28 453 28 250 q 144 817 28 689 q 497 944 261 944 q 649 930 575 944 q 772 875 724 915 q 821 757 821 835 q 770 641 821 682 q 649 600 719 600 q 613 602 633 600 q 576 610 593 604 q 585 686 585 651 q 562 794 585 747 q 478 842 539 842 m 740 1163 q 685 1026 740 1081 q 472 972 629 972 q 260 1026 315 972 q 204 1163 204 1081 l 407 1163 q 410 1083 407 1122 q 472 1044 413 1044 q 535 1083 532 1044 q 538 1163 538 1122 l 740 1163 z "},"Ĝ":{"ha":846,"x_min":28,"x_max":821,"o":"m 478 842 q 388 783 417 842 q 352 646 360 725 q 344 506 344 567 q 356 334 344 417 q 404 197 367 251 q 524 143 442 143 q 596 154 563 143 l 586 421 l 801 440 l 801 29 l 801 26 q 641 -18 724 -6 q 475 -31 558 -31 q 133 110 238 -31 q 28 453 28 250 q 144 817 28 689 q 497 944 261 944 q 649 930 575 944 q 772 875 724 915 q 821 757 821 835 q 770 641 821 682 q 649 600 719 600 q 613 602 633 600 q 576 610 593 604 q 585 686 585 651 q 562 794 585 747 q 478 842 539 842 z "},"Ģ":{"ha":846,"x_min":28,"x_max":821,"o":"m 478 842 q 388 783 417 842 q 352 646 360 725 q 344 506 344 567 q 356 334 344 417 q 404 197 367 251 q 524 143 442 143 q 596 154 563 143 l 586 421 l 801 440 l 801 29 l 801 26 q 641 -18 724 -6 q 475 -31 558 -31 q 133 110 238 -31 q 28 453 28 250 q 144 817 28 689 q 497 944 261 944 q 649 930 575 944 q 772 875 724 915 q 821 757 821 835 q 770 641 821 682 q 649 600 719 600 q 613 602 633 600 q 576 610 593 604 q 585 686 585 651 q 562 794 585 747 q 478 842 539 842 m 499 -71 q 597 -98 567 -71 q 628 -183 628 -125 q 573 -306 628 -253 q 438 -358 518 -358 q 409 -357 424 -358 q 382 -353 394 -356 q 424 -283 410 -318 q 439 -207 439 -247 q 407 -92 439 -143 q 447 -76 419 -82 q 499 -71 475 -71 z "},"Ġ":{"ha":846,"x_min":28,"x_max":821,"o":"m 478 842 q 388 783 417 842 q 352 646 360 725 q 344 506 344 567 q 356 334 344 417 q 404 197 367 251 q 524 143 442 143 q 596 154 563 143 l 586 421 l 801 440 l 801 29 l 801 26 q 641 -18 724 -6 q 475 -31 558 -31 q 133 110 238 -31 q 28 453 28 250 q 144 817 28 689 q 497 944 261 944 q 649 930 575 944 q 772 875 724 915 q 821 757 821 835 q 770 641 821 682 q 649 600 719 600 q 613 602 633 600 q 576 610 593 604 q 585 686 585 651 q 562 794 585 747 q 478 842 539 842 m 482 1250 q 587 1221 546 1250 q 628 1139 628 1192 q 584 1056 628 1083 q 476 1028 540 1028 q 370 1056 413 1028 q 328 1136 328 1083 q 373 1221 328 1192 q 482 1250 418 1250 z "},"H":{"ha":933,"x_min":69,"x_max":864,"o":"m 864 917 l 864 0 l 569 0 l 569 406 l 364 406 l 364 0 l 69 0 l 69 917 l 364 917 l 364 522 l 569 522 l 569 917 l 864 917 z "},"Ħ":{"ha":983,"x_min":1,"x_max":983,"o":"m 94 0 l 94 671 l 7 671 q 3 692 4 681 q 1 713 1 704 q 94 799 1 799 l 126 799 l 94 761 l 94 917 l 389 917 l 389 799 l 594 799 l 594 917 l 889 917 l 889 799 l 978 799 q 982 776 981 789 q 983 757 983 764 q 958 692 983 714 q 889 671 932 671 l 860 671 l 889 708 l 889 0 l 594 0 l 594 406 l 389 406 l 389 0 l 94 0 m 594 671 l 389 671 l 389 522 l 594 522 l 594 671 z "},"Ĥ":{"ha":933,"x_min":69,"x_max":864,"o":"m 864 917 l 864 0 l 569 0 l 569 406 l 364 406 l 364 0 l 69 0 l 69 917 l 364 917 l 364 522 l 569 522 l 569 917 l 864 917 z "},"Ḥ":{"ha":933,"x_min":69,"x_max":864,"o":"m 864 917 l 864 0 l 569 0 l 569 406 l 364 406 l 364 0 l 69 0 l 69 917 l 364 917 l 364 522 l 569 522 l 569 917 l 864 917 z "},"I":{"ha":433,"x_min":69,"x_max":364,"o":"m 364 917 l 364 0 l 69 0 l 69 917 l 364 917 z "},"Ĳ":{"ha":867,"x_min":69,"x_max":797,"o":"m 364 917 l 364 0 l 69 0 l 69 917 l 364 917 m 797 110 q 777 -76 797 10 q 703 -212 757 -161 q 550 -264 650 -264 q 450 -248 501 -264 q 378 -187 399 -232 q 486 -99 469 -178 q 503 72 503 -19 l 503 917 l 797 917 l 797 110 z "},"Í":{"ha":433,"x_min":69,"x_max":464,"o":"m 364 917 l 364 0 l 69 0 l 69 917 l 364 917 m 69 1057 l 411 1197 q 449 1151 433 1179 q 464 1096 464 1124 q 404 1018 464 1032 q 288 1000 344 1004 l 86 986 l 69 1057 z "},"Ĭ":{"ha":433,"x_min":-51,"x_max":485,"o":"m 364 917 l 364 0 l 69 0 l 69 917 l 364 917 m 485 1163 q 429 1026 485 1081 q 217 972 374 972 q 4 1026 60 972 q -51 1163 -51 1081 l 151 1163 q 154 1083 151 1122 q 217 1044 157 1044 q 279 1083 276 1044 q 282 1163 282 1122 l 485 1163 z "},"Î":{"ha":433,"x_min":-26,"x_max":457,"o":"m 364 917 l 364 0 l 69 0 l 69 917 l 364 917 z "},"Ï":{"ha":433,"x_min":-94,"x_max":524,"o":"m 364 917 l 364 0 l 69 0 l 69 917 l 364 917 z "},"İ":{"ha":433,"x_min":69,"x_max":372,"o":"m 364 917 l 364 0 l 69 0 l 69 917 l 364 917 m 226 1250 q 331 1221 290 1250 q 372 1139 372 1192 q 328 1056 372 1083 q 221 1028 285 1028 q 115 1056 157 1028 q 72 1136 72 1083 q 117 1221 72 1192 q 226 1250 163 1250 z "},"Ị":{"ha":433,"x_min":67,"x_max":367,"o":"m 364 917 l 364 0 l 69 0 l 69 917 l 364 917 z "},"Ì":{"ha":433,"x_min":-35,"x_max":364,"o":"m 364 917 l 364 0 l 69 0 l 69 917 l 364 917 m 343 986 l 142 1000 q 25 1018 85 1004 q -35 1096 -35 1032 q -19 1151 -35 1124 q 18 1197 -4 1179 l 360 1057 l 343 986 z "},"Ī":{"ha":433,"x_min":3,"x_max":429,"o":"m 364 917 l 364 0 l 69 0 l 69 917 l 364 917 m 417 1199 q 426 1175 422 1189 q 429 1144 429 1161 q 408 1091 429 1111 q 350 1071 386 1071 l 15 1071 q 3 1125 3 1092 q 82 1199 3 1199 l 417 1199 z "},"Į":{"ha":433,"x_min":69,"x_max":438,"o":"m 364 917 l 364 0 l 69 0 l 69 917 l 364 917 m 372 14 q 285 -70 321 -22 q 249 -175 249 -118 q 268 -234 249 -219 q 326 -249 288 -249 q 369 -241 346 -249 q 403 -214 393 -233 q 427 -237 417 -225 q 438 -272 438 -250 q 412 -328 438 -308 q 351 -358 386 -349 q 288 -367 315 -367 q 145 -335 208 -367 q 82 -224 82 -303 q 149 -75 82 -136 q 297 22 217 -14 l 372 14 z "},"Ĩ":{"ha":433,"x_min":-58,"x_max":492,"o":"m 364 917 l 364 0 l 69 0 l 69 917 l 364 917 m 460 1160 q 483 1120 474 1143 q 492 1076 492 1097 q 451 1004 492 1021 q 354 988 410 988 q 209 1001 297 988 q 63 1015 121 1015 q 15 1010 39 1015 q -26 988 -8 1006 q -49 1027 -40 1004 q -58 1071 -58 1050 q -17 1143 -58 1126 q 79 1160 24 1160 q 224 1146 136 1160 q 371 1132 313 1132 q 418 1137 394 1132 q 460 1160 442 1142 z "},"J":{"ha":433,"x_min":-56,"x_max":364,"o":"m 364 110 q 344 -76 364 10 q 270 -212 324 -161 q 117 -264 217 -264 q 17 -248 68 -264 q -56 -187 -35 -232 q 53 -99 36 -178 q 69 72 69 -19 l 69 917 l 364 917 l 364 110 z "},"Ĵ":{"ha":433,"x_min":-56,"x_max":457,"o":"m 364 110 q 344 -76 364 10 q 270 -212 324 -161 q 117 -264 217 -264 q 17 -248 68 -264 q -56 -187 -35 -232 q 53 -99 36 -178 q 69 72 69 -19 l 69 917 l 364 917 l 364 110 z "},"K":{"ha":890,"x_min":69,"x_max":910,"o":"m 364 0 l 69 0 l 69 917 l 364 917 l 364 0 m 599 917 l 890 917 l 671 490 l 910 0 l 608 0 l 392 464 l 599 917 z "},"Ķ":{"ha":890,"x_min":69,"x_max":910,"o":"m 364 0 l 69 0 l 69 917 l 364 917 l 364 0 m 599 917 l 890 917 l 671 490 l 910 0 l 608 0 l 392 464 l 599 917 m 458 -71 q 557 -98 526 -71 q 588 -183 588 -125 q 533 -306 588 -253 q 397 -358 478 -358 q 369 -357 383 -358 q 342 -353 354 -356 q 384 -283 369 -318 q 399 -207 399 -247 q 367 -92 399 -143 q 407 -76 379 -82 q 458 -71 435 -71 z "},"L":{"ha":622,"x_min":69,"x_max":615,"o":"m 69 917 l 364 917 l 364 125 l 615 125 l 601 0 l 69 0 l 69 917 z "},"Ǉ":{"ha":1056,"x_min":69,"x_max":986,"o":"m 69 917 l 364 917 l 364 125 l 615 125 l 601 0 l 69 0 l 69 917 m 986 110 q 966 -76 986 10 q 892 -212 946 -161 q 739 -264 839 -264 q 639 -248 690 -264 q 567 -187 588 -232 q 675 -99 658 -178 q 692 72 692 -19 l 692 917 l 986 917 l 986 110 z "},"Ĺ":{"ha":622,"x_min":69,"x_max":615,"o":"m 69 917 l 364 917 l 364 125 l 615 125 l 601 0 l 69 0 l 69 917 m 71 1057 l 413 1197 q 450 1151 435 1179 q 465 1096 465 1124 q 406 1018 465 1032 q 289 1000 346 1004 l 88 986 l 71 1057 z "},"Ľ":{"ha":622,"x_min":69,"x_max":633,"o":"m 69 917 l 364 917 l 364 125 l 615 125 l 601 0 l 69 0 l 69 917 m 436 979 q 476 994 449 989 q 528 1000 504 1000 q 603 972 572 1000 q 633 882 633 943 q 595 782 633 833 q 476 731 557 731 q 451 733 461 731 q 429 739 440 735 q 460 795 451 767 q 468 864 468 824 q 460 924 468 894 q 436 979 453 953 z "},"Ļ":{"ha":622,"x_min":69,"x_max":615,"o":"m 69 917 l 364 917 l 364 125 l 615 125 l 601 0 l 69 0 l 69 917 m 318 -71 q 417 -98 386 -71 q 447 -183 447 -125 q 392 -306 447 -253 q 257 -358 338 -358 q 228 -357 243 -358 q 201 -353 214 -356 q 244 -283 229 -318 q 258 -207 258 -247 q 226 -92 258 -143 q 267 -76 239 -82 q 318 -71 294 -71 z "},"Ŀ":{"ha":674,"x_min":69,"x_max":625,"o":"m 536 549 q 601 523 578 549 q 625 453 625 497 q 600 382 625 408 q 531 356 575 356 q 463 381 486 356 q 439 449 439 407 q 466 522 439 494 q 536 549 493 549 m 69 917 l 364 917 l 364 125 l 615 125 l 601 0 l 69 0 l 69 917 z "},"ǈ":{"ha":1042,"x_min":69,"x_max":985,"o":"m 69 917 l 364 917 l 364 125 l 615 125 l 601 0 l 69 0 l 69 917 m 967 64 q 949 -106 967 -28 q 882 -231 931 -183 q 742 -278 833 -278 q 650 -263 697 -278 q 583 -208 603 -249 q 682 -126 667 -197 q 697 29 697 -54 l 697 708 l 967 708 l 967 64 m 839 1042 q 944 1013 903 1042 q 985 931 985 983 q 941 847 985 875 q 833 819 897 819 q 727 847 769 819 q 685 928 685 875 q 730 1013 685 983 q 839 1042 775 1042 z "},"Ł":{"ha":706,"x_min":7,"x_max":699,"o":"m 153 322 l 33 279 q 13 318 19 297 q 7 353 7 339 q 24 401 7 383 q 72 429 42 418 l 153 458 l 153 917 l 447 917 l 447 567 l 593 619 q 614 579 608 599 q 619 546 619 560 q 603 497 619 515 q 554 468 586 479 l 447 429 l 447 125 l 699 125 l 685 0 l 153 0 l 153 322 z "},"M":{"ha":1200,"x_min":69,"x_max":1131,"o":"m 1131 917 l 1131 0 l 836 0 l 836 711 l 611 0 l 451 0 l 226 711 l 226 0 l 69 0 l 69 917 l 450 917 l 601 403 l 753 917 l 1131 917 z "},"N":{"ha":925,"x_min":69,"x_max":856,"o":"m 513 0 l 226 678 l 226 0 l 69 0 l 69 917 l 413 917 l 699 239 l 699 917 l 856 917 l 856 0 l 513 0 z "},"Ǌ":{"ha":1358,"x_min":69,"x_max":1289,"o":"m 513 0 l 226 678 l 226 0 l 69 0 l 69 917 l 413 917 l 699 239 l 699 917 l 856 917 l 856 0 l 513 0 m 1289 110 q 1269 -76 1289 10 q 1195 -212 1249 -161 q 1042 -264 1142 -264 q 942 -248 993 -264 q 869 -187 890 -232 q 978 -99 961 -178 q 994 72 994 -19 l 994 917 l 1289 917 l 1289 110 z "},"Ń":{"ha":925,"x_min":69,"x_max":856,"o":"m 513 0 l 226 678 l 226 0 l 69 0 l 69 917 l 413 917 l 699 239 l 699 917 l 856 917 l 856 0 l 513 0 m 317 1056 l 658 1196 q 696 1150 681 1178 q 711 1094 711 1122 q 651 1017 711 1031 q 535 999 592 1003 l 333 985 l 317 1056 z "},"Ň":{"ha":925,"x_min":69,"x_max":856,"o":"m 513 0 l 226 678 l 226 0 l 69 0 l 69 917 l 413 917 l 699 239 l 699 917 l 856 917 l 856 0 l 513 0 m 647 1190 l 701 1126 l 506 965 l 418 965 l 218 1126 l 272 1190 l 460 1118 l 647 1190 z "},"Ņ":{"ha":925,"x_min":69,"x_max":856,"o":"m 513 0 l 226 678 l 226 0 l 69 0 l 69 917 l 413 917 l 699 239 l 699 917 l 856 917 l 856 0 l 513 0 m 438 -71 q 536 -98 506 -71 q 567 -183 567 -125 q 512 -306 567 -253 q 376 -358 457 -358 q 348 -357 363 -358 q 321 -353 333 -356 q 363 -283 349 -318 q 378 -207 378 -247 q 346 -92 378 -143 q 386 -76 358 -82 q 438 -71 414 -71 z "},"Ṅ":{"ha":925,"x_min":69,"x_max":856,"o":"m 513 0 l 226 678 l 226 0 l 69 0 l 69 917 l 413 917 l 699 239 l 699 917 l 856 917 l 856 0 l 513 0 m 472 1250 q 577 1221 536 1250 q 618 1139 618 1192 q 574 1056 618 1083 q 467 1028 531 1028 q 360 1056 403 1028 q 318 1136 318 1083 q 363 1221 318 1192 q 472 1250 408 1250 z "},"Ŋ":{"ha":925,"x_min":69,"x_max":856,"o":"m 856 76 q 849 -87 856 -6 q 808 -223 842 -168 q 693 -278 775 -278 q 628 -265 657 -278 q 585 -231 600 -253 q 674 -167 653 -222 q 697 -39 696 -111 q 700 94 697 33 l 781 0 l 513 0 l 226 678 l 226 0 l 69 0 l 69 917 l 413 917 l 699 239 l 699 917 l 856 917 l 856 76 z "},"ǋ":{"ha":1344,"x_min":69,"x_max":1288,"o":"m 513 0 l 226 678 l 226 0 l 69 0 l 69 917 l 413 917 l 699 239 l 699 917 l 856 917 l 856 0 l 513 0 m 1269 64 q 1251 -106 1269 -28 q 1185 -231 1233 -183 q 1044 -278 1136 -278 q 953 -263 1000 -278 q 886 -208 906 -249 q 985 -126 969 -197 q 1000 29 1000 -54 l 1000 708 l 1269 708 l 1269 64 m 1142 1042 q 1247 1013 1206 1042 q 1288 931 1288 983 q 1244 847 1288 875 q 1136 819 1200 819 q 1030 847 1072 819 q 988 928 988 875 q 1033 1013 988 983 q 1142 1042 1078 1042 z "},"Ñ":{"ha":925,"x_min":69,"x_max":856,"o":"m 513 0 l 226 678 l 226 0 l 69 0 l 69 917 l 413 917 l 699 239 l 699 917 l 856 917 l 856 0 l 513 0 m 707 1160 q 730 1120 721 1143 q 739 1076 739 1097 q 698 1004 739 1021 q 601 988 657 988 q 456 1001 544 988 q 310 1015 368 1015 q 263 1010 286 1015 q 221 988 239 1006 q 198 1027 207 1004 q 189 1071 189 1050 q 230 1143 189 1126 q 326 1160 271 1160 q 472 1146 383 1160 q 618 1132 560 1132 q 665 1137 642 1132 q 707 1160 689 1142 z "},"O":{"ha":928,"x_min":28,"x_max":900,"o":"m 464 944 q 794 819 688 944 q 900 471 900 694 q 852 210 900 324 q 708 33 804 97 q 464 -31 611 -31 q 139 104 250 -31 q 28 453 28 239 q 74 713 28 603 q 217 884 121 824 q 464 944 314 944 m 464 72 q 545 137 519 72 q 577 292 571 201 q 583 463 583 383 q 577 630 583 542 q 545 780 571 718 q 464 842 519 842 q 383 780 408 842 q 351 630 357 718 q 344 463 344 542 q 351 292 344 383 q 383 137 357 201 q 464 72 408 72 z "},"Ó":{"ha":928,"x_min":28,"x_max":900,"o":"m 464 944 q 794 819 688 944 q 900 471 900 694 q 852 210 900 324 q 708 33 804 97 q 464 -31 611 -31 q 139 104 250 -31 q 28 453 28 239 q 74 713 28 603 q 217 884 121 824 q 464 944 314 944 m 464 72 q 545 137 519 72 q 577 292 571 201 q 583 463 583 383 q 577 630 583 542 q 545 780 571 718 q 464 842 519 842 q 383 780 408 842 q 351 630 357 718 q 344 463 344 542 q 351 292 344 383 q 383 137 357 201 q 464 72 408 72 m 318 1056 l 660 1196 q 697 1150 682 1178 q 713 1094 713 1122 q 653 1017 713 1031 q 536 999 593 1003 l 335 985 l 318 1056 z "},"Ŏ":{"ha":928,"x_min":28,"x_max":900,"o":"m 464 944 q 794 819 688 944 q 900 471 900 694 q 852 210 900 324 q 708 33 804 97 q 464 -31 611 -31 q 139 104 250 -31 q 28 453 28 239 q 74 713 28 603 q 217 884 121 824 q 464 944 314 944 m 464 72 q 545 137 519 72 q 577 292 571 201 q 583 463 583 383 q 577 630 583 542 q 545 780 571 718 q 464 842 519 842 q 383 780 408 842 q 351 630 357 718 q 344 463 344 542 q 351 292 344 383 q 383 137 357 201 q 464 72 408 72 m 732 1163 q 676 1026 732 1081 q 464 972 621 972 q 251 1026 307 972 q 196 1163 196 1081 l 399 1163 q 401 1083 399 1122 q 464 1044 404 1044 q 526 1083 524 1044 q 529 1163 529 1122 l 732 1163 z "},"Ô":{"ha":928,"x_min":28,"x_max":900,"o":"m 464 944 q 794 819 688 944 q 900 471 900 694 q 852 210 900 324 q 708 33 804 97 q 464 -31 611 -31 q 139 104 250 -31 q 28 453 28 239 q 74 713 28 603 q 217 884 121 824 q 464 944 314 944 m 464 72 q 545 137 519 72 q 577 292 571 201 q 583 463 583 383 q 577 630 583 542 q 545 780 571 718 q 464 842 519 842 q 383 780 408 842 q 351 630 357 718 q 344 463 344 542 q 351 292 344 383 q 383 137 357 201 q 464 72 408 72 z "},"Ö":{"ha":928,"x_min":28,"x_max":900,"o":"m 464 944 q 794 819 688 944 q 900 471 900 694 q 852 210 900 324 q 708 33 804 97 q 464 -31 611 -31 q 139 104 250 -31 q 28 453 28 239 q 74 713 28 603 q 217 884 121 824 q 464 944 314 944 m 464 72 q 545 137 519 72 q 577 292 571 201 q 583 463 583 383 q 577 630 583 542 q 545 780 571 718 q 464 842 519 842 q 383 780 408 842 q 351 630 357 718 q 344 463 344 542 q 351 292 344 383 q 383 137 357 201 q 464 72 408 72 z "},"Ọ":{"ha":928,"x_min":28,"x_max":900,"o":"m 464 944 q 794 819 688 944 q 900 471 900 694 q 852 210 900 324 q 708 33 804 97 q 464 -31 611 -31 q 139 104 250 -31 q 28 453 28 239 q 74 713 28 603 q 217 884 121 824 q 464 944 314 944 m 464 72 q 545 137 519 72 q 577 292 571 201 q 583 463 583 383 q 577 630 583 542 q 545 780 571 718 q 464 842 519 842 q 383 780 408 842 q 351 630 357 718 q 344 463 344 542 q 351 292 344 383 q 383 137 357 201 q 464 72 408 72 z "},"Ò":{"ha":928,"x_min":28,"x_max":900,"o":"m 464 944 q 794 819 688 944 q 900 471 900 694 q 852 210 900 324 q 708 33 804 97 q 464 -31 611 -31 q 139 104 250 -31 q 28 453 28 239 q 74 713 28 603 q 217 884 121 824 q 464 944 314 944 m 464 72 q 545 137 519 72 q 577 292 571 201 q 583 463 583 383 q 577 630 583 542 q 545 780 571 718 q 464 842 519 842 q 383 780 408 842 q 351 630 357 718 q 344 463 344 542 q 351 292 344 383 q 383 137 357 201 q 464 72 408 72 m 593 986 l 392 1000 q 275 1018 335 1004 q 215 1096 215 1032 q 231 1151 215 1124 q 268 1197 246 1179 l 610 1057 l 593 986 z "},"Ő":{"ha":928,"x_min":28,"x_max":900,"o":"m 464 944 q 794 819 688 944 q 900 471 900 694 q 852 210 900 324 q 708 33 804 97 q 464 -31 611 -31 q 139 104 250 -31 q 28 453 28 239 q 74 713 28 603 q 217 884 121 824 q 464 944 314 944 m 464 72 q 545 137 519 72 q 577 292 571 201 q 583 463 583 383 q 577 630 583 542 q 545 780 571 718 q 464 842 519 842 q 383 780 408 842 q 351 630 357 718 q 344 463 344 542 q 351 292 344 383 q 383 137 357 201 q 464 72 408 72 m 247 1043 l 490 1197 q 528 1160 514 1183 q 543 1110 543 1138 q 515 1040 543 1067 q 422 1000 486 1013 l 276 972 l 247 1043 m 542 1043 l 785 1197 q 823 1160 808 1183 q 838 1110 838 1138 q 809 1040 838 1067 q 717 1000 781 1013 l 571 972 l 542 1043 z "},"Ō":{"ha":928,"x_min":28,"x_max":900,"o":"m 464 944 q 794 819 688 944 q 900 471 900 694 q 852 210 900 324 q 708 33 804 97 q 464 -31 611 -31 q 139 104 250 -31 q 28 453 28 239 q 74 713 28 603 q 217 884 121 824 q 464 944 314 944 m 464 72 q 545 137 519 72 q 577 292 571 201 q 583 463 583 383 q 577 630 583 542 q 545 780 571 718 q 464 842 519 842 q 383 780 408 842 q 351 630 357 718 q 344 463 344 542 q 351 292 344 383 q 383 137 357 201 q 464 72 408 72 m 664 1199 q 673 1175 669 1189 q 676 1144 676 1161 q 655 1091 676 1111 q 597 1071 633 1071 l 263 1071 q 250 1125 250 1092 q 329 1199 250 1199 l 664 1199 z "},"Ǫ":{"ha":928,"x_min":28,"x_max":900,"o":"m 464 944 q 794 819 688 944 q 900 471 900 694 q 852 210 900 324 q 708 33 804 97 q 464 -31 611 -31 q 139 104 250 -31 q 28 453 28 239 q 74 713 28 603 q 217 884 121 824 q 464 944 314 944 m 464 72 q 545 137 519 72 q 577 292 571 201 q 583 463 583 383 q 577 630 583 542 q 545 780 571 718 q 464 842 519 842 q 383 780 408 842 q 351 630 357 718 q 344 463 344 542 q 351 292 344 383 q 383 137 357 201 q 464 72 408 72 m 640 0 q 553 -84 589 -36 q 517 -189 517 -132 q 536 -248 517 -233 q 594 -262 556 -262 q 638 -255 614 -262 q 671 -228 661 -247 q 695 -251 685 -239 q 706 -286 706 -264 q 680 -342 706 -322 q 619 -372 654 -362 q 556 -381 583 -381 q 413 -349 476 -381 q 350 -237 350 -317 q 417 -89 350 -150 q 565 8 485 -28 l 640 0 z "},"Ø":{"ha":928,"x_min":28,"x_max":900,"o":"m 717 1000 q 780 985 749 1000 q 811 939 811 971 q 805 912 811 926 q 789 883 799 897 l 153 -79 q 90 -65 121 -79 q 58 -18 58 -50 q 65 9 58 -6 q 81 38 71 24 l 717 1000 m 464 944 q 794 819 688 944 q 900 471 900 694 q 852 210 900 324 q 708 33 804 97 q 464 -31 611 -31 q 139 104 250 -31 q 28 453 28 239 q 74 713 28 603 q 217 884 121 824 q 464 944 314 944 m 464 72 q 545 137 519 72 q 577 292 571 201 q 583 463 583 383 q 577 630 583 542 q 545 780 571 718 q 464 842 519 842 q 383 780 408 842 q 351 630 357 718 q 344 463 344 542 q 351 292 344 383 q 383 137 357 201 q 464 72 408 72 z "},"Ǿ":{"ha":928,"x_min":28,"x_max":900,"o":"m 717 1000 q 780 985 749 1000 q 811 939 811 971 q 805 912 811 926 q 789 883 799 897 l 153 -79 q 90 -65 121 -79 q 58 -18 58 -50 q 65 9 58 -6 q 81 38 71 24 l 717 1000 m 464 944 q 794 819 688 944 q 900 471 900 694 q 852 210 900 324 q 708 33 804 97 q 464 -31 611 -31 q 139 104 250 -31 q 28 453 28 239 q 74 713 28 603 q 217 884 121 824 q 464 944 314 944 m 464 72 q 545 137 519 72 q 577 292 571 201 q 583 463 583 383 q 577 630 583 542 q 545 780 571 718 q 464 842 519 842 q 383 780 408 842 q 351 630 357 718 q 344 463 344 542 q 351 292 344 383 q 383 137 357 201 q 464 72 408 72 m 317 1057 l 658 1197 q 696 1151 681 1179 q 711 1096 711 1124 q 651 1018 711 1032 q 535 1000 592 1004 l 333 986 l 317 1057 z "},"Õ":{"ha":928,"x_min":28,"x_max":900,"o":"m 464 944 q 794 819 688 944 q 900 471 900 694 q 852 210 900 324 q 708 33 804 97 q 464 -31 611 -31 q 139 104 250 -31 q 28 453 28 239 q 74 713 28 603 q 217 884 121 824 q 464 944 314 944 m 464 72 q 545 137 519 72 q 577 292 571 201 q 583 463 583 383 q 577 630 583 542 q 545 780 571 718 q 464 842 519 842 q 383 780 408 842 q 351 630 357 718 q 344 463 344 542 q 351 292 344 383 q 383 137 357 201 q 464 72 408 72 m 708 1160 q 731 1120 722 1143 q 740 1076 740 1097 q 699 1004 740 1021 q 603 988 658 988 q 458 1001 546 988 q 311 1015 369 1015 q 264 1010 288 1015 q 222 988 240 1006 q 199 1027 208 1004 q 190 1071 190 1050 q 231 1143 190 1126 q 328 1160 272 1160 q 473 1146 385 1160 q 619 1132 561 1132 q 667 1137 643 1132 q 708 1160 690 1142 z "},"Œ":{"ha":1121,"x_min":28,"x_max":1119,"o":"m 464 944 q 619 925 550 944 q 740 868 689 906 l 796 114 q 658 8 742 46 q 464 -31 575 -31 q 139 104 250 -31 q 28 453 28 239 q 74 713 28 603 q 217 884 121 824 q 464 944 314 944 m 464 72 q 545 137 519 72 q 577 292 571 201 q 583 463 583 383 q 577 630 583 542 q 545 780 571 718 q 464 842 519 842 q 383 780 408 842 q 351 630 357 718 q 344 463 344 542 q 351 292 344 383 q 383 137 357 201 q 464 72 408 72 m 1099 800 l 851 800 l 851 529 l 1057 529 l 1057 413 l 851 413 l 851 117 l 1119 117 l 1108 0 l 613 0 l 613 917 l 1099 917 l 1099 800 z "},"P":{"ha":854,"x_min":69,"x_max":835,"o":"m 835 646 q 758 442 835 519 q 554 365 681 365 q 449 387 494 365 q 403 468 403 408 q 517 513 488 468 q 546 642 546 557 q 521 768 546 715 q 422 821 496 821 q 364 813 392 821 l 364 0 l 69 0 l 69 904 q 249 919 164 914 q 422 924 333 924 q 628 901 533 924 q 778 818 722 878 q 835 646 835 758 z "},"Þ":{"ha":854,"x_min":69,"x_max":835,"o":"m 364 917 l 364 746 q 393 746 378 746 q 422 746 408 746 q 628 723 533 746 q 778 640 722 700 q 835 468 835 581 q 758 265 835 342 q 554 188 681 188 q 449 209 494 188 q 403 290 403 231 q 517 335 488 290 q 546 464 546 379 q 521 590 546 538 q 422 643 496 643 q 364 635 392 643 l 364 0 l 69 0 l 69 917 l 364 917 z "},"Q":{"ha":928,"x_min":28,"x_max":900,"o":"m 464 944 q 794 819 688 944 q 900 471 900 694 q 842 212 900 325 q 685 35 783 99 q 465 -31 586 -29 q 594 -57 525 -44 q 721 -69 664 -69 q 790 -62 757 -69 q 854 -25 824 -54 q 881 -79 869 -53 q 892 -139 892 -106 q 853 -234 892 -207 q 758 -261 815 -261 q 602 -232 681 -261 q 446 -174 524 -203 q 289 -144 368 -144 q 232 -147 263 -144 q 178 -161 201 -150 q 149 -90 149 -129 q 190 -17 149 -33 q 289 0 232 -1 q 94 169 161 49 q 28 453 28 289 q 74 713 28 603 q 217 884 121 824 q 464 944 314 944 m 464 842 q 383 780 408 842 q 351 630 357 718 q 344 463 344 542 q 351 292 344 383 q 383 137 357 201 q 464 72 408 72 q 545 137 519 72 q 577 292 571 201 q 583 463 583 383 q 577 630 583 542 q 545 780 571 718 q 464 842 519 842 z "},"R":{"ha":861,"x_min":69,"x_max":881,"o":"m 821 646 q 778 485 821 553 q 660 388 735 418 l 881 0 l 579 0 l 415 414 q 406 440 410 428 q 403 468 403 453 q 507 515 482 468 q 532 642 532 563 q 512 766 532 711 q 422 821 492 821 q 364 813 392 821 l 364 0 l 69 0 l 69 904 q 249 919 164 914 q 422 924 333 924 q 626 901 536 924 q 768 819 715 879 q 821 646 821 758 z "},"Ŕ":{"ha":861,"x_min":69,"x_max":881,"o":"m 821 646 q 778 485 821 553 q 660 388 735 418 l 881 0 l 579 0 l 415 414 q 406 440 410 428 q 403 468 403 453 q 507 515 482 468 q 532 642 532 563 q 512 766 532 711 q 422 821 492 821 q 364 813 392 821 l 364 0 l 69 0 l 69 904 q 249 919 164 914 q 422 924 333 924 q 626 901 536 924 q 768 819 715 879 q 821 646 821 758 m 276 1056 l 618 1196 q 656 1150 640 1178 q 671 1094 671 1122 q 611 1017 671 1031 q 494 999 551 1003 l 293 985 l 276 1056 z "},"Ř":{"ha":861,"x_min":69,"x_max":881,"o":"m 821 646 q 778 485 821 553 q 660 388 735 418 l 881 0 l 579 0 l 415 414 q 406 440 410 428 q 403 468 403 453 q 507 515 482 468 q 532 642 532 563 q 512 766 532 711 q 422 821 492 821 q 364 813 392 821 l 364 0 l 69 0 l 69 904 q 249 919 164 914 q 422 924 333 924 q 626 901 536 924 q 768 819 715 879 q 821 646 821 758 m 607 1190 l 661 1126 l 465 965 l 378 965 l 178 1126 l 232 1190 l 419 1118 l 607 1190 z "},"Ŗ":{"ha":861,"x_min":69,"x_max":881,"o":"m 821 646 q 778 485 821 553 q 660 388 735 418 l 881 0 l 579 0 l 415 414 q 406 440 410 428 q 403 468 403 453 q 507 515 482 468 q 532 642 532 563 q 512 766 532 711 q 422 821 492 821 q 364 813 392 821 l 364 0 l 69 0 l 69 904 q 249 919 164 914 q 422 924 333 924 q 626 901 536 924 q 768 819 715 879 q 821 646 821 758 m 443 -71 q 542 -98 511 -71 q 572 -183 572 -125 q 517 -306 572 -253 q 382 -358 463 -358 q 353 -357 368 -358 q 326 -353 339 -356 q 369 -283 354 -318 q 383 -207 383 -247 q 351 -92 383 -143 q 392 -76 364 -82 q 443 -71 419 -71 z "},"Ṛ":{"ha":861,"x_min":69,"x_max":881,"o":"m 821 646 q 778 485 821 553 q 660 388 735 418 l 881 0 l 579 0 l 415 414 q 406 440 410 428 q 403 468 403 453 q 507 515 482 468 q 532 642 532 563 q 512 766 532 711 q 422 821 492 821 q 364 813 392 821 l 364 0 l 69 0 l 69 904 q 249 919 164 914 q 422 924 333 924 q 626 901 536 924 q 768 819 715 879 q 821 646 821 758 z "},"S":{"ha":768,"x_min":19,"x_max":740,"o":"m 410 944 q 549 929 478 944 q 670 876 621 914 q 719 771 719 839 q 669 662 719 696 q 547 628 618 628 q 512 630 532 628 q 475 638 492 632 q 481 683 479 661 q 483 728 483 706 q 463 810 483 778 q 390 842 442 842 q 324 817 349 842 q 300 751 300 793 q 344 642 300 683 q 454 570 389 601 q 585 503 519 539 q 696 413 651 468 q 740 265 740 357 q 624 38 740 106 q 349 -31 508 -31 q 199 -15 275 -31 q 71 42 122 1 q 19 157 19 83 q 70 273 19 232 q 192 314 121 314 q 227 312 207 314 q 264 304 247 310 q 258 266 260 283 q 256 228 256 249 q 278 117 256 161 q 368 72 301 72 q 450 99 419 72 q 481 178 481 126 q 436 287 481 246 q 326 359 392 328 q 195 426 261 390 q 85 517 129 461 q 40 664 40 572 q 94 819 40 757 q 232 913 147 882 q 410 944 317 944 z "},"Ś":{"ha":768,"x_min":19,"x_max":740,"o":"m 410 944 q 549 929 478 944 q 670 876 621 914 q 719 771 719 839 q 669 662 719 696 q 547 628 618 628 q 512 630 532 628 q 475 638 492 632 q 481 683 479 661 q 483 728 483 706 q 463 810 483 778 q 390 842 442 842 q 324 817 349 842 q 300 751 300 793 q 344 642 300 683 q 454 570 389 601 q 585 503 519 539 q 696 413 651 468 q 740 265 740 357 q 624 38 740 106 q 349 -31 508 -31 q 199 -15 275 -31 q 71 42 122 1 q 19 157 19 83 q 70 273 19 232 q 192 314 121 314 q 227 312 207 314 q 264 304 247 310 q 258 266 260 283 q 256 228 256 249 q 278 117 256 161 q 368 72 301 72 q 450 99 419 72 q 481 178 481 126 q 436 287 481 246 q 326 359 392 328 q 195 426 261 390 q 85 517 129 461 q 40 664 40 572 q 94 819 40 757 q 232 913 147 882 q 410 944 317 944 m 244 1056 l 586 1196 q 624 1150 608 1178 q 639 1094 639 1122 q 579 1017 639 1031 q 463 999 519 1003 l 261 985 l 244 1056 z "},"Š":{"ha":768,"x_min":19,"x_max":740,"o":"m 410 944 q 549 929 478 944 q 670 876 621 914 q 719 771 719 839 q 669 662 719 696 q 547 628 618 628 q 512 630 532 628 q 475 638 492 632 q 481 683 479 661 q 483 728 483 706 q 463 810 483 778 q 390 842 442 842 q 324 817 349 842 q 300 751 300 793 q 344 642 300 683 q 454 570 389 601 q 585 503 519 539 q 696 413 651 468 q 740 265 740 357 q 624 38 740 106 q 349 -31 508 -31 q 199 -15 275 -31 q 71 42 122 1 q 19 157 19 83 q 70 273 19 232 q 192 314 121 314 q 227 312 207 314 q 264 304 247 310 q 258 266 260 283 q 256 228 256 249 q 278 117 256 161 q 368 72 301 72 q 450 99 419 72 q 481 178 481 126 q 436 287 481 246 q 326 359 392 328 q 195 426 261 390 q 85 517 129 461 q 40 664 40 572 q 94 819 40 757 q 232 913 147 882 q 410 944 317 944 m 575 1190 l 629 1126 l 433 965 l 346 965 l 146 1126 l 200 1190 l 388 1118 l 575 1190 z "},"Ş":{"ha":768,"x_min":19,"x_max":740,"o":"m 410 944 q 549 929 478 944 q 670 876 621 914 q 719 771 719 839 q 669 662 719 696 q 547 628 618 628 q 512 630 532 628 q 475 638 492 632 q 481 683 479 661 q 483 728 483 706 q 463 810 483 778 q 390 842 442 842 q 324 817 349 842 q 300 751 300 793 q 344 642 300 683 q 454 570 389 601 q 585 503 519 539 q 696 413 651 468 q 740 265 740 357 q 624 38 740 106 q 349 -31 508 -31 q 199 -15 275 -31 q 71 42 122 1 q 19 157 19 83 q 70 273 19 232 q 192 314 121 314 q 227 312 207 314 q 264 304 247 310 q 258 266 260 283 q 256 228 256 249 q 278 117 256 161 q 368 72 301 72 q 450 99 419 72 q 481 178 481 126 q 436 287 481 246 q 326 359 392 328 q 195 426 261 390 q 85 517 129 461 q 40 664 40 572 q 94 819 40 757 q 232 913 147 882 q 410 944 317 944 m 361 15 l 318 -96 l 303 -83 q 329 -81 313 -82 q 360 -79 346 -79 q 483 -110 433 -79 q 532 -214 532 -140 q 468 -323 532 -287 q 331 -358 404 -358 q 235 -342 289 -358 q 182 -274 182 -326 q 199 -219 182 -239 q 241 -252 215 -240 q 308 -264 267 -264 q 347 -249 331 -264 q 364 -210 364 -233 q 335 -163 364 -174 q 271 -153 306 -153 q 243 -153 257 -153 q 215 -156 229 -154 l 278 15 l 361 15 z "},"Ŝ":{"ha":768,"x_min":19,"x_max":740,"o":"m 410 944 q 549 929 478 944 q 670 876 621 914 q 719 771 719 839 q 669 662 719 696 q 547 628 618 628 q 512 630 532 628 q 475 638 492 632 q 481 683 479 661 q 483 728 483 706 q 463 810 483 778 q 390 842 442 842 q 324 817 349 842 q 300 751 300 793 q 344 642 300 683 q 454 570 389 601 q 585 503 519 539 q 696 413 651 468 q 740 265 740 357 q 624 38 740 106 q 349 -31 508 -31 q 199 -15 275 -31 q 71 42 122 1 q 19 157 19 83 q 70 273 19 232 q 192 314 121 314 q 227 312 207 314 q 264 304 247 310 q 258 266 260 283 q 256 228 256 249 q 278 117 256 161 q 368 72 301 72 q 450 99 419 72 q 481 178 481 126 q 436 287 481 246 q 326 359 392 328 q 195 426 261 390 q 85 517 129 461 q 40 664 40 572 q 94 819 40 757 q 232 913 147 882 q 410 944 317 944 z "},"Ș":{"ha":768,"x_min":19,"x_max":740,"o":"m 410 944 q 549 929 478 944 q 670 876 621 914 q 719 771 719 839 q 669 662 719 696 q 547 628 618 628 q 512 630 532 628 q 475 638 492 632 q 481 683 479 661 q 483 728 483 706 q 463 810 483 778 q 390 842 442 842 q 324 817 349 842 q 300 751 300 793 q 344 642 300 683 q 454 570 389 601 q 585 503 519 539 q 696 413 651 468 q 740 265 740 357 q 624 38 740 106 q 349 -31 508 -31 q 199 -15 275 -31 q 71 42 122 1 q 19 157 19 83 q 70 273 19 232 q 192 314 121 314 q 227 312 207 314 q 264 304 247 310 q 258 266 260 283 q 256 228 256 249 q 278 117 256 161 q 368 72 301 72 q 450 99 419 72 q 481 178 481 126 q 436 287 481 246 q 326 359 392 328 q 195 426 261 390 q 85 517 129 461 q 40 664 40 572 q 94 819 40 757 q 232 913 147 882 q 410 944 317 944 m 324 -71 q 422 -98 392 -71 q 453 -183 453 -125 q 398 -306 453 -253 q 263 -358 343 -358 q 234 -357 249 -358 q 207 -353 219 -356 q 249 -283 235 -318 q 264 -207 264 -247 q 232 -92 264 -143 q 272 -76 244 -82 q 324 -71 300 -71 z "},"Ṣ":{"ha":768,"x_min":19,"x_max":740,"o":"m 410 944 q 549 929 478 944 q 670 876 621 914 q 719 771 719 839 q 669 662 719 696 q 547 628 618 628 q 512 630 532 628 q 475 638 492 632 q 481 683 479 661 q 483 728 483 706 q 463 810 483 778 q 390 842 442 842 q 324 817 349 842 q 300 751 300 793 q 344 642 300 683 q 454 570 389 601 q 585 503 519 539 q 696 413 651 468 q 740 265 740 357 q 624 38 740 106 q 349 -31 508 -31 q 199 -15 275 -31 q 71 42 122 1 q 19 157 19 83 q 70 273 19 232 q 192 314 121 314 q 227 312 207 314 q 264 304 247 310 q 258 266 260 283 q 256 228 256 249 q 278 117 256 161 q 368 72 301 72 q 450 99 419 72 q 481 178 481 126 q 436 287 481 246 q 326 359 392 328 q 195 426 261 390 q 85 517 129 461 q 40 664 40 572 q 94 819 40 757 q 232 913 147 882 q 410 944 317 944 z "},"ẞ":{"ha":1050,"x_min":56,"x_max":1029,"o":"m 56 0 l 56 446 q 170 819 56 694 q 533 944 285 944 q 747 906 650 944 q 907 769 843 867 q 778 727 840 758 q 715 629 715 696 q 763 531 715 576 q 872 440 810 486 q 982 338 935 393 q 1029 207 1029 282 q 931 22 1029 75 q 701 -31 833 -31 q 574 -18 640 -31 q 460 28 507 -6 q 414 122 414 61 q 461 210 414 183 q 569 236 508 236 q 608 233 583 236 q 643 224 632 231 q 640 189 642 207 q 638 154 638 171 q 652 80 638 111 q 711 49 667 49 q 769 74 749 49 q 789 136 789 99 q 744 247 789 199 q 639 341 699 296 q 534 438 579 386 q 489 558 489 489 q 550 695 489 644 q 683 769 611 746 q 623 819 660 797 q 533 840 586 840 q 420 797 458 840 q 368 670 382 754 q 354 461 354 586 l 354 0 l 56 0 z "},"Ə":{"ha":892,"x_min":28,"x_max":864,"o":"m 392 -31 q 219 -6 303 -31 q 82 76 136 19 q 28 226 28 133 q 81 403 28 343 q 226 485 135 464 q 431 506 317 506 q 490 504 453 506 q 544 500 528 503 q 519 626 540 568 q 456 720 499 685 q 342 756 413 756 q 207 714 272 756 q 110 608 142 672 q 72 649 85 619 q 58 706 58 678 q 109 843 58 789 q 238 923 160 897 q 397 949 315 949 q 746 817 628 949 q 864 457 864 686 q 747 93 864 217 q 392 -31 629 -31 m 417 75 q 495 124 468 75 q 533 244 522 174 q 544 378 543 314 q 546 471 546 442 l 629 417 q 588 419 607 418 q 551 419 569 419 q 372 380 438 422 q 307 226 307 338 q 337 123 307 171 q 417 75 367 75 z "},"T":{"ha":700,"x_min":10,"x_max":693,"o":"m 693 917 l 682 800 l 497 800 l 497 0 l 203 0 l 203 800 l 10 800 l 10 917 l 693 917 z "},"Ŧ":{"ha":700,"x_min":10,"x_max":693,"o":"m 21 399 q 17 420 18 408 q 15 440 15 432 q 108 526 15 526 l 678 526 q 682 504 681 517 q 683 485 683 492 q 658 420 683 442 q 589 399 633 399 l 21 399 m 693 917 l 682 800 l 497 800 l 497 0 l 203 0 l 203 800 l 10 800 l 10 917 l 693 917 z "},"Ť":{"ha":700,"x_min":10,"x_max":693,"o":"m 693 917 l 682 800 l 497 800 l 497 0 l 203 0 l 203 800 l 10 800 l 10 917 l 693 917 m 535 1190 l 589 1126 l 393 965 l 306 965 l 106 1126 l 160 1190 l 347 1118 l 535 1190 z "},"Ţ":{"ha":700,"x_min":10,"x_max":693,"o":"m 693 917 l 682 800 l 497 800 l 497 0 l 203 0 l 203 800 l 10 800 l 10 917 l 693 917 m 363 15 l 319 -96 l 304 -83 q 331 -81 314 -82 q 361 -79 347 -79 q 484 -110 435 -79 q 533 -214 533 -140 q 469 -323 533 -287 q 332 -358 406 -358 q 237 -342 290 -358 q 183 -274 183 -326 q 200 -219 183 -239 q 242 -252 217 -240 q 310 -264 268 -264 q 349 -249 332 -264 q 365 -210 365 -233 q 336 -163 365 -174 q 272 -153 307 -153 q 244 -153 258 -153 q 217 -156 231 -154 l 279 15 l 363 15 z "},"Ț":{"ha":700,"x_min":10,"x_max":693,"o":"m 693 917 l 682 800 l 497 800 l 497 0 l 203 0 l 203 800 l 10 800 l 10 917 l 693 917 m 325 -71 q 424 -98 393 -71 q 454 -183 454 -125 q 399 -306 454 -253 q 264 -358 344 -358 q 235 -357 250 -358 q 208 -353 221 -356 q 251 -283 236 -318 q 265 -207 265 -247 q 233 -92 265 -143 q 274 -76 246 -82 q 325 -71 301 -71 z "},"Ṭ":{"ha":700,"x_min":10,"x_max":693,"o":"m 693 917 l 682 800 l 497 800 l 497 0 l 203 0 l 203 800 l 10 800 l 10 917 l 693 917 z "},"U":{"ha":846,"x_min":58,"x_max":788,"o":"m 788 381 q 712 75 788 181 q 436 -31 636 -31 q 151 56 243 -31 q 58 335 58 142 l 58 917 l 353 917 l 353 350 q 372 153 353 221 q 465 86 392 86 q 539 117 514 86 q 572 210 564 149 q 579 365 579 272 l 579 917 l 788 917 l 788 381 z "},"Ú":{"ha":846,"x_min":58,"x_max":788,"o":"m 788 381 q 712 75 788 181 q 436 -31 636 -31 q 151 56 243 -31 q 58 335 58 142 l 58 917 l 353 917 l 353 350 q 372 153 353 221 q 465 86 392 86 q 539 117 514 86 q 572 210 564 149 q 579 365 579 272 l 579 917 l 788 917 l 788 381 m 319 1056 l 661 1196 q 699 1150 683 1178 q 714 1094 714 1122 q 654 1017 714 1031 q 538 999 594 1003 l 336 985 l 319 1056 z "},"Ŭ":{"ha":846,"x_min":58,"x_max":788,"o":"m 788 381 q 712 75 788 181 q 436 -31 636 -31 q 151 56 243 -31 q 58 335 58 142 l 58 917 l 353 917 l 353 350 q 372 153 353 221 q 465 86 392 86 q 539 117 514 86 q 572 210 564 149 q 579 365 579 272 l 579 917 l 788 917 l 788 381 m 733 1163 q 678 1026 733 1081 q 465 972 622 972 q 253 1026 308 972 q 197 1163 197 1081 l 400 1163 q 403 1083 400 1122 q 465 1044 406 1044 q 528 1083 525 1044 q 531 1163 531 1122 l 733 1163 z "},"Û":{"ha":846,"x_min":58,"x_max":788,"o":"m 788 381 q 712 75 788 181 q 436 -31 636 -31 q 151 56 243 -31 q 58 335 58 142 l 58 917 l 353 917 l 353 350 q 372 153 353 221 q 465 86 392 86 q 539 117 514 86 q 572 210 564 149 q 579 365 579 272 l 579 917 l 788 917 l 788 381 z "},"Ü":{"ha":846,"x_min":58,"x_max":788,"o":"m 788 381 q 712 75 788 181 q 436 -31 636 -31 q 151 56 243 -31 q 58 335 58 142 l 58 917 l 353 917 l 353 350 q 372 153 353 221 q 465 86 392 86 q 539 117 514 86 q 572 210 564 149 q 579 365 579 272 l 579 917 l 788 917 l 788 381 z "},"Ụ":{"ha":846,"x_min":58,"x_max":788,"o":"m 788 381 q 712 75 788 181 q 436 -31 636 -31 q 151 56 243 -31 q 58 335 58 142 l 58 917 l 353 917 l 353 350 q 372 153 353 221 q 465 86 392 86 q 539 117 514 86 q 572 210 564 149 q 579 365 579 272 l 579 917 l 788 917 l 788 381 z "},"Ù":{"ha":846,"x_min":58,"x_max":788,"o":"m 788 381 q 712 75 788 181 q 436 -31 636 -31 q 151 56 243 -31 q 58 335 58 142 l 58 917 l 353 917 l 353 350 q 372 153 353 221 q 465 86 392 86 q 539 117 514 86 q 572 210 564 149 q 579 365 579 272 l 579 917 l 788 917 l 788 381 m 594 986 l 393 1000 q 276 1018 336 1004 q 217 1096 217 1032 q 232 1151 217 1124 q 269 1197 247 1179 l 611 1057 l 594 986 z "},"Ű":{"ha":846,"x_min":58,"x_max":881,"o":"m 788 381 q 712 75 788 181 q 436 -31 636 -31 q 151 56 243 -31 q 58 335 58 142 l 58 917 l 353 917 l 353 350 q 372 153 353 221 q 465 86 392 86 q 539 117 514 86 q 572 210 564 149 q 579 365 579 272 l 579 917 l 788 917 l 788 381 m 290 1043 l 533 1197 q 572 1160 557 1183 q 586 1110 586 1138 q 558 1040 586 1067 q 465 1000 529 1013 l 319 972 l 290 1043 m 585 1043 l 828 1197 q 866 1160 851 1183 q 881 1110 881 1138 q 852 1040 881 1067 q 760 1000 824 1013 l 614 972 l 585 1043 z "},"Ū":{"ha":846,"x_min":58,"x_max":788,"o":"m 788 381 q 712 75 788 181 q 436 -31 636 -31 q 151 56 243 -31 q 58 335 58 142 l 58 917 l 353 917 l 353 350 q 372 153 353 221 q 465 86 392 86 q 539 117 514 86 q 572 210 564 149 q 579 365 579 272 l 579 917 l 788 917 l 788 381 m 664 1199 q 673 1175 669 1189 q 676 1144 676 1161 q 655 1091 676 1111 q 597 1071 633 1071 l 263 1071 q 250 1125 250 1092 q 329 1199 250 1199 l 664 1199 z "},"Ų":{"ha":846,"x_min":58,"x_max":788,"o":"m 788 381 q 712 75 788 181 q 436 -31 636 -31 q 151 56 243 -31 q 58 335 58 142 l 58 917 l 353 917 l 353 350 q 372 153 353 221 q 465 86 392 86 q 539 117 514 86 q 572 210 564 149 q 579 365 579 272 l 579 917 l 788 917 l 788 381 m 639 14 q 551 -70 588 -22 q 515 -175 515 -118 q 535 -234 515 -219 q 593 -249 554 -249 q 636 -241 613 -249 q 669 -214 660 -233 q 694 -237 683 -225 q 704 -272 704 -250 q 678 -328 704 -308 q 617 -358 653 -349 q 554 -367 582 -367 q 412 -335 475 -367 q 349 -224 349 -303 q 416 -75 349 -136 q 564 22 483 -14 l 639 14 z "},"Ů":{"ha":846,"x_min":58,"x_max":788,"o":"m 788 381 q 712 75 788 181 q 436 -31 636 -31 q 151 56 243 -31 q 58 335 58 142 l 58 917 l 353 917 l 353 350 q 372 153 353 221 q 465 86 392 86 q 539 117 514 86 q 572 210 564 149 q 579 365 579 272 l 579 917 l 788 917 l 788 381 m 465 971 q 351 1007 397 971 q 306 1106 306 1043 q 351 1203 306 1169 q 465 1236 396 1236 q 580 1203 535 1236 q 625 1106 625 1169 q 579 1007 625 1043 q 465 971 533 971 m 465 1026 q 513 1049 497 1026 q 528 1106 528 1072 q 513 1158 528 1136 q 465 1181 497 1181 q 418 1158 433 1181 q 403 1106 403 1136 q 417 1049 403 1072 q 465 1026 432 1026 z "},"Ũ":{"ha":846,"x_min":58,"x_max":788,"o":"m 788 381 q 712 75 788 181 q 436 -31 636 -31 q 151 56 243 -31 q 58 335 58 142 l 58 917 l 353 917 l 353 350 q 372 153 353 221 q 465 86 392 86 q 539 117 514 86 q 572 210 564 149 q 579 365 579 272 l 579 917 l 788 917 l 788 381 m 710 1160 q 733 1120 724 1143 q 742 1076 742 1097 q 701 1004 742 1021 q 604 988 660 988 q 459 1001 547 988 q 313 1015 371 1015 q 265 1010 289 1015 q 224 988 242 1006 q 201 1027 210 1004 q 192 1071 192 1050 q 233 1143 192 1126 q 329 1160 274 1160 q 474 1146 386 1160 q 621 1132 563 1132 q 668 1137 644 1132 q 710 1160 692 1142 z "},"V":{"ha":808,"x_min":4,"x_max":828,"o":"m 828 917 l 574 0 l 222 0 l 4 917 l 306 917 l 460 168 l 610 917 l 828 917 z "},"W":{"ha":1335,"x_min":4,"x_max":1354,"o":"m 1354 917 l 1100 0 l 749 0 l 658 461 l 574 0 l 222 0 l 4 917 l 306 917 l 460 168 l 610 917 l 832 917 l 986 168 l 1136 917 l 1354 917 z "},"Ẃ":{"ha":1335,"x_min":4,"x_max":1354,"o":"m 1354 917 l 1100 0 l 749 0 l 658 461 l 574 0 l 222 0 l 4 917 l 306 917 l 460 168 l 610 917 l 832 917 l 986 168 l 1136 917 l 1354 917 m 575 1056 l 917 1196 q 954 1150 939 1178 q 969 1094 969 1122 q 910 1017 969 1031 q 793 999 850 1003 l 592 985 l 575 1056 z "},"Ŵ":{"ha":1335,"x_min":4,"x_max":1354,"o":"m 1354 917 l 1100 0 l 749 0 l 658 461 l 574 0 l 222 0 l 4 917 l 306 917 l 460 168 l 610 917 l 832 917 l 986 168 l 1136 917 l 1354 917 z "},"Ẅ":{"ha":1335,"x_min":4,"x_max":1354,"o":"m 1354 917 l 1100 0 l 749 0 l 658 461 l 574 0 l 222 0 l 4 917 l 306 917 l 460 168 l 610 917 l 832 917 l 986 168 l 1136 917 l 1354 917 z "},"Ẁ":{"ha":1335,"x_min":4,"x_max":1354,"o":"m 1354 917 l 1100 0 l 749 0 l 658 461 l 574 0 l 222 0 l 4 917 l 306 917 l 460 168 l 610 917 l 832 917 l 986 168 l 1136 917 l 1354 917 m 850 986 l 649 1000 q 532 1018 592 1004 q 472 1096 472 1032 q 488 1151 472 1124 q 525 1197 503 1179 l 867 1057 l 850 986 z "},"X":{"ha":735,"x_min":-19,"x_max":754,"o":"m 754 917 l 524 465 l 753 0 l 451 0 l 308 311 l 199 0 l -19 0 l 218 472 l 0 917 l 301 917 l 433 624 l 536 917 l 754 917 z "},"Y":{"ha":767,"x_min":1,"x_max":756,"o":"m 521 415 l 521 0 l 226 0 l 226 403 l 1 917 l 303 917 l 432 554 l 538 917 l 756 917 l 521 415 z "},"Ý":{"ha":767,"x_min":1,"x_max":756,"o":"m 521 415 l 521 0 l 226 0 l 226 403 l 1 917 l 303 917 l 432 554 l 538 917 l 756 917 l 521 415 m 260 1056 l 601 1196 q 639 1150 624 1178 q 654 1094 654 1122 q 594 1017 654 1031 q 478 999 535 1003 l 276 985 l 260 1056 z "},"Ŷ":{"ha":767,"x_min":1,"x_max":756,"o":"m 521 415 l 521 0 l 226 0 l 226 403 l 1 917 l 303 917 l 432 554 l 538 917 l 756 917 l 521 415 z "},"Ÿ":{"ha":767,"x_min":1,"x_max":756,"o":"m 521 415 l 521 0 l 226 0 l 226 403 l 1 917 l 303 917 l 432 554 l 538 917 l 756 917 l 521 415 z "},"Ỳ":{"ha":767,"x_min":1,"x_max":756,"o":"m 521 415 l 521 0 l 226 0 l 226 403 l 1 917 l 303 917 l 432 554 l 538 917 l 756 917 l 521 415 m 535 986 l 333 1000 q 217 1018 276 1004 q 157 1096 157 1032 q 172 1151 157 1124 q 210 1197 188 1179 l 551 1057 l 535 986 z "},"Ỹ":{"ha":767,"x_min":1,"x_max":756,"o":"m 521 415 l 521 0 l 226 0 l 226 403 l 1 917 l 303 917 l 432 554 l 538 917 l 756 917 l 521 415 m 650 1160 q 673 1120 664 1143 q 682 1076 682 1097 q 641 1004 682 1021 q 544 988 600 988 q 399 1001 488 988 q 253 1015 311 1015 q 206 1010 229 1015 q 164 988 182 1006 q 141 1027 150 1004 q 132 1071 132 1050 q 173 1143 132 1126 q 269 1160 214 1160 q 415 1146 326 1160 q 561 1132 503 1132 q 608 1137 585 1132 q 650 1160 632 1142 z "},"Z":{"ha":664,"x_min":10,"x_max":668,"o":"m 642 917 l 651 811 l 325 125 l 668 125 l 654 0 l 19 0 l 10 106 l 336 792 l 38 792 l 38 917 l 642 917 z "},"Ź":{"ha":664,"x_min":10,"x_max":668,"o":"m 642 917 l 651 811 l 325 125 l 668 125 l 654 0 l 19 0 l 10 106 l 336 792 l 38 792 l 38 917 l 642 917 m 186 1056 l 528 1196 q 565 1150 550 1178 q 581 1094 581 1122 q 521 1017 581 1031 q 404 999 461 1003 l 203 985 l 186 1056 z "},"Ž":{"ha":664,"x_min":10,"x_max":668,"o":"m 642 917 l 651 811 l 325 125 l 668 125 l 654 0 l 19 0 l 10 106 l 336 792 l 38 792 l 38 917 l 642 917 m 517 1190 l 571 1126 l 375 965 l 288 965 l 88 1126 l 142 1190 l 329 1118 l 517 1190 z "},"Ż":{"ha":664,"x_min":10,"x_max":668,"o":"m 642 917 l 651 811 l 325 125 l 668 125 l 654 0 l 19 0 l 10 106 l 336 792 l 38 792 l 38 917 l 642 917 m 342 1250 q 447 1221 406 1250 q 488 1139 488 1192 q 444 1056 488 1083 q 336 1028 400 1028 q 230 1056 272 1028 q 188 1136 188 1083 q 233 1221 188 1192 q 342 1250 278 1250 z "},"Ẓ":{"ha":664,"x_min":10,"x_max":668,"o":"m 642 917 l 651 811 l 325 125 l 668 125 l 654 0 l 19 0 l 10 106 l 336 792 l 38 792 l 38 917 l 642 917 z "},"a":{"ha":804,"x_min":22,"x_max":782,"o":"m 488 63 q 412 -10 464 11 q 303 -31 360 -31 q 108 19 193 -31 q 22 179 22 69 q 92 327 22 279 q 266 390 163 375 q 469 404 369 404 l 469 525 q 456 617 469 578 q 390 657 442 657 q 314 622 336 657 q 292 532 292 586 q 293 497 292 515 q 297 463 294 479 q 262 453 286 456 q 224 450 238 450 q 116 476 164 450 q 68 564 68 503 q 123 669 68 632 q 255 722 178 707 q 400 736 332 736 q 646 682 553 736 q 739 475 739 628 l 739 161 q 748 85 739 121 q 782 17 757 49 q 722 -12 760 -3 q 654 -21 683 -21 q 488 63 526 -21 m 379 68 q 450 115 431 68 q 469 213 469 161 l 469 335 q 339 301 386 335 q 292 185 292 268 q 312 103 292 138 q 379 68 332 68 z "},"á":{"ha":804,"x_min":22,"x_max":782,"o":"m 488 63 q 412 -10 464 11 q 303 -31 360 -31 q 108 19 193 -31 q 22 179 22 69 q 92 327 22 279 q 266 390 163 375 q 469 404 369 404 l 469 525 q 456 617 469 578 q 390 657 442 657 q 314 622 336 657 q 292 532 292 586 q 293 497 292 515 q 297 463 294 479 q 262 453 286 456 q 224 450 238 450 q 116 476 164 450 q 68 564 68 503 q 123 669 68 632 q 255 722 178 707 q 400 736 332 736 q 646 682 553 736 q 739 475 739 628 l 739 161 q 748 85 739 121 q 782 17 757 49 q 722 -12 760 -3 q 654 -21 683 -21 q 488 63 526 -21 m 379 68 q 450 115 431 68 q 469 213 469 161 l 469 335 q 339 301 386 335 q 292 185 292 268 q 312 103 292 138 q 379 68 332 68 m 249 863 l 553 1071 q 605 1028 582 1057 q 628 968 628 1000 q 578 891 628 914 q 474 853 528 868 l 279 797 l 249 863 z "},"ă":{"ha":804,"x_min":22,"x_max":782,"o":"m 488 63 q 412 -10 464 11 q 303 -31 360 -31 q 108 19 193 -31 q 22 179 22 69 q 92 327 22 279 q 266 390 163 375 q 469 404 369 404 l 469 525 q 456 617 469 578 q 390 657 442 657 q 314 622 336 657 q 292 532 292 586 q 293 497 292 515 q 297 463 294 479 q 262 453 286 456 q 224 450 238 450 q 116 476 164 450 q 68 564 68 503 q 123 669 68 632 q 255 722 178 707 q 400 736 332 736 q 646 682 553 736 q 739 475 739 628 l 739 161 q 748 85 739 121 q 782 17 757 49 q 722 -12 760 -3 q 654 -21 683 -21 q 488 63 526 -21 m 379 68 q 450 115 431 68 q 469 213 469 161 l 469 335 q 339 301 386 335 q 292 185 292 268 q 312 103 292 138 q 379 68 332 68 m 658 1035 q 592 878 658 940 q 390 815 526 815 q 188 878 254 815 q 122 1035 122 940 l 325 1035 q 328 937 325 986 q 390 888 331 888 q 453 937 450 888 q 456 1035 456 986 l 658 1035 z "},"â":{"ha":804,"x_min":22,"x_max":782,"o":"m 488 63 q 412 -10 464 11 q 303 -31 360 -31 q 108 19 193 -31 q 22 179 22 69 q 92 327 22 279 q 266 390 163 375 q 469 404 369 404 l 469 525 q 456 617 469 578 q 390 657 442 657 q 314 622 336 657 q 292 532 292 586 q 293 497 292 515 q 297 463 294 479 q 262 453 286 456 q 224 450 238 450 q 116 476 164 450 q 68 564 68 503 q 123 669 68 632 q 255 722 178 707 q 400 736 332 736 q 646 682 553 736 q 739 475 739 628 l 739 161 q 748 85 739 121 q 782 17 757 49 q 722 -12 760 -3 q 654 -21 683 -21 q 488 63 526 -21 m 379 68 q 450 115 431 68 q 469 213 469 161 l 469 335 q 339 301 386 335 q 292 185 292 268 q 312 103 292 138 q 379 68 332 68 m 204 813 l 150 876 l 360 1038 l 419 1038 l 633 876 l 579 813 l 392 885 l 204 813 z "},"ä":{"ha":804,"x_min":22,"x_max":782,"o":"m 488 63 q 412 -10 464 11 q 303 -31 360 -31 q 108 19 193 -31 q 22 179 22 69 q 92 327 22 279 q 266 390 163 375 q 469 404 369 404 l 469 525 q 456 617 469 578 q 390 657 442 657 q 314 622 336 657 q 292 532 292 586 q 293 497 292 515 q 297 463 294 479 q 262 453 286 456 q 224 450 238 450 q 116 476 164 450 q 68 564 68 503 q 123 669 68 632 q 255 722 178 707 q 400 736 332 736 q 646 682 553 736 q 739 475 739 628 l 739 161 q 748 85 739 121 q 782 17 757 49 q 722 -12 760 -3 q 654 -21 683 -21 q 488 63 526 -21 m 379 68 q 450 115 431 68 q 469 213 469 161 l 469 335 q 339 301 386 335 q 292 185 292 268 q 312 103 292 138 q 379 68 332 68 z "},"à":{"ha":804,"x_min":22,"x_max":782,"o":"m 488 63 q 412 -10 464 11 q 303 -31 360 -31 q 108 19 193 -31 q 22 179 22 69 q 92 327 22 279 q 266 390 163 375 q 469 404 369 404 l 469 525 q 456 617 469 578 q 390 657 442 657 q 314 622 336 657 q 292 532 292 586 q 293 497 292 515 q 297 463 294 479 q 262 453 286 456 q 224 450 238 450 q 116 476 164 450 q 68 564 68 503 q 123 669 68 632 q 255 722 178 707 q 400 736 332 736 q 646 682 553 736 q 739 475 739 628 l 739 161 q 748 85 739 121 q 782 17 757 49 q 722 -12 760 -3 q 654 -21 683 -21 q 488 63 526 -21 m 379 68 q 450 115 431 68 q 469 213 469 161 l 469 335 q 339 301 386 335 q 292 185 292 268 q 312 103 292 138 q 379 68 332 68 m 503 797 l 308 853 q 204 891 254 868 q 154 968 154 914 q 177 1028 154 1000 q 229 1071 200 1057 l 533 863 l 503 797 z "},"ā":{"ha":804,"x_min":22,"x_max":782,"o":"m 488 63 q 412 -10 464 11 q 303 -31 360 -31 q 108 19 193 -31 q 22 179 22 69 q 92 327 22 279 q 266 390 163 375 q 469 404 369 404 l 469 525 q 456 617 469 578 q 390 657 442 657 q 314 622 336 657 q 292 532 292 586 q 293 497 292 515 q 297 463 294 479 q 262 453 286 456 q 224 450 238 450 q 116 476 164 450 q 68 564 68 503 q 123 669 68 632 q 255 722 178 707 q 400 736 332 736 q 646 682 553 736 q 739 475 739 628 l 739 161 q 748 85 739 121 q 782 17 757 49 q 722 -12 760 -3 q 654 -21 683 -21 q 488 63 526 -21 m 379 68 q 450 115 431 68 q 469 213 469 161 l 469 335 q 339 301 386 335 q 292 185 292 268 q 312 103 292 138 q 379 68 332 68 m 590 990 q 599 967 596 981 q 603 936 603 953 q 581 883 603 903 q 524 863 560 863 l 189 863 q 176 917 176 883 q 256 990 176 990 l 590 990 z "},"ą":{"ha":804,"x_min":22,"x_max":847,"o":"m 488 63 q 412 -10 464 11 q 303 -31 360 -31 q 108 19 193 -31 q 22 179 22 69 q 92 327 22 279 q 266 390 163 375 q 469 404 369 404 l 469 525 q 456 617 469 578 q 390 657 442 657 q 314 622 336 657 q 292 532 292 586 q 293 497 292 515 q 297 463 294 479 q 262 453 286 456 q 224 450 238 450 q 116 476 164 450 q 68 564 68 503 q 123 669 68 632 q 255 722 178 707 q 400 736 332 736 q 646 682 553 736 q 739 475 739 628 l 739 161 q 748 85 739 121 q 782 17 757 49 q 722 -12 760 -3 q 654 -21 683 -21 q 488 63 526 -21 m 379 68 q 450 115 431 68 q 469 213 469 161 l 469 335 q 339 301 386 335 q 292 185 292 268 q 312 103 292 138 q 379 68 332 68 m 782 17 q 694 -67 731 -19 q 658 -172 658 -115 q 678 -231 658 -217 q 736 -246 697 -246 q 779 -238 756 -246 q 813 -211 803 -231 q 837 -235 826 -222 q 847 -269 847 -247 q 822 -326 847 -306 q 760 -355 796 -346 q 697 -364 725 -364 q 555 -332 618 -364 q 492 -221 492 -300 q 559 -72 492 -133 q 707 25 626 -11 l 782 17 z "},"å":{"ha":804,"x_min":22,"x_max":782,"o":"m 488 63 q 412 -10 464 11 q 303 -31 360 -31 q 108 19 193 -31 q 22 179 22 69 q 92 327 22 279 q 266 390 163 375 q 469 404 369 404 l 469 525 q 456 617 469 578 q 390 657 442 657 q 314 622 336 657 q 292 532 292 586 q 293 497 292 515 q 297 463 294 479 q 262 453 286 456 q 224 450 238 450 q 116 476 164 450 q 68 564 68 503 q 123 669 68 632 q 255 722 178 707 q 400 736 332 736 q 646 682 553 736 q 739 475 739 628 l 739 161 q 748 85 739 121 q 782 17 757 49 q 722 -12 760 -3 q 654 -21 683 -21 q 488 63 526 -21 m 379 68 q 450 115 431 68 q 469 213 469 161 l 469 335 q 339 301 386 335 q 292 185 292 268 q 312 103 292 138 q 379 68 332 68 m 390 806 q 276 842 322 806 q 231 940 231 878 q 276 1038 231 1004 q 390 1071 321 1071 q 505 1038 460 1071 q 550 940 550 1004 q 504 842 550 878 q 390 806 458 806 m 390 861 q 438 884 422 861 q 453 940 453 907 q 438 994 453 972 q 390 1015 422 1015 q 343 994 358 1015 q 328 940 328 972 q 342 884 328 907 q 390 861 357 861 z "},"ǻ":{"ha":804,"x_min":22,"x_max":782,"o":"m 243 1136 l 585 1276 q 622 1231 607 1258 q 638 1175 638 1203 q 578 1097 638 1111 q 461 1079 518 1083 l 260 1065 l 243 1136 m 488 63 q 412 -10 464 11 q 303 -31 360 -31 q 108 19 193 -31 q 22 179 22 69 q 92 327 22 279 q 266 390 163 375 q 469 404 369 404 l 469 525 q 456 617 469 578 q 390 657 442 657 q 314 622 336 657 q 292 532 292 586 q 293 497 292 515 q 297 463 294 479 q 262 453 286 456 q 224 450 238 450 q 116 476 164 450 q 68 564 68 503 q 123 669 68 632 q 255 722 178 707 q 400 736 332 736 q 646 682 553 736 q 739 475 739 628 l 739 161 q 748 85 739 121 q 782 17 757 49 q 722 -12 760 -3 q 654 -21 683 -21 q 488 63 526 -21 m 379 68 q 450 115 431 68 q 469 213 469 161 l 469 335 q 339 301 386 335 q 292 185 292 268 q 312 103 292 138 q 379 68 332 68 m 390 768 q 276 804 322 768 q 231 903 231 840 q 276 1000 231 967 q 390 1033 321 1033 q 505 1000 460 1033 q 550 903 550 967 q 504 804 550 840 q 390 768 458 768 m 390 824 q 438 847 422 824 q 453 903 453 869 q 438 956 453 933 q 390 978 422 978 q 343 956 358 978 q 328 903 328 933 q 342 847 328 869 q 390 824 357 824 z "},"ã":{"ha":804,"x_min":22,"x_max":782,"o":"m 488 63 q 412 -10 464 11 q 303 -31 360 -31 q 108 19 193 -31 q 22 179 22 69 q 92 327 22 279 q 266 390 163 375 q 469 404 369 404 l 469 525 q 456 617 469 578 q 390 657 442 657 q 314 622 336 657 q 292 532 292 586 q 293 497 292 515 q 297 463 294 479 q 262 453 286 456 q 224 450 238 450 q 116 476 164 450 q 68 564 68 503 q 123 669 68 632 q 255 722 178 707 q 400 736 332 736 q 646 682 553 736 q 739 475 739 628 l 739 161 q 748 85 739 121 q 782 17 757 49 q 722 -12 760 -3 q 654 -21 683 -21 q 488 63 526 -21 m 379 68 q 450 115 431 68 q 469 213 469 161 l 469 335 q 339 301 386 335 q 292 185 292 268 q 312 103 292 138 q 379 68 332 68 m 633 1010 q 665 926 665 971 q 624 854 665 871 q 528 838 583 838 q 383 851 471 838 q 236 865 294 865 q 189 860 213 865 q 147 838 165 856 q 124 877 133 854 q 115 921 115 900 q 156 993 115 976 q 253 1010 197 1010 q 398 996 310 1010 q 544 982 486 982 q 592 987 568 982 q 633 1010 615 992 z "},"æ":{"ha":1171,"x_min":22,"x_max":1150,"o":"m 838 -31 q 558 76 654 -31 q 449 -6 513 19 q 303 -31 386 -31 q 108 19 193 -31 q 22 179 22 69 q 92 326 22 279 q 266 385 163 372 q 469 399 369 399 l 469 525 q 456 617 469 578 q 390 657 442 657 q 314 622 336 657 q 292 532 292 586 q 293 497 292 515 q 297 463 294 479 q 262 453 286 456 q 224 450 238 450 q 116 476 164 450 q 68 564 68 503 q 123 669 68 632 q 255 722 178 707 q 400 736 332 736 q 532 726 472 736 q 635 689 592 715 q 860 736 729 736 q 999 716 933 736 q 1108 652 1065 696 q 1150 535 1150 608 q 1103 399 1150 444 q 980 338 1057 353 q 811 322 903 322 q 776 324 799 322 q 740 326 753 325 q 777 192 746 247 q 892 136 808 136 q 1001 160 949 136 q 1081 236 1053 185 q 1110 204 1101 225 q 1119 160 1119 183 q 1028 15 1119 61 q 838 -31 936 -31 m 379 68 q 450 115 431 68 q 469 213 469 161 l 469 329 q 339 299 386 329 q 292 185 292 268 q 312 103 292 138 q 379 68 332 68 m 840 653 q 773 604 794 653 q 745 488 751 556 q 739 360 739 419 l 603 396 q 673 391 640 393 q 733 389 706 389 q 869 417 824 388 q 914 535 914 446 q 899 615 914 578 q 840 653 883 653 z "},"ǽ":{"ha":1171,"x_min":22,"x_max":1150,"o":"m 838 -31 q 558 76 654 -31 q 449 -6 513 19 q 303 -31 386 -31 q 108 19 193 -31 q 22 179 22 69 q 92 326 22 279 q 266 385 163 372 q 469 399 369 399 l 469 525 q 456 617 469 578 q 390 657 442 657 q 314 622 336 657 q 292 532 292 586 q 293 497 292 515 q 297 463 294 479 q 262 453 286 456 q 224 450 238 450 q 116 476 164 450 q 68 564 68 503 q 123 669 68 632 q 255 722 178 707 q 400 736 332 736 q 532 726 472 736 q 635 689 592 715 q 860 736 729 736 q 999 716 933 736 q 1108 652 1065 696 q 1150 535 1150 608 q 1103 399 1150 444 q 980 338 1057 353 q 811 322 903 322 q 776 324 799 322 q 740 326 753 325 q 777 192 746 247 q 892 136 808 136 q 1001 160 949 136 q 1081 236 1053 185 q 1110 204 1101 225 q 1119 160 1119 183 q 1028 15 1119 61 q 838 -31 936 -31 m 379 68 q 450 115 431 68 q 469 213 469 161 l 469 329 q 339 299 386 329 q 292 185 292 268 q 312 103 292 138 q 379 68 332 68 m 840 653 q 773 604 794 653 q 745 488 751 556 q 739 360 739 419 l 603 396 q 673 391 640 393 q 733 389 706 389 q 869 417 824 388 q 914 535 914 446 q 899 615 914 578 q 840 653 883 653 m 438 863 l 742 1071 q 794 1028 771 1057 q 817 968 817 1000 q 767 891 817 914 q 663 853 717 868 l 468 797 l 438 863 z "},"b":{"ha":832,"x_min":75,"x_max":793,"o":"m 344 1000 l 344 833 q 342 742 344 797 q 332 651 340 686 q 417 717 367 699 q 525 736 468 736 q 735 626 678 736 q 793 364 793 517 q 694 72 793 175 q 407 -31 596 -31 q 238 -10 331 -31 q 75 44 144 10 l 75 972 l 344 1000 m 344 78 q 417 53 375 53 q 487 101 465 53 q 513 221 508 150 q 518 357 518 292 q 513 483 518 419 q 489 588 508 546 q 426 631 469 631 q 369 601 386 631 q 348 527 351 571 q 344 442 344 483 l 344 78 z "},"c":{"ha":700,"x_min":39,"x_max":693,"o":"m 404 653 q 344 604 364 653 q 319 489 325 556 q 314 367 314 422 q 343 204 314 272 q 467 136 372 136 q 622 244 576 136 q 662 217 649 239 q 675 168 675 194 q 594 18 675 67 q 413 -31 514 -31 q 135 74 231 -31 q 39 360 39 178 q 140 640 39 543 q 424 736 240 736 q 609 700 525 736 q 693 561 693 664 q 645 474 693 500 q 538 447 597 447 q 499 450 524 447 q 464 460 475 453 q 468 494 467 476 q 469 529 469 513 q 458 613 469 572 q 404 653 447 653 z "},"ć":{"ha":700,"x_min":39,"x_max":693,"o":"m 404 653 q 344 604 364 653 q 319 489 325 556 q 314 367 314 422 q 343 204 314 272 q 467 136 372 136 q 622 244 576 136 q 662 217 649 239 q 675 168 675 194 q 594 18 675 67 q 413 -31 514 -31 q 135 74 231 -31 q 39 360 39 178 q 140 640 39 543 q 424 736 240 736 q 609 700 525 736 q 693 561 693 664 q 645 474 693 500 q 538 447 597 447 q 499 450 524 447 q 464 460 475 453 q 468 494 467 476 q 469 529 469 513 q 458 613 469 572 q 404 653 447 653 m 263 863 l 567 1071 q 619 1028 596 1057 q 642 968 642 1000 q 592 891 642 914 q 488 853 542 868 l 293 797 l 263 863 z "},"č":{"ha":700,"x_min":39,"x_max":693,"o":"m 404 653 q 344 604 364 653 q 319 489 325 556 q 314 367 314 422 q 343 204 314 272 q 467 136 372 136 q 622 244 576 136 q 662 217 649 239 q 675 168 675 194 q 594 18 675 67 q 413 -31 514 -31 q 135 74 231 -31 q 39 360 39 178 q 140 640 39 543 q 424 736 240 736 q 609 700 525 736 q 693 561 693 664 q 645 474 693 500 q 538 447 597 447 q 499 450 524 447 q 464 460 475 453 q 468 494 467 476 q 469 529 469 513 q 458 613 469 572 q 404 653 447 653 m 592 1051 l 646 988 l 450 799 l 363 799 l 163 988 l 217 1051 l 404 951 l 592 1051 z "},"ç":{"ha":700,"x_min":39,"x_max":693,"o":"m 404 653 q 344 604 364 653 q 319 489 325 556 q 314 367 314 422 q 343 204 314 272 q 467 136 372 136 q 622 244 576 136 q 662 217 649 239 q 675 168 675 194 q 594 18 675 67 q 413 -31 514 -31 q 135 74 231 -31 q 39 360 39 178 q 140 640 39 543 q 424 736 240 736 q 609 700 525 736 q 693 561 693 664 q 645 474 693 500 q 538 447 597 447 q 499 450 524 447 q 464 460 475 453 q 468 494 467 476 q 469 529 469 513 q 458 613 469 572 q 404 653 447 653 m 425 15 l 382 -96 l 367 -83 q 393 -81 376 -82 q 424 -79 410 -79 q 547 -110 497 -79 q 596 -214 596 -140 q 532 -323 596 -287 q 394 -358 468 -358 q 299 -342 353 -358 q 246 -274 246 -326 q 263 -219 246 -239 q 305 -252 279 -240 q 372 -264 331 -264 q 411 -249 394 -264 q 428 -210 428 -233 q 399 -163 428 -174 q 335 -153 369 -153 q 307 -153 321 -153 q 279 -156 293 -154 l 342 15 l 425 15 z "},"ĉ":{"ha":700,"x_min":39,"x_max":693,"o":"m 404 653 q 344 604 364 653 q 319 489 325 556 q 314 367 314 422 q 343 204 314 272 q 467 136 372 136 q 622 244 576 136 q 662 217 649 239 q 675 168 675 194 q 594 18 675 67 q 413 -31 514 -31 q 135 74 231 -31 q 39 360 39 178 q 140 640 39 543 q 424 736 240 736 q 609 700 525 736 q 693 561 693 664 q 645 474 693 500 q 538 447 597 447 q 499 450 524 447 q 464 460 475 453 q 468 494 467 476 q 469 529 469 513 q 458 613 469 572 q 404 653 447 653 m 218 813 l 164 876 l 374 1038 l 433 1038 l 647 876 l 593 813 l 406 885 l 218 813 z "},"ċ":{"ha":700,"x_min":39,"x_max":693,"o":"m 404 653 q 344 604 364 653 q 319 489 325 556 q 314 367 314 422 q 343 204 314 272 q 467 136 372 136 q 622 244 576 136 q 662 217 649 239 q 675 168 675 194 q 594 18 675 67 q 413 -31 514 -31 q 135 74 231 -31 q 39 360 39 178 q 140 640 39 543 q 424 736 240 736 q 609 700 525 736 q 693 561 693 664 q 645 474 693 500 q 538 447 597 447 q 499 450 524 447 q 464 460 475 453 q 468 494 467 476 q 469 529 469 513 q 458 613 469 572 q 404 653 447 653 m 414 1042 q 519 1013 478 1042 q 560 931 560 983 q 516 847 560 875 q 408 819 472 819 q 302 847 344 819 q 260 928 260 875 q 305 1013 260 983 q 414 1042 350 1042 z "},"d":{"ha":832,"x_min":39,"x_max":800,"o":"m 757 161 q 766 85 757 121 q 800 17 775 49 q 740 -12 778 -3 q 672 -21 701 -21 q 506 63 544 -21 q 422 -10 472 11 q 311 -31 372 -31 q 98 86 157 -31 q 39 357 39 203 q 135 639 39 542 q 415 736 231 736 q 451 735 431 736 q 488 732 472 733 l 488 972 l 757 1000 l 757 161 m 488 628 q 415 653 456 653 q 348 607 369 653 q 320 494 326 561 q 314 364 314 428 q 319 234 314 301 q 342 121 324 167 q 406 75 361 75 q 471 123 454 75 q 488 219 488 171 l 488 628 z "},"ð":{"ha":831,"x_min":39,"x_max":782,"o":"m 394 1000 q 532 975 472 1000 q 636 906 592 950 l 750 947 q 760 933 756 942 q 765 921 764 924 q 765 868 778 889 q 722 836 751 847 l 696 826 q 762 647 742 749 q 782 438 782 546 q 745 197 782 303 q 627 31 708 92 q 411 -31 546 -31 q 144 63 250 -31 q 39 315 39 156 q 76 497 39 425 q 174 610 114 569 q 300 668 233 651 q 425 685 367 685 q 460 683 443 685 q 494 678 478 682 q 489 715 492 697 q 483 749 486 733 l 376 710 q 361 738 367 724 q 362 790 349 768 q 403 821 375 811 l 438 833 q 350 858 406 858 q 275 838 306 858 q 263 872 268 851 q 257 910 257 893 q 299 981 257 963 q 394 1000 342 1000 m 411 53 q 478 103 458 53 q 503 235 499 154 q 507 404 507 315 q 504 492 507 444 q 497 571 501 540 q 425 601 464 601 q 348 555 371 601 q 319 444 325 508 q 314 325 314 379 q 319 214 314 278 q 344 101 324 150 q 411 53 364 53 z "},"ď":{"ha":832,"x_min":39,"x_max":1013,"o":"m 757 161 q 766 85 757 121 q 800 17 775 49 q 740 -12 778 -3 q 672 -21 701 -21 q 506 63 544 -21 q 422 -10 472 11 q 311 -31 372 -31 q 98 86 157 -31 q 39 357 39 203 q 135 639 39 542 q 415 736 231 736 q 451 735 431 736 q 488 732 472 733 l 488 972 l 757 1000 l 757 161 m 488 628 q 415 653 456 653 q 348 607 369 653 q 320 494 326 561 q 314 364 314 428 q 319 234 314 301 q 342 121 324 167 q 406 75 361 75 q 471 123 454 75 q 488 219 488 171 l 488 628 m 815 979 q 856 994 828 989 q 907 1000 883 1000 q 982 972 951 1000 q 1013 882 1013 943 q 974 782 1013 833 q 856 731 936 731 q 830 733 840 731 q 808 739 819 735 q 839 795 831 767 q 847 864 847 824 q 840 924 847 894 q 815 979 832 953 z "},"đ":{"ha":932,"x_min":39,"x_max":900,"o":"m 894 907 q 899 885 897 897 q 900 865 900 872 q 875 801 900 822 q 806 779 850 779 l 299 779 q 294 801 296 789 q 293 821 293 813 q 318 885 293 864 q 386 907 343 907 l 894 907 m 757 161 q 766 85 757 121 q 800 17 775 49 q 740 -12 778 -3 q 672 -21 701 -21 q 506 63 544 -21 q 422 -10 472 11 q 311 -31 372 -31 q 98 86 157 -31 q 39 357 39 203 q 135 639 39 542 q 415 736 231 736 q 451 735 431 736 q 488 732 472 733 l 488 972 l 757 1000 l 757 161 m 488 628 q 415 653 456 653 q 348 607 369 653 q 320 494 326 561 q 314 364 314 428 q 319 234 314 301 q 342 121 324 167 q 406 75 361 75 q 471 123 454 75 q 488 219 488 171 l 488 628 z "},"ḍ":{"ha":832,"x_min":39,"x_max":800,"o":"m 757 161 q 766 85 757 121 q 800 17 775 49 q 740 -12 778 -3 q 672 -21 701 -21 q 506 63 544 -21 q 422 -10 472 11 q 311 -31 372 -31 q 98 86 157 -31 q 39 357 39 203 q 135 639 39 542 q 415 736 231 736 q 451 735 431 736 q 488 732 472 733 l 488 972 l 757 1000 l 757 161 m 488 628 q 415 653 456 653 q 348 607 369 653 q 320 494 326 561 q 314 364 314 428 q 319 234 314 301 q 342 121 324 167 q 406 75 361 75 q 471 123 454 75 q 488 219 488 171 l 488 628 z "},"ǳ":{"ha":1431,"x_min":39,"x_max":1413,"o":"m 757 161 q 766 85 757 121 q 800 17 775 49 q 740 -12 778 -3 q 672 -21 701 -21 q 506 63 544 -21 q 422 -10 472 11 q 311 -31 372 -31 q 98 86 157 -31 q 39 357 39 203 q 135 639 39 542 q 415 736 231 736 q 451 735 431 736 q 488 732 472 733 l 488 972 l 757 1000 l 757 161 m 488 628 q 415 653 456 653 q 348 607 369 653 q 320 494 326 561 q 314 364 314 428 q 319 234 314 301 q 342 121 324 167 q 406 75 361 75 q 471 123 454 75 q 488 219 488 171 l 488 628 m 1401 708 l 1410 626 l 1140 117 l 1413 136 l 1399 0 l 842 0 l 833 82 l 1101 590 l 860 572 l 874 708 l 1401 708 z "},"ǆ":{"ha":1431,"x_min":39,"x_max":1413,"o":"m 757 161 q 766 85 757 121 q 800 17 775 49 q 740 -12 778 -3 q 672 -21 701 -21 q 506 63 544 -21 q 422 -10 472 11 q 311 -31 372 -31 q 98 86 157 -31 q 39 357 39 203 q 135 639 39 542 q 415 736 231 736 q 451 735 431 736 q 488 732 472 733 l 488 972 l 757 1000 l 757 161 m 488 628 q 415 653 456 653 q 348 607 369 653 q 320 494 326 561 q 314 364 314 428 q 319 234 314 301 q 342 121 324 167 q 406 75 361 75 q 471 123 454 75 q 488 219 488 171 l 488 628 m 1401 708 l 1410 626 l 1140 117 l 1413 136 l 1399 0 l 842 0 l 833 82 l 1101 590 l 860 572 l 874 708 l 1401 708 m 1319 1051 l 1374 988 l 1178 799 l 1090 799 l 890 988 l 944 1051 l 1132 951 l 1319 1051 z "},"e":{"ha":746,"x_min":39,"x_max":725,"o":"m 435 736 q 574 716 508 736 q 683 652 640 696 q 725 535 725 608 q 678 397 725 444 q 555 333 632 350 q 386 317 478 317 q 351 318 374 317 q 315 321 328 319 q 352 189 321 242 q 467 136 383 136 q 576 160 524 136 q 656 236 628 185 q 685 204 676 225 q 694 160 694 183 q 651 52 694 94 q 543 -10 608 10 q 413 -31 478 -31 q 135 74 231 -31 q 39 360 39 178 q 143 642 39 547 q 435 736 247 736 m 415 653 q 354 615 375 653 q 325 522 333 576 q 315 417 317 467 q 314 343 314 367 l 249 386 q 280 384 265 385 q 310 383 294 383 q 444 415 399 382 q 489 535 489 447 q 474 615 489 578 q 415 653 458 653 z "},"é":{"ha":746,"x_min":39,"x_max":725,"o":"m 435 736 q 574 716 508 736 q 683 652 640 696 q 725 535 725 608 q 678 397 725 444 q 555 333 632 350 q 386 317 478 317 q 351 318 374 317 q 315 321 328 319 q 352 189 321 242 q 467 136 383 136 q 576 160 524 136 q 656 236 628 185 q 685 204 676 225 q 694 160 694 183 q 651 52 694 94 q 543 -10 608 10 q 413 -31 478 -31 q 135 74 231 -31 q 39 360 39 178 q 143 642 39 547 q 435 736 247 736 m 415 653 q 354 615 375 653 q 325 522 333 576 q 315 417 317 467 q 314 343 314 367 l 249 386 q 280 384 265 385 q 310 383 294 383 q 444 415 399 382 q 489 535 489 447 q 474 615 489 578 q 415 653 458 653 m 274 863 l 578 1071 q 630 1028 607 1057 q 653 968 653 1000 q 603 891 653 914 q 499 853 553 868 l 304 797 l 274 863 z "},"ĕ":{"ha":746,"x_min":39,"x_max":725,"o":"m 435 736 q 574 716 508 736 q 683 652 640 696 q 725 535 725 608 q 678 397 725 444 q 555 333 632 350 q 386 317 478 317 q 351 318 374 317 q 315 321 328 319 q 352 189 321 242 q 467 136 383 136 q 576 160 524 136 q 656 236 628 185 q 685 204 676 225 q 694 160 694 183 q 651 52 694 94 q 543 -10 608 10 q 413 -31 478 -31 q 135 74 231 -31 q 39 360 39 178 q 143 642 39 547 q 435 736 247 736 m 415 653 q 354 615 375 653 q 325 522 333 576 q 315 417 317 467 q 314 343 314 367 l 249 386 q 280 384 265 385 q 310 383 294 383 q 444 415 399 382 q 489 535 489 447 q 474 615 489 578 q 415 653 458 653 m 683 1035 q 617 878 683 940 q 415 815 551 815 q 213 878 279 815 q 147 1035 147 940 l 350 1035 q 353 937 350 986 q 415 888 356 888 q 478 937 475 888 q 481 1035 481 986 l 683 1035 z "},"ě":{"ha":746,"x_min":39,"x_max":725,"o":"m 435 736 q 574 716 508 736 q 683 652 640 696 q 725 535 725 608 q 678 397 725 444 q 555 333 632 350 q 386 317 478 317 q 351 318 374 317 q 315 321 328 319 q 352 189 321 242 q 467 136 383 136 q 576 160 524 136 q 656 236 628 185 q 685 204 676 225 q 694 160 694 183 q 651 52 694 94 q 543 -10 608 10 q 413 -31 478 -31 q 135 74 231 -31 q 39 360 39 178 q 143 642 39 547 q 435 736 247 736 m 415 653 q 354 615 375 653 q 325 522 333 576 q 315 417 317 467 q 314 343 314 367 l 249 386 q 280 384 265 385 q 310 383 294 383 q 444 415 399 382 q 489 535 489 447 q 474 615 489 578 q 415 653 458 653 m 603 1051 l 657 988 l 461 799 l 374 799 l 174 988 l 228 1051 l 415 951 l 603 1051 z "},"ê":{"ha":746,"x_min":39,"x_max":725,"o":"m 435 736 q 574 716 508 736 q 683 652 640 696 q 725 535 725 608 q 678 397 725 444 q 555 333 632 350 q 386 317 478 317 q 351 318 374 317 q 315 321 328 319 q 352 189 321 242 q 467 136 383 136 q 576 160 524 136 q 656 236 628 185 q 685 204 676 225 q 694 160 694 183 q 651 52 694 94 q 543 -10 608 10 q 413 -31 478 -31 q 135 74 231 -31 q 39 360 39 178 q 143 642 39 547 q 435 736 247 736 m 415 653 q 354 615 375 653 q 325 522 333 576 q 315 417 317 467 q 314 343 314 367 l 249 386 q 280 384 265 385 q 310 383 294 383 q 444 415 399 382 q 489 535 489 447 q 474 615 489 578 q 415 653 458 653 m 229 813 l 175 876 l 385 1038 l 444 1038 l 658 876 l 604 813 l 417 885 l 229 813 z "},"ë":{"ha":746,"x_min":39,"x_max":725,"o":"m 435 736 q 574 716 508 736 q 683 652 640 696 q 725 535 725 608 q 678 397 725 444 q 555 333 632 350 q 386 317 478 317 q 351 318 374 317 q 315 321 328 319 q 352 189 321 242 q 467 136 383 136 q 576 160 524 136 q 656 236 628 185 q 685 204 676 225 q 694 160 694 183 q 651 52 694 94 q 543 -10 608 10 q 413 -31 478 -31 q 135 74 231 -31 q 39 360 39 178 q 143 642 39 547 q 435 736 247 736 m 415 653 q 354 615 375 653 q 325 522 333 576 q 315 417 317 467 q 314 343 314 367 l 249 386 q 280 384 265 385 q 310 383 294 383 q 444 415 399 382 q 489 535 489 447 q 474 615 489 578 q 415 653 458 653 z "},"ė":{"ha":746,"x_min":39,"x_max":725,"o":"m 435 736 q 574 716 508 736 q 683 652 640 696 q 725 535 725 608 q 678 397 725 444 q 555 333 632 350 q 386 317 478 317 q 351 318 374 317 q 315 321 328 319 q 352 189 321 242 q 467 136 383 136 q 576 160 524 136 q 656 236 628 185 q 685 204 676 225 q 694 160 694 183 q 651 52 694 94 q 543 -10 608 10 q 413 -31 478 -31 q 135 74 231 -31 q 39 360 39 178 q 143 642 39 547 q 435 736 247 736 m 415 653 q 354 615 375 653 q 325 522 333 576 q 315 417 317 467 q 314 343 314 367 l 249 386 q 280 384 265 385 q 310 383 294 383 q 444 415 399 382 q 489 535 489 447 q 474 615 489 578 q 415 653 458 653 m 425 1042 q 530 1013 489 1042 q 571 931 571 983 q 527 847 571 875 q 419 819 483 819 q 313 847 356 819 q 271 928 271 875 q 316 1013 271 983 q 425 1042 361 1042 z "},"ẹ":{"ha":746,"x_min":39,"x_max":725,"o":"m 435 736 q 574 716 508 736 q 683 652 640 696 q 725 535 725 608 q 678 397 725 444 q 555 333 632 350 q 386 317 478 317 q 351 318 374 317 q 315 321 328 319 q 352 189 321 242 q 467 136 383 136 q 576 160 524 136 q 656 236 628 185 q 685 204 676 225 q 694 160 694 183 q 651 52 694 94 q 543 -10 608 10 q 413 -31 478 -31 q 135 74 231 -31 q 39 360 39 178 q 143 642 39 547 q 435 736 247 736 m 415 653 q 354 615 375 653 q 325 522 333 576 q 315 417 317 467 q 314 343 314 367 l 249 386 q 280 384 265 385 q 310 383 294 383 q 444 415 399 382 q 489 535 489 447 q 474 615 489 578 q 415 653 458 653 z "},"è":{"ha":746,"x_min":39,"x_max":725,"o":"m 435 736 q 574 716 508 736 q 683 652 640 696 q 725 535 725 608 q 678 397 725 444 q 555 333 632 350 q 386 317 478 317 q 351 318 374 317 q 315 321 328 319 q 352 189 321 242 q 467 136 383 136 q 576 160 524 136 q 656 236 628 185 q 685 204 676 225 q 694 160 694 183 q 651 52 694 94 q 543 -10 608 10 q 413 -31 478 -31 q 135 74 231 -31 q 39 360 39 178 q 143 642 39 547 q 435 736 247 736 m 415 653 q 354 615 375 653 q 325 522 333 576 q 315 417 317 467 q 314 343 314 367 l 249 386 q 280 384 265 385 q 310 383 294 383 q 444 415 399 382 q 489 535 489 447 q 474 615 489 578 q 415 653 458 653 m 528 797 l 333 853 q 229 891 279 868 q 179 968 179 914 q 202 1028 179 1000 q 254 1071 225 1057 l 558 863 l 528 797 z "},"ē":{"ha":746,"x_min":39,"x_max":725,"o":"m 435 736 q 574 716 508 736 q 683 652 640 696 q 725 535 725 608 q 678 397 725 444 q 555 333 632 350 q 386 317 478 317 q 351 318 374 317 q 315 321 328 319 q 352 189 321 242 q 467 136 383 136 q 576 160 524 136 q 656 236 628 185 q 685 204 676 225 q 694 160 694 183 q 651 52 694 94 q 543 -10 608 10 q 413 -31 478 -31 q 135 74 231 -31 q 39 360 39 178 q 143 642 39 547 q 435 736 247 736 m 415 653 q 354 615 375 653 q 325 522 333 576 q 315 417 317 467 q 314 343 314 367 l 249 386 q 280 384 265 385 q 310 383 294 383 q 444 415 399 382 q 489 535 489 447 q 474 615 489 578 q 415 653 458 653 m 615 990 q 624 967 621 981 q 628 936 628 953 q 606 883 628 903 q 549 863 585 863 l 214 863 q 201 917 201 883 q 281 990 201 990 l 615 990 z "},"ę":{"ha":746,"x_min":39,"x_max":725,"o":"m 435 736 q 574 716 508 736 q 683 652 640 696 q 725 535 725 608 q 678 397 725 444 q 555 333 632 350 q 386 317 478 317 q 351 318 374 317 q 315 321 328 319 q 352 189 321 242 q 467 136 383 136 q 576 160 524 136 q 656 236 628 185 q 685 204 676 225 q 694 160 694 183 q 651 52 694 94 q 543 -10 608 10 q 413 -31 478 -31 q 135 74 231 -31 q 39 360 39 178 q 143 642 39 547 q 435 736 247 736 m 415 653 q 354 615 375 653 q 325 522 333 576 q 315 417 317 467 q 314 343 314 367 l 249 386 q 280 384 265 385 q 310 383 294 383 q 444 415 399 382 q 489 535 489 447 q 474 615 489 578 q 415 653 458 653 m 599 14 q 511 -70 547 -22 q 475 -175 475 -118 q 494 -234 475 -219 q 553 -249 514 -249 q 596 -241 572 -249 q 629 -214 619 -233 q 653 -237 643 -225 q 664 -272 664 -250 q 638 -328 664 -308 q 577 -358 613 -349 q 514 -367 542 -367 q 372 -335 435 -367 q 308 -224 308 -303 q 376 -75 308 -136 q 524 22 443 -14 l 599 14 z "},"ẽ":{"ha":746,"x_min":39,"x_max":725,"o":"m 435 736 q 574 716 508 736 q 683 652 640 696 q 725 535 725 608 q 678 397 725 444 q 555 333 632 350 q 386 317 478 317 q 351 318 374 317 q 315 321 328 319 q 352 189 321 242 q 467 136 383 136 q 576 160 524 136 q 656 236 628 185 q 685 204 676 225 q 694 160 694 183 q 651 52 694 94 q 543 -10 608 10 q 413 -31 478 -31 q 135 74 231 -31 q 39 360 39 178 q 143 642 39 547 q 435 736 247 736 m 415 653 q 354 615 375 653 q 325 522 333 576 q 315 417 317 467 q 314 343 314 367 l 249 386 q 280 384 265 385 q 310 383 294 383 q 444 415 399 382 q 489 535 489 447 q 474 615 489 578 q 415 653 458 653 m 658 1010 q 690 926 690 971 q 649 854 690 871 q 553 838 608 838 q 408 851 496 838 q 261 865 319 865 q 214 860 238 865 q 172 838 190 856 q 149 877 158 854 q 140 921 140 900 q 181 993 140 976 q 278 1010 222 1010 q 423 996 335 1010 q 569 982 511 982 q 617 987 593 982 q 658 1010 640 992 z "},"ə":{"ha":739,"x_min":14,"x_max":700,"o":"m 304 -31 q 165 -10 231 -31 q 56 53 99 10 q 14 171 14 97 q 60 308 14 261 q 184 372 107 356 q 353 389 261 389 q 388 388 365 389 q 424 385 411 386 q 387 517 418 464 q 272 569 356 569 q 163 545 215 569 q 83 469 111 521 q 53 501 63 481 q 44 546 44 522 q 136 690 44 644 q 326 736 228 736 q 604 632 508 736 q 700 346 700 528 q 596 64 700 158 q 304 -31 492 -31 m 324 53 q 385 91 364 53 q 414 184 406 129 q 424 289 422 239 q 425 363 425 339 l 490 319 q 459 322 474 321 q 429 322 444 322 q 295 291 340 324 q 250 171 250 258 q 265 90 250 128 q 324 53 281 53 z "},"f":{"ha":496,"x_min":1,"x_max":713,"o":"m 364 0 l 94 -21 l 94 646 l 1 646 l 1 708 l 94 708 l 99 776 q 153 913 104 864 q 278 981 201 961 q 443 1000 356 1000 q 560 991 497 1000 q 667 955 622 982 q 713 874 713 928 q 663 796 713 818 q 557 774 613 774 q 519 776 543 774 q 483 786 494 779 q 488 821 486 797 q 489 856 489 844 q 476 910 489 886 q 433 935 464 935 q 374 887 383 935 q 364 789 364 839 l 364 708 l 488 708 l 488 646 l 364 646 l 364 0 z "},"g":{"ha":826,"x_min":39,"x_max":751,"o":"m 389 -199 q 463 -158 442 -199 q 490 -49 485 -118 q 494 107 494 19 l 494 154 q 409 98 460 114 q 301 82 358 82 q 100 172 161 82 q 39 400 39 261 q 133 653 39 569 q 396 736 228 736 q 481 729 438 736 q 564 708 525 722 l 751 736 l 751 140 q 673 -176 751 -75 q 379 -278 594 -278 q 247 -261 317 -278 q 129 -206 178 -244 q 81 -106 81 -168 q 128 -18 81 -44 q 236 8 175 8 q 274 6 250 8 q 310 -4 299 3 q 306 -39 308 -21 q 304 -74 304 -57 q 322 -161 304 -124 q 389 -199 339 -199 m 482 633 q 447 649 467 644 q 410 653 428 653 q 342 613 361 653 q 318 515 322 572 q 314 408 314 458 q 318 313 314 364 q 340 224 322 261 q 400 188 358 188 q 467 237 451 188 q 482 338 482 286 l 482 633 z "},"ğ":{"ha":826,"x_min":39,"x_max":751,"o":"m 389 -199 q 463 -158 442 -199 q 490 -49 485 -118 q 494 107 494 19 l 494 154 q 409 98 460 114 q 301 82 358 82 q 100 172 161 82 q 39 400 39 261 q 133 653 39 569 q 396 736 228 736 q 481 729 438 736 q 564 708 525 722 l 751 736 l 751 140 q 673 -176 751 -75 q 379 -278 594 -278 q 247 -261 317 -278 q 129 -206 178 -244 q 81 -106 81 -168 q 128 -18 81 -44 q 236 8 175 8 q 274 6 250 8 q 310 -4 299 3 q 306 -39 308 -21 q 304 -74 304 -57 q 322 -161 304 -124 q 389 -199 339 -199 m 482 633 q 447 649 467 644 q 410 653 428 653 q 342 613 361 653 q 318 515 322 572 q 314 408 314 458 q 318 313 314 364 q 340 224 322 261 q 400 188 358 188 q 467 237 451 188 q 482 338 482 286 l 482 633 m 678 1035 q 612 878 678 940 q 410 815 546 815 q 208 878 274 815 q 142 1035 142 940 l 344 1035 q 347 937 344 986 q 410 888 350 888 q 472 937 469 888 q 475 1035 475 986 l 678 1035 z "},"ĝ":{"ha":826,"x_min":39,"x_max":751,"o":"m 389 -199 q 463 -158 442 -199 q 490 -49 485 -118 q 494 107 494 19 l 494 154 q 409 98 460 114 q 301 82 358 82 q 100 172 161 82 q 39 400 39 261 q 133 653 39 569 q 396 736 228 736 q 481 729 438 736 q 564 708 525 722 l 751 736 l 751 140 q 673 -176 751 -75 q 379 -278 594 -278 q 247 -261 317 -278 q 129 -206 178 -244 q 81 -106 81 -168 q 128 -18 81 -44 q 236 8 175 8 q 274 6 250 8 q 310 -4 299 3 q 306 -39 308 -21 q 304 -74 304 -57 q 322 -161 304 -124 q 389 -199 339 -199 m 482 633 q 447 649 467 644 q 410 653 428 653 q 342 613 361 653 q 318 515 322 572 q 314 408 314 458 q 318 313 314 364 q 340 224 322 261 q 400 188 358 188 q 467 237 451 188 q 482 338 482 286 l 482 633 m 224 813 l 169 876 l 379 1038 l 439 1038 l 653 876 l 599 813 l 411 885 l 224 813 z "},"ģ":{"ha":826,"x_min":39,"x_max":751,"o":"m 389 -199 q 463 -158 442 -199 q 490 -49 485 -118 q 494 107 494 19 l 494 154 q 409 98 460 114 q 301 82 358 82 q 100 172 161 82 q 39 400 39 261 q 133 653 39 569 q 396 736 228 736 q 481 729 438 736 q 564 708 525 722 l 751 736 l 751 140 q 673 -176 751 -75 q 379 -278 594 -278 q 247 -261 317 -278 q 129 -206 178 -244 q 81 -106 81 -168 q 128 -18 81 -44 q 236 8 175 8 q 274 6 250 8 q 310 -4 299 3 q 306 -39 308 -21 q 304 -74 304 -57 q 322 -161 304 -124 q 389 -199 339 -199 m 482 633 q 447 649 467 644 q 410 653 428 653 q 342 613 361 653 q 318 515 322 572 q 314 408 314 458 q 318 313 314 364 q 340 224 322 261 q 400 188 358 188 q 467 237 451 188 q 482 338 482 286 l 482 633 m 418 788 q 289 900 289 788 q 344 1022 289 969 q 479 1075 399 1075 q 508 1074 494 1075 q 535 1069 522 1072 q 493 999 508 1035 q 478 924 478 964 q 510 808 478 860 q 469 793 497 799 q 418 788 442 788 z "},"ġ":{"ha":826,"x_min":39,"x_max":751,"o":"m 389 -199 q 463 -158 442 -199 q 490 -49 485 -118 q 494 107 494 19 l 494 154 q 409 98 460 114 q 301 82 358 82 q 100 172 161 82 q 39 400 39 261 q 133 653 39 569 q 396 736 228 736 q 481 729 438 736 q 564 708 525 722 l 751 736 l 751 140 q 673 -176 751 -75 q 379 -278 594 -278 q 247 -261 317 -278 q 129 -206 178 -244 q 81 -106 81 -168 q 128 -18 81 -44 q 236 8 175 8 q 274 6 250 8 q 310 -4 299 3 q 306 -39 308 -21 q 304 -74 304 -57 q 322 -161 304 -124 q 389 -199 339 -199 m 482 633 q 447 649 467 644 q 410 653 428 653 q 342 613 361 653 q 318 515 322 572 q 314 408 314 458 q 318 313 314 364 q 340 224 322 261 q 400 188 358 188 q 467 237 451 188 q 482 338 482 286 l 482 633 m 419 1042 q 524 1013 483 1042 q 565 931 565 983 q 522 847 565 875 q 414 819 478 819 q 308 847 350 819 q 265 928 265 875 q 310 1013 265 983 q 419 1042 356 1042 z "},"h":{"ha":832,"x_min":75,"x_max":810,"o":"m 344 1000 l 344 833 q 342 742 344 797 q 332 651 340 686 q 419 717 367 699 q 528 736 471 736 q 711 669 656 736 q 767 475 767 603 l 767 161 q 776 85 767 121 q 810 17 785 49 q 749 -12 788 -3 q 682 -21 711 -21 q 546 22 594 -21 q 497 151 497 64 l 497 472 q 488 578 497 525 q 426 631 479 631 q 355 567 365 631 q 344 443 344 504 l 344 0 l 75 0 l 75 972 l 344 1000 z "},"ħ":{"ha":832,"x_min":-47,"x_max":810,"o":"m 554 907 q 558 885 557 897 q 560 865 560 872 q 534 801 560 822 q 465 779 508 779 l -42 779 q -46 801 -44 789 q -47 821 -47 813 q -22 885 -47 864 q 46 907 3 907 l 554 907 m 344 1000 l 344 833 q 342 742 344 797 q 332 651 340 686 q 419 717 367 699 q 528 736 471 736 q 711 669 656 736 q 767 475 767 603 l 767 161 q 776 85 767 121 q 810 17 785 49 q 749 -12 788 -3 q 682 -21 711 -21 q 546 22 594 -21 q 497 151 497 64 l 497 472 q 488 578 497 525 q 426 631 479 631 q 355 567 365 631 q 344 443 344 504 l 344 0 l 75 0 l 75 972 l 344 1000 z "},"ĥ":{"ha":832,"x_min":-17,"x_max":810,"o":"m 344 1000 l 344 833 q 342 742 344 797 q 332 651 340 686 q 419 717 367 699 q 528 736 471 736 q 711 669 656 736 q 767 475 767 603 l 767 161 q 776 85 767 121 q 810 17 785 49 q 749 -12 788 -3 q 682 -21 711 -21 q 546 22 594 -21 q 497 151 497 64 l 497 472 q 488 578 497 525 q 426 631 479 631 q 355 567 365 631 q 344 443 344 504 l 344 0 l 75 0 l 75 972 l 344 1000 m 38 1021 l -17 1085 l 193 1246 l 253 1246 l 467 1085 l 413 1021 l 225 1093 l 38 1021 z "},"ḥ":{"ha":832,"x_min":75,"x_max":810,"o":"m 344 1000 l 344 833 q 342 742 344 797 q 332 651 340 686 q 419 717 367 699 q 528 736 471 736 q 711 669 656 736 q 767 475 767 603 l 767 161 q 776 85 767 121 q 810 17 785 49 q 749 -12 788 -3 q 682 -21 711 -21 q 546 22 594 -21 q 497 151 497 64 l 497 472 q 488 578 497 525 q 426 631 479 631 q 355 567 365 631 q 344 443 344 504 l 344 0 l 75 0 l 75 972 l 344 1000 z "},"i":{"ha":410,"x_min":53,"x_max":378,"o":"m 335 708 l 335 161 q 344 85 335 121 q 378 17 353 49 q 317 -12 356 -3 q 250 -21 279 -21 q 114 22 163 -21 q 65 151 65 64 l 65 708 l 335 708 m 207 1042 q 313 1013 272 1042 q 353 931 353 983 q 310 847 353 875 q 201 819 267 819 q 94 847 136 819 q 53 928 53 875 q 97 1013 53 983 q 207 1042 142 1042 z "},"ı":{"ha":410,"x_min":65,"x_max":378,"o":"m 335 708 l 335 161 q 344 85 335 121 q 378 17 353 49 q 317 -12 356 -3 q 250 -21 279 -21 q 114 22 163 -21 q 65 151 65 64 l 65 708 l 335 708 z "},"í":{"ha":410,"x_min":58,"x_max":438,"o":"m 335 708 l 335 161 q 344 85 335 121 q 378 17 353 49 q 317 -12 356 -3 q 250 -21 279 -21 q 114 22 163 -21 q 65 151 65 64 l 65 708 l 335 708 m 58 863 l 363 1071 q 415 1028 392 1057 q 438 968 438 1000 q 388 891 438 914 q 283 853 338 868 l 89 797 l 58 863 z "},"ĭ":{"ha":410,"x_min":-68,"x_max":468,"o":"m 335 708 l 335 161 q 344 85 335 121 q 378 17 353 49 q 317 -12 356 -3 q 250 -21 279 -21 q 114 22 163 -21 q 65 151 65 64 l 65 708 l 335 708 m 468 1035 q 402 878 468 940 q 200 815 336 815 q -2 878 64 815 q -68 1035 -68 940 l 135 1035 q 138 937 135 986 q 200 888 140 888 q 263 937 260 888 q 265 1035 265 986 l 468 1035 z "},"î":{"ha":410,"x_min":-40,"x_max":443,"o":"m 335 708 l 335 161 q 344 85 335 121 q 378 17 353 49 q 317 -12 356 -3 q 250 -21 279 -21 q 114 22 163 -21 q 65 151 65 64 l 65 708 l 335 708 m 14 813 l -40 876 l 169 1038 l 229 1038 l 443 876 l 389 813 l 201 885 l 14 813 z "},"ï":{"ha":410,"x_min":-111,"x_max":507,"o":"m 335 708 l 335 161 q 344 85 335 121 q 378 17 353 49 q 317 -12 356 -3 q 250 -21 279 -21 q 114 22 163 -21 q 65 151 65 64 l 65 708 l 335 708 z "},"ị":{"ha":410,"x_min":53,"x_max":382,"o":"m 335 708 l 335 161 q 344 85 335 121 q 378 17 353 49 q 317 -12 356 -3 q 250 -21 279 -21 q 114 22 163 -21 q 65 151 65 64 l 65 708 l 335 708 m 207 1042 q 313 1013 272 1042 q 353 931 353 983 q 310 847 353 875 q 201 819 267 819 q 94 847 136 819 q 53 928 53 875 q 97 1013 53 983 q 207 1042 142 1042 z "},"ì":{"ha":410,"x_min":-36,"x_max":378,"o":"m 335 708 l 335 161 q 344 85 335 121 q 378 17 353 49 q 317 -12 356 -3 q 250 -21 279 -21 q 114 22 163 -21 q 65 151 65 64 l 65 708 l 335 708 m 313 797 l 118 853 q 14 891 64 868 q -36 968 -36 914 q -13 1028 -36 1000 q 39 1071 10 1057 l 343 863 l 313 797 z "},"ĳ":{"ha":829,"x_min":53,"x_max":772,"o":"m 335 708 l 335 161 q 344 85 335 121 q 378 17 353 49 q 317 -12 356 -3 q 250 -21 279 -21 q 114 22 163 -21 q 65 151 65 64 l 65 708 l 335 708 m 207 1042 q 313 1013 272 1042 q 353 931 353 983 q 310 847 353 875 q 201 819 267 819 q 94 847 136 819 q 53 928 53 875 q 97 1013 53 983 q 207 1042 142 1042 m 754 64 q 736 -106 754 -28 q 669 -231 718 -183 q 529 -278 621 -278 q 438 -263 485 -278 q 371 -208 390 -249 q 469 -126 454 -197 q 485 29 485 -54 l 485 708 l 754 708 l 754 64 m 626 1042 q 731 1013 690 1042 q 772 931 772 983 q 728 847 772 875 q 621 819 685 819 q 515 847 557 819 q 472 928 472 875 q 517 1013 472 983 q 626 1042 563 1042 z "},"ī":{"ha":410,"x_min":-14,"x_max":413,"o":"m 335 708 l 335 161 q 344 85 335 121 q 378 17 353 49 q 317 -12 356 -3 q 250 -21 279 -21 q 114 22 163 -21 q 65 151 65 64 l 65 708 l 335 708 m 400 990 q 409 967 406 981 q 413 936 413 953 q 391 883 413 903 q 333 863 369 863 l -1 863 q -14 917 -14 883 q 65 990 -14 990 l 400 990 z "},"į":{"ha":410,"x_min":56,"x_max":435,"o":"m 335 708 l 335 161 q 344 85 335 121 q 378 17 353 49 q 317 -12 356 -3 q 250 -21 279 -21 q 114 22 163 -21 q 65 151 65 64 l 65 708 l 335 708 m 210 1042 q 315 1013 274 1042 q 356 931 356 983 q 312 847 356 875 q 204 819 268 819 q 98 847 140 819 q 56 928 56 875 q 101 1013 56 983 q 210 1042 146 1042 m 369 14 q 282 -70 318 -22 q 246 -175 246 -118 q 265 -234 246 -219 q 324 -249 285 -249 q 367 -241 343 -249 q 400 -214 390 -233 q 424 -237 414 -225 q 435 -272 435 -250 q 409 -328 435 -308 q 348 -358 383 -349 q 285 -367 313 -367 q 142 -335 206 -367 q 79 -224 79 -303 q 147 -75 79 -136 q 294 22 214 -14 l 369 14 z "},"ĩ":{"ha":410,"x_min":-75,"x_max":475,"o":"m 335 708 l 335 161 q 344 85 335 121 q 378 17 353 49 q 317 -12 356 -3 q 250 -21 279 -21 q 114 22 163 -21 q 65 151 65 64 l 65 708 l 335 708 m 443 1010 q 475 926 475 971 q 434 854 475 871 q 338 838 393 838 q 192 851 281 838 q 46 865 104 865 q -1 860 22 865 q -43 838 -25 856 q -66 877 -57 854 q -75 921 -75 900 q -34 993 -75 976 q 63 1010 7 1010 q 208 996 119 1010 q 354 982 296 982 q 401 987 378 982 q 443 1010 425 992 z "},"j":{"ha":419,"x_min":-39,"x_max":363,"o":"m 344 64 q 326 -106 344 -28 q 260 -231 308 -183 q 119 -278 211 -278 q 28 -263 75 -278 q -39 -208 -19 -249 q 60 -126 44 -197 q 75 29 75 -54 l 75 708 l 344 708 l 344 64 m 217 1042 q 322 1013 281 1042 q 363 931 363 983 q 319 847 363 875 q 211 819 275 819 q 105 847 147 819 q 63 928 63 875 q 108 1013 63 983 q 217 1042 153 1042 z "},"ȷ":{"ha":419,"x_min":-39,"x_max":344,"o":"m 344 64 q 326 -106 344 -28 q 260 -231 308 -183 q 119 -278 211 -278 q 28 -263 75 -278 q -39 -208 -19 -249 q 60 -126 44 -197 q 75 29 75 -54 l 75 708 l 344 708 l 344 64 z "},"ĵ":{"ha":419,"x_min":-39,"x_max":454,"o":"m 344 64 q 326 -106 344 -28 q 260 -231 308 -183 q 119 -278 211 -278 q 28 -263 75 -278 q -39 -208 -19 -249 q 60 -126 44 -197 q 75 29 75 -54 l 75 708 l 344 708 l 344 64 m 25 813 l -29 876 l 181 1038 l 240 1038 l 454 876 l 400 813 l 213 885 l 25 813 z "},"k":{"ha":792,"x_min":75,"x_max":801,"o":"m 75 0 l 75 972 l 344 1000 l 344 0 l 75 0 m 561 708 l 792 708 l 597 431 l 801 0 l 510 0 l 364 390 l 561 708 z "},"ķ":{"ha":792,"x_min":75,"x_max":801,"o":"m 75 0 l 75 972 l 344 1000 l 344 0 l 75 0 m 561 708 l 792 708 l 597 431 l 801 0 l 510 0 l 364 390 l 561 708 m 399 -71 q 497 -98 467 -71 q 528 -183 528 -125 q 473 -306 528 -253 q 338 -358 418 -358 q 309 -357 324 -358 q 282 -353 294 -356 q 324 -283 310 -318 q 339 -207 339 -247 q 307 -92 339 -143 q 347 -76 319 -82 q 399 -71 375 -71 z "},"ĸ":{"ha":792,"x_min":75,"x_max":801,"o":"m 75 0 l 75 708 l 344 736 l 344 0 l 75 0 m 561 708 l 792 708 l 597 431 l 801 0 l 510 0 l 364 390 l 561 708 z "},"l":{"ha":410,"x_min":65,"x_max":378,"o":"m 65 972 l 335 1000 l 335 161 q 344 85 335 121 q 378 17 353 49 q 317 -12 356 -3 q 250 -21 279 -21 q 114 22 163 -21 q 65 151 65 64 l 65 972 z "},"ĺ":{"ha":410,"x_min":53,"x_max":447,"o":"m 65 944 l 335 972 l 335 161 q 344 85 335 121 q 378 17 353 49 q 317 -12 356 -3 q 250 -21 279 -21 q 114 22 163 -21 q 65 151 65 64 l 65 944 m 53 1057 l 394 1197 q 432 1151 417 1179 q 447 1096 447 1124 q 388 1018 447 1032 q 271 1000 328 1004 l 69 986 l 53 1057 z "},"ľ":{"ha":410,"x_min":65,"x_max":576,"o":"m 65 972 l 335 1000 l 335 161 q 344 85 335 121 q 378 17 353 49 q 317 -12 356 -3 q 250 -21 279 -21 q 114 22 163 -21 q 65 151 65 64 l 65 972 m 379 979 q 419 994 392 989 q 471 1000 447 1000 q 546 972 515 1000 q 576 882 576 943 q 538 782 576 833 q 419 731 500 731 q 394 733 404 731 q 372 739 383 735 q 403 795 394 767 q 411 864 411 824 q 403 924 411 894 q 379 979 396 953 z "},"ļ":{"ha":410,"x_min":65,"x_max":378,"o":"m 65 972 l 335 1000 l 335 161 q 344 85 335 121 q 378 17 353 49 q 317 -12 356 -3 q 250 -21 279 -21 q 114 22 163 -21 q 65 151 65 64 l 65 972 m 206 -71 q 304 -98 274 -71 q 335 -183 335 -125 q 280 -306 335 -253 q 144 -358 225 -358 q 116 -357 131 -358 q 89 -353 101 -356 q 131 -283 117 -318 q 146 -207 146 -247 q 114 -92 146 -143 q 154 -76 126 -82 q 206 -71 182 -71 z "},"ŀ":{"ha":500,"x_min":65,"x_max":542,"o":"m 65 972 l 335 1000 l 335 161 q 344 85 335 121 q 378 17 353 49 q 317 -12 356 -3 q 250 -21 279 -21 q 114 22 163 -21 q 65 151 65 64 l 65 972 m 453 560 q 518 534 494 560 q 542 464 542 508 q 517 393 542 419 q 447 367 492 367 q 379 392 403 367 q 356 460 356 418 q 383 533 356 506 q 453 560 410 560 z "},"ǉ":{"ha":829,"x_min":65,"x_max":772,"o":"m 65 972 l 335 1000 l 335 161 q 344 85 335 121 q 378 17 353 49 q 317 -12 356 -3 q 250 -21 279 -21 q 114 22 163 -21 q 65 151 65 64 l 65 972 m 754 64 q 736 -106 754 -28 q 669 -231 718 -183 q 529 -278 621 -278 q 438 -263 485 -278 q 371 -208 390 -249 q 469 -126 454 -197 q 485 29 485 -54 l 485 708 l 754 708 l 754 64 m 626 1042 q 731 1013 690 1042 q 772 931 772 983 q 728 847 772 875 q 621 819 685 819 q 515 847 557 819 q 472 928 472 875 q 517 1013 472 983 q 626 1042 563 1042 z "},"ł":{"ha":590,"x_min":10,"x_max":581,"o":"m 36 301 q 16 340 22 319 q 10 375 10 361 q 27 423 10 406 q 75 451 44 440 l 554 628 q 575 588 569 607 q 581 554 581 568 q 564 506 581 524 q 515 476 547 488 l 36 301 m 144 972 l 414 1000 l 414 161 q 423 85 414 121 q 457 17 432 49 q 397 -12 435 -3 q 329 -21 358 -21 q 193 22 242 -21 q 144 151 144 64 l 144 972 z "},"m":{"ha":1233,"x_min":65,"x_max":1211,"o":"m 65 0 l 65 708 l 283 725 l 294 600 q 382 706 324 675 q 521 736 440 736 q 652 708 601 736 q 729 626 703 679 q 816 711 761 686 q 938 736 871 736 q 1115 668 1063 736 q 1168 475 1168 600 l 1168 161 q 1177 85 1168 121 q 1211 17 1186 49 q 1151 -12 1189 -3 q 1083 -21 1113 -21 q 947 22 996 -21 q 899 151 899 64 l 899 472 q 890 578 899 525 q 833 631 882 631 q 779 599 794 631 q 760 524 764 568 q 757 443 757 481 l 757 0 l 488 0 l 488 472 q 478 578 488 525 q 417 631 469 631 q 345 567 356 631 q 335 443 335 504 l 335 0 l 65 0 z "},"n":{"ha":822,"x_min":65,"x_max":800,"o":"m 65 0 l 65 708 l 283 725 l 294 600 q 382 706 324 675 q 521 736 440 736 q 702 669 647 736 q 757 475 757 603 l 757 161 q 766 85 757 121 q 800 17 775 49 q 740 -12 778 -3 q 672 -21 701 -21 q 536 22 585 -21 q 488 151 488 64 l 488 472 q 478 578 488 525 q 417 631 469 631 q 345 567 356 631 q 335 443 335 504 l 335 0 l 65 0 z "},"ń":{"ha":822,"x_min":65,"x_max":800,"o":"m 65 0 l 65 708 l 283 725 l 294 600 q 382 706 324 675 q 521 736 440 736 q 702 669 647 736 q 757 475 757 603 l 757 161 q 766 85 757 121 q 800 17 775 49 q 740 -12 778 -3 q 672 -21 701 -21 q 536 22 585 -21 q 488 151 488 64 l 488 472 q 478 578 488 525 q 417 631 469 631 q 345 567 356 631 q 335 443 335 504 l 335 0 l 65 0 m 294 863 l 599 1071 q 651 1028 628 1057 q 674 968 674 1000 q 624 891 674 914 q 519 853 574 868 l 325 797 l 294 863 z "},"ŉ":{"ha":822,"x_min":-118,"x_max":800,"o":"m 65 0 l 65 708 l 283 725 l 294 600 q 382 706 324 675 q 521 736 440 736 q 702 669 647 736 q 757 475 757 603 l 757 161 q 766 85 757 121 q 800 17 775 49 q 740 -12 778 -3 q 672 -21 701 -21 q 536 22 585 -21 q 488 151 488 64 l 488 472 q 478 578 488 525 q 417 631 469 631 q 345 567 356 631 q 335 443 335 504 l 335 0 l 65 0 m -1 1015 q 128 885 128 1015 q 73 742 128 804 q -62 681 18 681 q -91 683 -76 681 q -118 688 -106 685 q -61 857 -61 771 q -93 992 -61 929 q -53 1009 -81 1003 q -1 1015 -25 1015 z "},"ň":{"ha":822,"x_min":65,"x_max":800,"o":"m 65 0 l 65 708 l 283 725 l 294 600 q 382 706 324 675 q 521 736 440 736 q 702 669 647 736 q 757 475 757 603 l 757 161 q 766 85 757 121 q 800 17 775 49 q 740 -12 778 -3 q 672 -21 701 -21 q 536 22 585 -21 q 488 151 488 64 l 488 472 q 478 578 488 525 q 417 631 469 631 q 345 567 356 631 q 335 443 335 504 l 335 0 l 65 0 m 624 1051 l 678 988 l 482 799 l 394 799 l 194 988 l 249 1051 l 436 951 l 624 1051 z "},"ņ":{"ha":822,"x_min":65,"x_max":800,"o":"m 65 0 l 65 708 l 283 725 l 294 600 q 382 706 324 675 q 521 736 440 736 q 702 669 647 736 q 757 475 757 603 l 757 161 q 766 85 757 121 q 800 17 775 49 q 740 -12 778 -3 q 672 -21 701 -21 q 536 22 585 -21 q 488 151 488 64 l 488 472 q 478 578 488 525 q 417 631 469 631 q 345 567 356 631 q 335 443 335 504 l 335 0 l 65 0 m 411 -71 q 510 -98 479 -71 q 540 -183 540 -125 q 485 -306 540 -253 q 350 -358 431 -358 q 322 -357 336 -358 q 294 -353 307 -356 q 337 -283 322 -318 q 351 -207 351 -247 q 319 -92 351 -143 q 360 -76 332 -82 q 411 -71 388 -71 z "},"ṅ":{"ha":822,"x_min":65,"x_max":800,"o":"m 65 0 l 65 708 l 283 725 l 294 600 q 382 706 324 675 q 521 736 440 736 q 702 669 647 736 q 757 475 757 603 l 757 161 q 766 85 757 121 q 800 17 775 49 q 740 -12 778 -3 q 672 -21 701 -21 q 536 22 585 -21 q 488 151 488 64 l 488 472 q 478 578 488 525 q 417 631 469 631 q 345 567 356 631 q 335 443 335 504 l 335 0 l 65 0 m 446 1042 q 551 1013 510 1042 q 592 931 592 983 q 548 847 592 875 q 440 819 504 819 q 334 847 376 819 q 292 928 292 875 q 337 1013 292 983 q 446 1042 382 1042 z "},"ŋ":{"ha":814,"x_min":65,"x_max":757,"o":"m 488 472 q 478 578 488 525 q 417 631 469 631 q 345 567 356 631 q 335 443 335 504 l 335 0 l 65 0 l 65 708 l 283 725 l 294 600 q 382 706 324 675 q 521 736 440 736 q 702 669 647 736 q 757 475 757 603 l 757 64 q 739 -106 757 -28 q 672 -231 721 -183 q 532 -278 622 -278 q 440 -263 488 -278 q 374 -208 392 -249 q 472 -126 457 -197 q 488 29 488 -54 l 488 472 z "},"ǌ":{"ha":1242,"x_min":65,"x_max":1185,"o":"m 65 0 l 65 708 l 283 725 l 294 600 q 382 706 324 675 q 521 736 440 736 q 702 669 647 736 q 757 475 757 603 l 757 161 q 766 85 757 121 q 800 17 775 49 q 740 -12 778 -3 q 672 -21 701 -21 q 536 22 585 -21 q 488 151 488 64 l 488 472 q 478 578 488 525 q 417 631 469 631 q 345 567 356 631 q 335 443 335 504 l 335 0 l 65 0 m 1167 64 q 1149 -106 1167 -28 q 1082 -231 1131 -183 q 942 -278 1033 -278 q 850 -263 897 -278 q 783 -208 803 -249 q 882 -126 867 -197 q 897 29 897 -54 l 897 708 l 1167 708 l 1167 64 m 1039 1042 q 1144 1013 1103 1042 q 1185 931 1185 983 q 1141 847 1185 875 q 1033 819 1097 819 q 927 847 969 819 q 885 928 885 875 q 930 1013 885 983 q 1039 1042 975 1042 z "},"ñ":{"ha":822,"x_min":65,"x_max":800,"o":"m 65 0 l 65 708 l 283 725 l 294 600 q 382 706 324 675 q 521 736 440 736 q 702 669 647 736 q 757 475 757 603 l 757 161 q 766 85 757 121 q 800 17 775 49 q 740 -12 778 -3 q 672 -21 701 -21 q 536 22 585 -21 q 488 151 488 64 l 488 472 q 478 578 488 525 q 417 631 469 631 q 345 567 356 631 q 335 443 335 504 l 335 0 l 65 0 m 679 1010 q 711 926 711 971 q 670 854 711 871 q 574 838 629 838 q 428 851 517 838 q 282 865 340 865 q 235 860 258 865 q 193 838 211 856 q 170 877 179 854 q 161 921 161 900 q 202 993 161 976 q 299 1010 243 1010 q 444 996 356 1010 q 590 982 532 982 q 638 987 614 982 q 679 1010 661 992 z "},"o":{"ha":808,"x_min":39,"x_max":769,"o":"m 404 736 q 676 640 583 736 q 769 364 769 543 q 675 78 769 188 q 404 -31 581 -31 q 136 74 233 -31 q 39 350 39 179 q 132 633 39 529 q 404 736 225 736 m 404 53 q 467 103 447 53 q 490 224 486 153 q 494 357 494 294 q 490 488 494 419 q 467 605 486 557 q 404 653 447 653 q 342 605 361 653 q 318 488 322 557 q 314 357 314 419 q 318 224 314 294 q 342 103 322 153 q 404 53 361 53 z "},"ó":{"ha":808,"x_min":39,"x_max":769,"o":"m 404 736 q 676 640 583 736 q 769 364 769 543 q 675 78 769 188 q 404 -31 581 -31 q 136 74 233 -31 q 39 350 39 179 q 132 633 39 529 q 404 736 225 736 m 404 53 q 467 103 447 53 q 490 224 486 153 q 494 357 494 294 q 490 488 494 419 q 467 605 486 557 q 404 653 447 653 q 342 605 361 653 q 318 488 322 557 q 314 357 314 419 q 318 224 314 294 q 342 103 322 153 q 404 53 361 53 m 263 863 l 567 1071 q 619 1028 596 1057 q 642 968 642 1000 q 592 891 642 914 q 488 853 542 868 l 293 797 l 263 863 z "},"ŏ":{"ha":808,"x_min":39,"x_max":769,"o":"m 404 736 q 676 640 583 736 q 769 364 769 543 q 675 78 769 188 q 404 -31 581 -31 q 136 74 233 -31 q 39 350 39 179 q 132 633 39 529 q 404 736 225 736 m 404 53 q 467 103 447 53 q 490 224 486 153 q 494 357 494 294 q 490 488 494 419 q 467 605 486 557 q 404 653 447 653 q 342 605 361 653 q 318 488 322 557 q 314 357 314 419 q 318 224 314 294 q 342 103 322 153 q 404 53 361 53 m 672 1035 q 606 878 672 940 q 404 815 540 815 q 202 878 268 815 q 136 1035 136 940 l 339 1035 q 342 937 339 986 q 404 888 344 888 q 467 937 464 888 q 469 1035 469 986 l 672 1035 z "},"ô":{"ha":808,"x_min":39,"x_max":769,"o":"m 404 736 q 676 640 583 736 q 769 364 769 543 q 675 78 769 188 q 404 -31 581 -31 q 136 74 233 -31 q 39 350 39 179 q 132 633 39 529 q 404 736 225 736 m 404 53 q 467 103 447 53 q 490 224 486 153 q 494 357 494 294 q 490 488 494 419 q 467 605 486 557 q 404 653 447 653 q 342 605 361 653 q 318 488 322 557 q 314 357 314 419 q 318 224 314 294 q 342 103 322 153 q 404 53 361 53 m 218 813 l 164 876 l 374 1038 l 433 1038 l 647 876 l 593 813 l 406 885 l 218 813 z "},"ö":{"ha":808,"x_min":39,"x_max":769,"o":"m 404 736 q 676 640 583 736 q 769 364 769 543 q 675 78 769 188 q 404 -31 581 -31 q 136 74 233 -31 q 39 350 39 179 q 132 633 39 529 q 404 736 225 736 m 404 53 q 467 103 447 53 q 490 224 486 153 q 494 357 494 294 q 490 488 494 419 q 467 605 486 557 q 404 653 447 653 q 342 605 361 653 q 318 488 322 557 q 314 357 314 419 q 318 224 314 294 q 342 103 322 153 q 404 53 361 53 z "},"ọ":{"ha":808,"x_min":39,"x_max":769,"o":"m 404 736 q 676 640 583 736 q 769 364 769 543 q 675 78 769 188 q 404 -31 581 -31 q 136 74 233 -31 q 39 350 39 179 q 132 633 39 529 q 404 736 225 736 m 404 53 q 467 103 447 53 q 490 224 486 153 q 494 357 494 294 q 490 488 494 419 q 467 605 486 557 q 404 653 447 653 q 342 605 361 653 q 318 488 322 557 q 314 357 314 419 q 318 224 314 294 q 342 103 322 153 q 404 53 361 53 z "},"ò":{"ha":808,"x_min":39,"x_max":769,"o":"m 404 736 q 676 640 583 736 q 769 364 769 543 q 675 78 769 188 q 404 -31 581 -31 q 136 74 233 -31 q 39 350 39 179 q 132 633 39 529 q 404 736 225 736 m 404 53 q 467 103 447 53 q 490 224 486 153 q 494 357 494 294 q 490 488 494 419 q 467 605 486 557 q 404 653 447 653 q 342 605 361 653 q 318 488 322 557 q 314 357 314 419 q 318 224 314 294 q 342 103 322 153 q 404 53 361 53 m 517 797 l 322 853 q 218 891 268 868 q 168 968 168 914 q 191 1028 168 1000 q 243 1071 214 1057 l 547 863 l 517 797 z "},"ő":{"ha":808,"x_min":39,"x_max":835,"o":"m 404 736 q 676 640 583 736 q 769 364 769 543 q 675 78 769 188 q 404 -31 581 -31 q 136 74 233 -31 q 39 350 39 179 q 132 633 39 529 q 404 736 225 736 m 404 53 q 467 103 447 53 q 490 224 486 153 q 494 357 494 294 q 490 488 494 419 q 467 605 486 557 q 404 653 447 653 q 342 605 361 653 q 318 488 322 557 q 314 357 314 419 q 318 224 314 294 q 342 103 322 153 q 404 53 361 53 m 181 831 l 431 1089 q 494 1050 465 1079 q 524 985 524 1021 q 486 898 524 932 q 404 846 449 864 l 222 772 l 181 831 m 492 831 l 742 1089 q 806 1050 776 1079 q 835 985 835 1021 q 797 898 835 932 q 715 846 760 864 l 533 772 l 492 831 z "},"ō":{"ha":808,"x_min":39,"x_max":769,"o":"m 404 736 q 676 640 583 736 q 769 364 769 543 q 675 78 769 188 q 404 -31 581 -31 q 136 74 233 -31 q 39 350 39 179 q 132 633 39 529 q 404 736 225 736 m 404 53 q 467 103 447 53 q 490 224 486 153 q 494 357 494 294 q 490 488 494 419 q 467 605 486 557 q 404 653 447 653 q 342 605 361 653 q 318 488 322 557 q 314 357 314 419 q 318 224 314 294 q 342 103 322 153 q 404 53 361 53 m 604 990 q 613 967 610 981 q 617 936 617 953 q 595 883 617 903 q 538 863 574 863 l 203 863 q 190 917 190 883 q 269 990 190 990 l 604 990 z "},"ǫ":{"ha":808,"x_min":39,"x_max":769,"o":"m 404 736 q 676 640 583 736 q 769 364 769 543 q 675 78 769 188 q 404 -31 581 -31 q 136 74 233 -31 q 39 350 39 179 q 132 633 39 529 q 404 736 225 736 m 404 53 q 467 103 447 53 q 490 224 486 153 q 494 357 494 294 q 490 488 494 419 q 467 605 486 557 q 404 653 447 653 q 342 605 361 653 q 318 488 322 557 q 314 357 314 419 q 318 224 314 294 q 342 103 322 153 q 404 53 361 53 m 561 0 q 474 -84 510 -36 q 438 -189 438 -132 q 457 -248 438 -233 q 515 -262 476 -262 q 558 -255 535 -262 q 592 -228 582 -247 q 616 -251 606 -239 q 626 -286 626 -264 q 601 -342 626 -322 q 540 -372 575 -362 q 476 -381 504 -381 q 334 -349 397 -381 q 271 -237 271 -317 q 338 -89 271 -150 q 486 8 406 -28 l 561 0 z "},"ø":{"ha":808,"x_min":39,"x_max":769,"o":"m 624 833 q 687 819 656 833 q 718 772 718 804 q 712 745 718 760 q 696 717 706 731 l 169 -79 q 106 -65 138 -79 q 75 -18 75 -50 q 81 9 75 -6 q 97 38 88 24 l 624 833 m 404 736 q 676 640 583 736 q 769 364 769 543 q 675 78 769 188 q 404 -31 581 -31 q 136 74 233 -31 q 39 350 39 179 q 132 633 39 529 q 404 736 225 736 m 404 53 q 467 103 447 53 q 490 224 486 153 q 494 357 494 294 q 490 488 494 419 q 467 605 486 557 q 404 653 447 653 q 342 605 361 653 q 318 488 322 557 q 314 357 314 419 q 318 224 314 294 q 342 103 322 153 q 404 53 361 53 z "},"ǿ":{"ha":808,"x_min":39,"x_max":769,"o":"m 624 833 q 687 819 656 833 q 718 772 718 804 q 712 745 718 760 q 696 717 706 731 l 169 -79 q 106 -65 138 -79 q 75 -18 75 -50 q 81 9 75 -6 q 97 38 88 24 l 624 833 m 404 736 q 676 640 583 736 q 769 364 769 543 q 675 78 769 188 q 404 -31 581 -31 q 136 74 233 -31 q 39 350 39 179 q 132 633 39 529 q 404 736 225 736 m 404 53 q 467 103 447 53 q 490 224 486 153 q 494 357 494 294 q 490 488 494 419 q 467 605 486 557 q 404 653 447 653 q 342 605 361 653 q 318 488 322 557 q 314 357 314 419 q 318 224 314 294 q 342 103 322 153 q 404 53 361 53 m 263 863 l 567 1071 q 619 1028 596 1057 q 642 968 642 1000 q 592 891 642 914 q 488 853 542 868 l 293 797 l 263 863 z "},"õ":{"ha":808,"x_min":39,"x_max":769,"o":"m 404 736 q 676 640 583 736 q 769 364 769 543 q 675 78 769 188 q 404 -31 581 -31 q 136 74 233 -31 q 39 350 39 179 q 132 633 39 529 q 404 736 225 736 m 404 53 q 467 103 447 53 q 490 224 486 153 q 494 357 494 294 q 490 488 494 419 q 467 605 486 557 q 404 653 447 653 q 342 605 361 653 q 318 488 322 557 q 314 357 314 419 q 318 224 314 294 q 342 103 322 153 q 404 53 361 53 m 647 1010 q 679 926 679 971 q 638 854 679 871 q 542 838 597 838 q 397 851 485 838 q 250 865 308 865 q 203 860 226 865 q 161 838 179 856 q 138 877 147 854 q 129 921 129 900 q 170 993 129 976 q 267 1010 211 1010 q 412 996 324 1010 q 558 982 500 982 q 606 987 582 982 q 647 1010 629 992 z "},"œ":{"ha":1201,"x_min":39,"x_max":1181,"o":"m 890 736 q 1030 716 964 736 q 1138 652 1096 696 q 1181 535 1181 608 q 1134 397 1181 444 q 1010 333 1088 350 q 842 317 933 317 q 806 318 829 317 q 771 321 783 319 q 808 189 776 242 q 922 136 839 136 q 1031 160 979 136 q 1111 236 1083 185 q 1141 204 1132 225 q 1150 160 1150 183 q 1107 52 1150 94 q 999 -10 1064 10 q 868 -31 933 -31 q 735 -10 794 -31 q 631 43 675 11 q 529 -10 586 11 q 404 -31 472 -31 q 136 74 233 -31 q 39 350 39 179 q 132 633 39 529 q 404 736 225 736 q 535 717 476 736 q 638 667 594 697 q 759 719 693 703 q 890 736 825 736 m 404 653 q 342 605 361 653 q 318 488 322 557 q 314 357 314 419 q 318 224 314 294 q 342 103 322 153 q 404 53 361 53 q 467 103 447 53 q 490 224 486 153 q 494 357 494 294 l 494 360 l 494 378 q 489 503 494 439 q 464 610 483 567 q 404 653 444 653 m 871 653 q 810 615 831 653 q 781 522 789 576 q 771 417 772 467 q 769 343 769 367 l 704 386 q 735 384 721 385 q 765 383 750 383 q 899 415 854 382 q 944 535 944 447 q 929 615 944 578 q 871 653 914 653 z "},"p":{"ha":832,"x_min":75,"x_max":793,"o":"m 531 736 q 688 685 631 736 q 769 549 746 633 q 793 364 793 464 q 694 72 793 175 q 407 -31 596 -31 q 376 -29 392 -31 q 344 -26 360 -28 l 344 -250 l 75 -268 l 75 708 l 293 725 l 304 600 q 392 706 333 675 q 531 736 450 736 m 426 631 q 355 567 365 631 q 344 443 344 504 l 344 78 q 417 53 375 53 q 487 101 465 53 q 513 221 508 150 q 518 357 518 292 q 513 483 518 419 q 489 588 508 546 q 426 631 469 631 z "},"þ":{"ha":832,"x_min":75,"x_max":793,"o":"m 344 1000 l 344 833 q 342 742 344 797 q 332 651 340 686 q 415 717 364 697 q 531 736 467 736 q 688 685 631 736 q 769 549 746 633 q 793 364 793 464 q 694 72 793 175 q 407 -31 596 -31 q 344 -26 375 -31 l 344 -250 l 75 -268 l 75 972 l 344 1000 m 426 631 q 355 567 365 631 q 344 443 344 504 l 344 78 q 417 53 375 53 q 487 101 465 53 q 513 221 508 150 q 518 357 518 292 q 513 483 518 419 q 489 588 508 546 q 426 631 469 631 z "},"q":{"ha":822,"x_min":39,"x_max":757,"o":"m 488 -278 l 488 -128 q 490 -36 488 -92 q 500 54 492 19 q 415 -12 465 7 q 307 -31 364 -31 q 97 79 154 -31 q 39 342 39 189 q 130 629 39 522 q 401 736 221 736 q 487 729 443 736 q 569 708 531 722 l 757 736 l 757 -250 l 488 -278 m 488 628 q 415 653 456 653 q 345 604 367 653 q 319 485 324 556 q 314 349 314 414 q 319 223 314 286 q 342 117 324 160 q 406 75 361 75 q 464 105 447 75 q 484 178 481 135 q 488 264 488 222 l 488 628 z "},"r":{"ha":675,"x_min":65,"x_max":685,"o":"m 396 617 q 353 590 365 617 q 338 524 340 564 q 335 443 335 483 l 335 0 l 65 0 l 65 708 l 283 725 l 294 600 q 371 701 318 665 q 493 736 424 736 q 633 688 581 736 q 685 551 685 639 q 644 437 685 478 q 529 396 603 396 q 490 399 515 396 q 453 410 464 403 q 459 451 457 428 q 461 492 461 474 q 450 576 461 535 q 396 617 439 617 z "},"ŕ":{"ha":675,"x_min":64,"x_max":685,"o":"m 396 617 q 353 590 365 617 q 338 524 340 564 q 335 443 335 483 l 335 0 l 65 0 l 65 708 l 283 725 l 294 600 q 371 701 318 665 q 493 736 424 736 q 633 688 581 736 q 685 551 685 639 q 644 437 685 478 q 529 396 603 396 q 490 399 515 396 q 453 410 464 403 q 459 451 457 428 q 461 492 461 474 q 450 576 461 535 q 396 617 439 617 m 64 863 l 368 1071 q 420 1028 397 1057 q 443 968 443 1000 q 393 891 443 914 q 289 853 343 868 l 94 797 l 64 863 z "},"ř":{"ha":675,"x_min":-36,"x_max":685,"o":"m 396 617 q 353 590 365 617 q 338 524 340 564 q 335 443 335 483 l 335 0 l 65 0 l 65 708 l 283 725 l 294 600 q 371 701 318 665 q 493 736 424 736 q 633 688 581 736 q 685 551 685 639 q 644 437 685 478 q 529 396 603 396 q 490 399 515 396 q 453 410 464 403 q 459 451 457 428 q 461 492 461 474 q 450 576 461 535 q 396 617 439 617 m 393 1051 l 447 988 l 251 799 l 164 799 l -36 988 l 18 1051 l 206 951 l 393 1051 z "},"ŗ":{"ha":675,"x_min":58,"x_max":685,"o":"m 396 617 q 353 590 365 617 q 338 524 340 564 q 335 443 335 483 l 335 0 l 65 0 l 65 708 l 283 725 l 294 600 q 371 701 318 665 q 493 736 424 736 q 633 688 581 736 q 685 551 685 639 q 644 437 685 478 q 529 396 603 396 q 490 399 515 396 q 453 410 464 403 q 459 451 457 428 q 461 492 461 474 q 450 576 461 535 q 396 617 439 617 m 175 -71 q 274 -98 243 -71 q 304 -183 304 -125 q 249 -306 304 -253 q 114 -358 194 -358 q 85 -357 100 -358 q 58 -353 71 -356 q 101 -283 86 -318 q 115 -207 115 -247 q 83 -92 115 -143 q 124 -76 96 -82 q 175 -71 151 -71 z "},"ṛ":{"ha":675,"x_min":53,"x_max":685,"o":"m 396 617 q 353 590 365 617 q 338 524 340 564 q 335 443 335 483 l 335 0 l 65 0 l 65 708 l 283 725 l 294 600 q 371 701 318 665 q 493 736 424 736 q 633 688 581 736 q 685 551 685 639 q 644 437 685 478 q 529 396 603 396 q 490 399 515 396 q 453 410 464 403 q 459 451 457 428 q 461 492 461 474 q 450 576 461 535 q 396 617 439 617 z "},"s":{"ha":669,"x_min":25,"x_max":640,"o":"m 353 657 q 303 638 322 657 q 285 588 285 619 q 338 486 285 525 q 463 414 392 447 q 587 333 533 381 q 640 207 640 286 q 542 22 640 75 q 313 -31 444 -31 q 185 -18 251 -31 q 72 28 118 -6 q 25 122 25 61 q 72 210 25 183 q 181 236 119 236 q 219 233 194 236 q 254 224 243 231 q 251 189 253 207 q 249 154 249 171 q 263 80 249 111 q 322 49 278 49 q 380 74 360 49 q 400 136 400 99 q 347 238 400 199 q 222 310 293 276 q 98 390 151 343 q 44 517 44 438 q 142 688 44 639 q 363 736 240 736 q 482 725 417 736 q 594 684 547 714 q 640 600 640 654 q 590 517 640 544 q 485 489 540 489 q 447 492 471 489 q 411 501 422 494 q 415 536 414 513 q 417 571 417 560 q 402 631 417 606 q 353 657 388 657 z "},"ś":{"ha":669,"x_min":25,"x_max":640,"o":"m 353 657 q 303 638 322 657 q 285 588 285 619 q 338 486 285 525 q 463 414 392 447 q 587 333 533 381 q 640 207 640 286 q 542 22 640 75 q 313 -31 444 -31 q 185 -18 251 -31 q 72 28 118 -6 q 25 122 25 61 q 72 210 25 183 q 181 236 119 236 q 219 233 194 236 q 254 224 243 231 q 251 189 253 207 q 249 154 249 171 q 263 80 249 111 q 322 49 278 49 q 380 74 360 49 q 400 136 400 99 q 347 238 400 199 q 222 310 293 276 q 98 390 151 343 q 44 517 44 438 q 142 688 44 639 q 363 736 240 736 q 482 725 417 736 q 594 684 547 714 q 640 600 640 654 q 590 517 640 544 q 485 489 540 489 q 447 492 471 489 q 411 501 422 494 q 415 536 414 513 q 417 571 417 560 q 402 631 417 606 q 353 657 388 657 m 211 863 l 515 1071 q 567 1028 544 1057 q 590 968 590 1000 q 540 891 590 914 q 436 853 490 868 l 242 797 l 211 863 z "},"š":{"ha":669,"x_min":25,"x_max":640,"o":"m 353 657 q 303 638 322 657 q 285 588 285 619 q 338 486 285 525 q 463 414 392 447 q 587 333 533 381 q 640 207 640 286 q 542 22 640 75 q 313 -31 444 -31 q 185 -18 251 -31 q 72 28 118 -6 q 25 122 25 61 q 72 210 25 183 q 181 236 119 236 q 219 233 194 236 q 254 224 243 231 q 251 189 253 207 q 249 154 249 171 q 263 80 249 111 q 322 49 278 49 q 380 74 360 49 q 400 136 400 99 q 347 238 400 199 q 222 310 293 276 q 98 390 151 343 q 44 517 44 438 q 142 688 44 639 q 363 736 240 736 q 482 725 417 736 q 594 684 547 714 q 640 600 640 654 q 590 517 640 544 q 485 489 540 489 q 447 492 471 489 q 411 501 422 494 q 415 536 414 513 q 417 571 417 560 q 402 631 417 606 q 353 657 388 657 m 540 1051 l 594 988 l 399 799 l 311 799 l 111 988 l 165 1051 l 353 951 l 540 1051 z "},"ş":{"ha":669,"x_min":25,"x_max":640,"o":"m 353 657 q 303 638 322 657 q 285 588 285 619 q 338 486 285 525 q 463 414 392 447 q 587 333 533 381 q 640 207 640 286 q 542 22 640 75 q 313 -31 444 -31 q 185 -18 251 -31 q 72 28 118 -6 q 25 122 25 61 q 72 210 25 183 q 181 236 119 236 q 219 233 194 236 q 254 224 243 231 q 251 189 253 207 q 249 154 249 171 q 263 80 249 111 q 322 49 278 49 q 380 74 360 49 q 400 136 400 99 q 347 238 400 199 q 222 310 293 276 q 98 390 151 343 q 44 517 44 438 q 142 688 44 639 q 363 736 240 736 q 482 725 417 736 q 594 684 547 714 q 640 600 640 654 q 590 517 640 544 q 485 489 540 489 q 447 492 471 489 q 411 501 422 494 q 415 536 414 513 q 417 571 417 560 q 402 631 417 606 q 353 657 388 657 m 364 15 l 321 -96 l 306 -83 q 332 -81 315 -82 q 363 -79 349 -79 q 485 -110 436 -79 q 535 -214 535 -140 q 471 -323 535 -287 q 333 -358 407 -358 q 238 -342 292 -358 q 185 -274 185 -326 q 201 -219 185 -239 q 244 -252 218 -240 q 311 -264 269 -264 q 350 -249 333 -264 q 367 -210 367 -233 q 338 -163 367 -174 q 274 -153 308 -153 q 246 -153 260 -153 q 218 -156 232 -154 l 281 15 l 364 15 z "},"ŝ":{"ha":669,"x_min":25,"x_max":640,"o":"m 353 657 q 303 638 322 657 q 285 588 285 619 q 338 486 285 525 q 463 414 392 447 q 587 333 533 381 q 640 207 640 286 q 542 22 640 75 q 313 -31 444 -31 q 185 -18 251 -31 q 72 28 118 -6 q 25 122 25 61 q 72 210 25 183 q 181 236 119 236 q 219 233 194 236 q 254 224 243 231 q 251 189 253 207 q 249 154 249 171 q 263 80 249 111 q 322 49 278 49 q 380 74 360 49 q 400 136 400 99 q 347 238 400 199 q 222 310 293 276 q 98 390 151 343 q 44 517 44 438 q 142 688 44 639 q 363 736 240 736 q 482 725 417 736 q 594 684 547 714 q 640 600 640 654 q 590 517 640 544 q 485 489 540 489 q 447 492 471 489 q 411 501 422 494 q 415 536 414 513 q 417 571 417 560 q 402 631 417 606 q 353 657 388 657 m 167 813 l 113 876 l 322 1038 l 382 1038 l 596 876 l 542 813 l 354 885 l 167 813 z "},"ș":{"ha":669,"x_min":25,"x_max":640,"o":"m 353 657 q 303 638 322 657 q 285 588 285 619 q 338 486 285 525 q 463 414 392 447 q 587 333 533 381 q 640 207 640 286 q 542 22 640 75 q 313 -31 444 -31 q 185 -18 251 -31 q 72 28 118 -6 q 25 122 25 61 q 72 210 25 183 q 181 236 119 236 q 219 233 194 236 q 254 224 243 231 q 251 189 253 207 q 249 154 249 171 q 263 80 249 111 q 322 49 278 49 q 380 74 360 49 q 400 136 400 99 q 347 238 400 199 q 222 310 293 276 q 98 390 151 343 q 44 517 44 438 q 142 688 44 639 q 363 736 240 736 q 482 725 417 736 q 594 684 547 714 q 640 600 640 654 q 590 517 640 544 q 485 489 540 489 q 447 492 471 489 q 411 501 422 494 q 415 536 414 513 q 417 571 417 560 q 402 631 417 606 q 353 657 388 657 m 326 -71 q 425 -98 394 -71 q 456 -183 456 -125 q 401 -306 456 -253 q 265 -358 346 -358 q 237 -357 251 -358 q 210 -353 222 -356 q 252 -283 238 -318 q 267 -207 267 -247 q 235 -92 267 -143 q 275 -76 247 -82 q 326 -71 303 -71 z "},"ṣ":{"ha":669,"x_min":25,"x_max":640,"o":"m 353 657 q 303 638 322 657 q 285 588 285 619 q 338 486 285 525 q 463 414 392 447 q 587 333 533 381 q 640 207 640 286 q 542 22 640 75 q 313 -31 444 -31 q 185 -18 251 -31 q 72 28 118 -6 q 25 122 25 61 q 72 210 25 183 q 181 236 119 236 q 219 233 194 236 q 254 224 243 231 q 251 189 253 207 q 249 154 249 171 q 263 80 249 111 q 322 49 278 49 q 380 74 360 49 q 400 136 400 99 q 347 238 400 199 q 222 310 293 276 q 98 390 151 343 q 44 517 44 438 q 142 688 44 639 q 363 736 240 736 q 482 725 417 736 q 594 684 547 714 q 640 600 640 654 q 590 517 640 544 q 485 489 540 489 q 447 492 471 489 q 411 501 422 494 q 415 536 414 513 q 417 571 417 560 q 402 631 417 606 q 353 657 388 657 z "},"ß":{"ha":1053,"x_min":-39,"x_max":1043,"o":"m 75 735 q 135 898 75 840 q 292 978 196 956 q 493 1000 388 1000 q 601 993 539 1000 q 721 969 663 986 q 818 922 779 951 q 857 846 857 892 q 815 748 857 789 q 730 670 772 707 q 688 588 688 633 q 741 486 688 525 q 865 414 794 447 q 990 333 936 381 q 1043 207 1043 286 q 945 22 1043 75 q 715 -31 847 -31 q 588 -18 654 -31 q 474 28 521 -6 q 428 122 428 61 q 475 210 428 183 q 583 236 522 236 q 622 233 597 236 q 657 224 646 231 q 653 189 656 207 q 651 154 651 171 q 666 80 651 111 q 725 49 681 49 q 783 74 763 49 q 803 136 803 99 q 749 238 803 199 q 625 310 696 276 q 501 390 554 343 q 447 517 447 438 q 493 624 447 575 q 584 717 539 672 q 629 808 629 761 q 584 892 629 864 q 483 921 539 921 q 376 886 407 921 q 344 775 344 851 l 344 64 q 326 -106 344 -28 q 260 -231 308 -183 q 119 -278 211 -278 q 28 -263 75 -278 q -39 -208 -19 -249 q 60 -126 44 -197 q 75 29 75 -54 l 75 735 z "},"ſ":{"ha":439,"x_min":65,"x_max":683,"o":"m 335 0 l 65 -21 l 65 763 q 115 906 65 854 q 243 979 164 958 q 414 1000 322 1000 q 531 991 468 1000 q 639 955 594 982 q 683 874 683 928 q 633 796 683 818 q 528 774 583 774 q 490 776 514 774 q 454 786 465 779 q 458 816 456 800 q 460 849 460 832 q 449 908 460 882 q 404 935 438 935 q 344 887 354 935 q 335 789 335 839 l 335 0 z "},"t":{"ha":468,"x_min":7,"x_max":490,"o":"m 94 646 l 7 646 l 7 689 q 156 760 75 713 q 288 860 236 808 l 364 860 l 364 708 l 490 708 l 490 646 l 364 646 l 364 161 q 380 94 364 119 q 436 60 396 69 q 367 -2 414 17 q 271 -21 319 -21 q 140 23 186 -21 q 94 151 94 67 l 94 646 z "},"ŧ":{"ha":560,"x_min":10,"x_max":550,"o":"m 544 483 q 549 460 547 474 q 550 442 550 447 q 525 376 550 397 q 456 356 500 356 l 15 356 q 11 377 13 365 q 10 397 10 389 q 103 483 10 483 l 544 483 m 125 646 l 38 646 l 38 689 q 186 760 106 713 q 318 860 267 808 l 394 860 l 394 708 l 521 708 l 521 646 l 394 646 l 394 161 q 410 94 394 119 q 467 60 426 69 q 397 -2 444 17 q 301 -21 350 -21 q 171 23 217 -21 q 125 151 125 67 l 125 646 z "},"ť":{"ha":468,"x_min":7,"x_max":588,"o":"m 94 646 l 7 646 l 7 689 q 156 760 75 713 q 288 860 236 808 l 364 860 l 364 708 l 490 708 l 490 646 l 364 646 l 364 161 q 380 94 364 119 q 436 60 396 69 q 367 -2 414 17 q 271 -21 319 -21 q 140 23 186 -21 q 94 151 94 67 l 94 646 m 390 979 q 431 994 403 989 q 482 1000 458 1000 q 557 972 526 1000 q 588 882 588 943 q 549 782 588 833 q 431 731 511 731 q 405 733 415 731 q 383 739 394 735 q 414 795 406 767 q 422 864 422 824 q 415 924 422 894 q 390 979 407 953 z "},"ţ":{"ha":468,"x_min":7,"x_max":490,"o":"m 94 646 l 7 646 l 7 689 q 156 760 75 713 q 288 860 236 808 l 364 860 l 364 708 l 490 708 l 490 646 l 364 646 l 364 161 q 380 94 364 119 q 436 60 396 69 q 367 -2 414 17 q 271 -21 319 -21 q 140 23 186 -21 q 94 151 94 67 l 94 646 m 283 15 l 240 -96 l 225 -83 q 251 -81 235 -82 q 282 -79 268 -79 q 405 -110 356 -79 q 454 -214 454 -140 q 390 -323 454 -287 q 253 -358 326 -358 q 158 -342 211 -358 q 104 -274 104 -326 q 121 -219 104 -239 q 163 -252 138 -240 q 231 -264 189 -264 q 269 -249 253 -264 q 286 -210 286 -233 q 257 -163 286 -174 q 193 -153 228 -153 q 165 -153 179 -153 q 138 -156 151 -154 l 200 15 l 283 15 z "},"ț":{"ha":468,"x_min":7,"x_max":490,"o":"m 94 646 l 7 646 l 7 689 q 156 760 75 713 q 288 860 236 808 l 364 860 l 364 708 l 490 708 l 490 646 l 364 646 l 364 161 q 380 94 364 119 q 436 60 396 69 q 367 -2 414 17 q 271 -21 319 -21 q 140 23 186 -21 q 94 151 94 67 l 94 646 m 246 -71 q 344 -98 314 -71 q 375 -183 375 -125 q 320 -306 375 -253 q 185 -358 265 -358 q 156 -357 171 -358 q 129 -353 142 -356 q 172 -283 157 -318 q 186 -207 186 -247 q 154 -92 186 -143 q 194 -76 167 -82 q 246 -71 222 -71 z "},"ṭ":{"ha":468,"x_min":7,"x_max":490,"o":"m 94 646 l 7 646 l 7 689 q 156 760 75 713 q 288 860 236 808 l 364 860 l 364 708 l 490 708 l 490 646 l 364 646 l 364 161 q 380 94 364 119 q 436 60 396 69 q 367 -2 414 17 q 271 -21 319 -21 q 140 23 186 -21 q 94 151 94 67 l 94 646 z "},"u":{"ha":838,"x_min":65,"x_max":806,"o":"m 763 708 l 763 161 q 772 85 763 121 q 806 17 781 49 q 745 -12 783 -3 q 678 -21 707 -21 q 511 63 550 -21 q 428 -10 478 11 q 317 -31 378 -31 q 110 68 156 -31 q 65 328 65 167 l 65 708 l 340 708 l 340 335 q 343 203 340 263 q 360 110 346 144 q 411 75 375 75 q 478 124 464 75 q 493 225 493 172 l 493 708 l 763 708 z "},"ú":{"ha":838,"x_min":65,"x_max":806,"o":"m 763 708 l 763 161 q 772 85 763 121 q 806 17 781 49 q 745 -12 783 -3 q 678 -21 707 -21 q 511 63 550 -21 q 428 -10 478 11 q 317 -31 378 -31 q 110 68 156 -31 q 65 328 65 167 l 65 708 l 340 708 l 340 335 q 343 203 340 263 q 360 110 346 144 q 411 75 375 75 q 478 124 464 75 q 493 225 493 172 l 493 708 l 763 708 m 269 863 l 574 1071 q 626 1028 603 1057 q 649 968 649 1000 q 599 891 649 914 q 494 853 549 868 l 300 797 l 269 863 z "},"ŭ":{"ha":838,"x_min":65,"x_max":806,"o":"m 763 708 l 763 161 q 772 85 763 121 q 806 17 781 49 q 745 -12 783 -3 q 678 -21 707 -21 q 511 63 550 -21 q 428 -10 478 11 q 317 -31 378 -31 q 110 68 156 -31 q 65 328 65 167 l 65 708 l 340 708 l 340 335 q 343 203 340 263 q 360 110 346 144 q 411 75 375 75 q 478 124 464 75 q 493 225 493 172 l 493 708 l 763 708 m 679 1035 q 613 878 679 940 q 411 815 547 815 q 209 878 275 815 q 143 1035 143 940 l 346 1035 q 349 937 346 986 q 411 888 351 888 q 474 937 471 888 q 476 1035 476 986 l 679 1035 z "},"û":{"ha":838,"x_min":65,"x_max":806,"o":"m 763 708 l 763 161 q 772 85 763 121 q 806 17 781 49 q 745 -12 783 -3 q 678 -21 707 -21 q 511 63 550 -21 q 428 -10 478 11 q 317 -31 378 -31 q 110 68 156 -31 q 65 328 65 167 l 65 708 l 340 708 l 340 335 q 343 203 340 263 q 360 110 346 144 q 411 75 375 75 q 478 124 464 75 q 493 225 493 172 l 493 708 l 763 708 m 225 813 l 171 876 l 381 1038 l 440 1038 l 654 876 l 600 813 l 413 885 l 225 813 z "},"ü":{"ha":838,"x_min":65,"x_max":806,"o":"m 763 708 l 763 161 q 772 85 763 121 q 806 17 781 49 q 745 -12 783 -3 q 678 -21 707 -21 q 511 63 550 -21 q 428 -10 478 11 q 317 -31 378 -31 q 110 68 156 -31 q 65 328 65 167 l 65 708 l 340 708 l 340 335 q 343 203 340 263 q 360 110 346 144 q 411 75 375 75 q 478 124 464 75 q 493 225 493 172 l 493 708 l 763 708 z "},"ụ":{"ha":838,"x_min":65,"x_max":806,"o":"m 763 708 l 763 161 q 772 85 763 121 q 806 17 781 49 q 745 -12 783 -3 q 678 -21 707 -21 q 511 63 550 -21 q 428 -10 478 11 q 317 -31 378 -31 q 110 68 156 -31 q 65 328 65 167 l 65 708 l 340 708 l 340 335 q 343 203 340 263 q 360 110 346 144 q 411 75 375 75 q 478 124 464 75 q 493 225 493 172 l 493 708 l 763 708 z "},"ù":{"ha":838,"x_min":65,"x_max":806,"o":"m 763 708 l 763 161 q 772 85 763 121 q 806 17 781 49 q 745 -12 783 -3 q 678 -21 707 -21 q 511 63 550 -21 q 428 -10 478 11 q 317 -31 378 -31 q 110 68 156 -31 q 65 328 65 167 l 65 708 l 340 708 l 340 335 q 343 203 340 263 q 360 110 346 144 q 411 75 375 75 q 478 124 464 75 q 493 225 493 172 l 493 708 l 763 708 m 524 797 l 329 853 q 225 891 275 868 q 175 968 175 914 q 198 1028 175 1000 q 250 1071 221 1057 l 554 863 l 524 797 z "},"ű":{"ha":838,"x_min":65,"x_max":842,"o":"m 763 708 l 763 161 q 772 85 763 121 q 806 17 781 49 q 745 -12 783 -3 q 678 -21 707 -21 q 511 63 550 -21 q 428 -10 478 11 q 317 -31 378 -31 q 110 68 156 -31 q 65 328 65 167 l 65 708 l 340 708 l 340 335 q 343 203 340 263 q 360 110 346 144 q 411 75 375 75 q 478 124 464 75 q 493 225 493 172 l 493 708 l 763 708 m 188 831 l 438 1089 q 501 1050 472 1079 q 531 985 531 1021 q 493 898 531 932 q 411 846 456 864 l 229 772 l 188 831 m 499 831 l 749 1089 q 813 1050 783 1079 q 842 985 842 1021 q 804 898 842 932 q 722 846 767 864 l 540 772 l 499 831 z "},"ū":{"ha":838,"x_min":65,"x_max":806,"o":"m 763 708 l 763 161 q 772 85 763 121 q 806 17 781 49 q 745 -12 783 -3 q 678 -21 707 -21 q 511 63 550 -21 q 428 -10 478 11 q 317 -31 378 -31 q 110 68 156 -31 q 65 328 65 167 l 65 708 l 340 708 l 340 335 q 343 203 340 263 q 360 110 346 144 q 411 75 375 75 q 478 124 464 75 q 493 225 493 172 l 493 708 l 763 708 m 611 990 q 620 967 617 981 q 624 936 624 953 q 602 883 624 903 q 544 863 581 863 l 210 863 q 197 917 197 883 q 276 990 197 990 l 611 990 z "},"ų":{"ha":838,"x_min":65,"x_max":868,"o":"m 763 708 l 763 161 q 772 85 763 121 q 806 17 781 49 q 745 -12 783 -3 q 678 -21 707 -21 q 511 63 550 -21 q 428 -10 478 11 q 317 -31 378 -31 q 110 68 156 -31 q 65 328 65 167 l 65 708 l 340 708 l 340 335 q 343 203 340 263 q 360 110 346 144 q 411 75 375 75 q 478 124 464 75 q 493 225 493 172 l 493 708 l 763 708 m 803 14 q 715 -70 751 -22 q 679 -175 679 -118 q 699 -234 679 -219 q 757 -249 718 -249 q 800 -241 776 -249 q 833 -214 824 -233 q 858 -237 847 -225 q 868 -272 868 -250 q 842 -328 868 -308 q 781 -358 817 -349 q 718 -367 746 -367 q 576 -335 639 -367 q 513 -224 513 -303 q 580 -75 513 -136 q 728 22 647 -14 l 803 14 z "},"ů":{"ha":838,"x_min":65,"x_max":806,"o":"m 763 708 l 763 161 q 772 85 763 121 q 806 17 781 49 q 745 -12 783 -3 q 678 -21 707 -21 q 511 63 550 -21 q 428 -10 478 11 q 317 -31 378 -31 q 110 68 156 -31 q 65 328 65 167 l 65 708 l 340 708 l 340 335 q 343 203 340 263 q 360 110 346 144 q 411 75 375 75 q 478 124 464 75 q 493 225 493 172 l 493 708 l 763 708 m 411 806 q 297 842 343 806 q 251 940 251 878 q 297 1038 251 1004 q 411 1071 342 1071 q 526 1038 481 1071 q 571 940 571 1004 q 525 842 571 878 q 411 806 479 806 m 411 861 q 458 884 443 861 q 474 940 474 907 q 458 994 474 972 q 411 1015 443 1015 q 364 994 379 1015 q 349 940 349 972 q 363 884 349 907 q 411 861 378 861 z "},"ũ":{"ha":838,"x_min":65,"x_max":806,"o":"m 763 708 l 763 161 q 772 85 763 121 q 806 17 781 49 q 745 -12 783 -3 q 678 -21 707 -21 q 511 63 550 -21 q 428 -10 478 11 q 317 -31 378 -31 q 110 68 156 -31 q 65 328 65 167 l 65 708 l 340 708 l 340 335 q 343 203 340 263 q 360 110 346 144 q 411 75 375 75 q 478 124 464 75 q 493 225 493 172 l 493 708 l 763 708 m 654 1010 q 686 926 686 971 q 645 854 686 871 q 549 838 604 838 q 403 851 492 838 q 257 865 315 865 q 210 860 233 865 q 168 838 186 856 q 145 877 154 854 q 136 921 136 900 q 177 993 136 976 q 274 1010 218 1010 q 419 996 331 1010 q 565 982 507 982 q 613 987 589 982 q 654 1010 636 992 z "},"v":{"ha":760,"x_min":14,"x_max":772,"o":"m 772 708 l 547 0 l 204 0 l 14 708 l 296 708 l 414 108 l 532 708 l 772 708 z "},"w":{"ha":1125,"x_min":14,"x_max":1138,"o":"m 1138 708 l 932 0 l 631 0 l 556 328 l 486 0 l 185 0 l 14 708 l 296 708 l 394 108 l 493 708 l 714 708 l 813 108 l 911 708 l 1138 708 z "},"ẃ":{"ha":1125,"x_min":14,"x_max":1138,"o":"m 1138 708 l 932 0 l 631 0 l 556 328 l 486 0 l 185 0 l 14 708 l 296 708 l 394 108 l 493 708 l 714 708 l 813 108 l 911 708 l 1138 708 m 461 863 l 765 1071 q 817 1028 794 1057 q 840 968 840 1000 q 790 891 840 914 q 686 853 740 868 l 492 797 l 461 863 z "},"ŵ":{"ha":1125,"x_min":14,"x_max":1138,"o":"m 1138 708 l 932 0 l 631 0 l 556 328 l 486 0 l 185 0 l 14 708 l 296 708 l 394 108 l 493 708 l 714 708 l 813 108 l 911 708 l 1138 708 m 417 813 l 363 876 l 572 1038 l 632 1038 l 846 876 l 792 813 l 604 885 l 417 813 z "},"ẅ":{"ha":1125,"x_min":14,"x_max":1138,"o":"m 1138 708 l 932 0 l 631 0 l 556 328 l 486 0 l 185 0 l 14 708 l 296 708 l 394 108 l 493 708 l 714 708 l 813 108 l 911 708 l 1138 708 z "},"ẁ":{"ha":1125,"x_min":14,"x_max":1138,"o":"m 1138 708 l 932 0 l 631 0 l 556 328 l 486 0 l 185 0 l 14 708 l 296 708 l 394 108 l 493 708 l 714 708 l 813 108 l 911 708 l 1138 708 m 715 797 l 521 853 q 417 891 467 868 q 367 968 367 914 q 390 1028 367 1000 q 442 1071 413 1057 l 746 863 l 715 797 z "},"x":{"ha":674,"x_min":-10,"x_max":679,"o":"m 286 228 l 221 0 l -10 0 l 194 372 l 10 708 l 301 708 l 393 510 l 440 708 l 671 708 l 479 358 l 679 0 l 388 0 l 286 228 z "},"y":{"ha":736,"x_min":14,"x_max":743,"o":"m 743 708 l 399 -268 l 129 -250 l 292 82 l 189 82 l 14 708 l 296 708 l 404 190 l 522 708 l 743 708 z "},"ý":{"ha":736,"x_min":14,"x_max":743,"o":"m 743 708 l 399 -268 l 129 -250 l 292 82 l 189 82 l 14 708 l 296 708 l 404 190 l 522 708 l 743 708 m 263 863 l 567 1071 q 619 1028 596 1057 q 642 968 642 1000 q 592 891 642 914 q 488 853 542 868 l 293 797 l 263 863 z "},"ŷ":{"ha":736,"x_min":14,"x_max":743,"o":"m 743 708 l 399 -268 l 129 -250 l 292 82 l 189 82 l 14 708 l 296 708 l 404 190 l 522 708 l 743 708 m 218 813 l 164 876 l 374 1038 l 433 1038 l 647 876 l 593 813 l 406 885 l 218 813 z "},"ÿ":{"ha":736,"x_min":14,"x_max":743,"o":"m 743 708 l 399 -268 l 129 -250 l 292 82 l 189 82 l 14 708 l 296 708 l 404 190 l 522 708 l 743 708 z "},"ỳ":{"ha":736,"x_min":14,"x_max":743,"o":"m 743 708 l 399 -268 l 129 -250 l 292 82 l 189 82 l 14 708 l 296 708 l 404 190 l 522 708 l 743 708 m 517 797 l 322 853 q 218 891 268 868 q 168 968 168 914 q 191 1028 168 1000 q 243 1071 214 1057 l 547 863 l 517 797 z "},"ỹ":{"ha":736,"x_min":14,"x_max":743,"o":"m 743 708 l 399 -268 l 129 -250 l 292 82 l 189 82 l 14 708 l 296 708 l 404 190 l 522 708 l 743 708 m 647 1010 q 679 926 679 971 q 638 854 679 871 q 542 838 597 838 q 397 851 485 838 q 250 865 308 865 q 203 860 226 865 q 161 838 179 856 q 138 877 147 854 q 129 921 129 900 q 170 993 129 976 q 267 1010 211 1010 q 412 996 324 1010 q 558 982 500 982 q 606 987 582 982 q 647 1010 629 992 z "},"z":{"ha":599,"x_min":1,"x_max":581,"o":"m 569 708 l 578 626 l 308 117 l 581 136 l 567 0 l 10 0 l 1 82 l 269 590 l 28 572 l 42 708 l 569 708 z "},"ź":{"ha":599,"x_min":1,"x_max":581,"o":"m 569 708 l 578 626 l 308 117 l 581 136 l 567 0 l 10 0 l 1 82 l 269 590 l 28 572 l 42 708 l 569 708 m 158 863 l 463 1071 q 515 1028 492 1057 q 538 968 538 1000 q 488 891 538 914 q 383 853 438 868 l 189 797 l 158 863 z "},"ž":{"ha":599,"x_min":1,"x_max":581,"o":"m 569 708 l 578 626 l 308 117 l 581 136 l 567 0 l 10 0 l 1 82 l 269 590 l 28 572 l 42 708 l 569 708 m 488 1051 l 542 988 l 346 799 l 258 799 l 58 988 l 113 1051 l 300 951 l 488 1051 z "},"ż":{"ha":599,"x_min":1,"x_max":581,"o":"m 569 708 l 578 626 l 308 117 l 581 136 l 567 0 l 10 0 l 1 82 l 269 590 l 28 572 l 42 708 l 569 708 m 310 1042 q 415 1013 374 1042 q 456 931 456 983 q 412 847 456 875 q 304 819 368 819 q 198 847 240 819 q 156 928 156 875 q 201 1013 156 983 q 310 1042 246 1042 z "},"ẓ":{"ha":599,"x_min":1,"x_max":581,"o":"m 569 708 l 578 626 l 308 117 l 581 136 l 567 0 l 10 0 l 1 82 l 269 590 l 28 572 l 42 708 l 569 708 z "},"ﬁ":{"ha":879,"x_min":1,"x_max":847,"o":"m 542 857 q 521 915 542 896 q 461 935 500 935 q 382 892 400 935 q 364 789 364 850 l 364 708 l 804 708 l 804 161 q 813 85 804 121 q 847 17 822 49 q 787 -12 825 -3 q 719 -21 749 -21 q 583 22 632 -21 q 535 151 535 64 l 535 646 l 364 646 l 364 0 l 94 -21 l 94 646 l 1 646 l 1 708 l 94 708 l 99 763 q 157 910 104 858 q 292 981 210 961 q 471 1000 375 1000 q 570 997 511 1000 q 686 982 629 993 q 781 947 743 971 q 819 883 819 924 q 762 797 819 819 q 640 774 704 774 q 587 777 618 774 q 535 789 556 781 q 540 822 538 803 q 542 857 542 842 z "},"ﬂ":{"ha":878,"x_min":1,"x_max":846,"o":"m 803 1000 l 803 161 q 812 85 803 121 q 846 17 821 49 q 785 -12 824 -3 q 718 -21 747 -21 q 582 22 631 -21 q 533 151 533 64 l 533 849 q 513 902 533 883 q 457 921 493 921 q 381 878 397 921 q 364 775 364 836 l 364 708 l 488 708 l 488 646 l 364 646 l 364 0 l 94 -21 l 94 646 l 1 646 l 1 708 l 94 708 l 99 763 q 157 910 106 858 q 288 981 208 961 q 463 1000 367 1000 q 542 996 500 1000 q 618 981 583 992 l 803 1000 z "},"ª":{"ha":644,"x_min":39,"x_max":592,"o":"m 313 936 q 494 900 426 936 q 561 749 561 864 l 561 529 q 567 474 561 500 q 592 425 574 449 q 547 402 574 410 q 494 394 521 394 q 374 461 401 394 q 322 405 360 422 q 243 388 285 388 q 101 424 164 388 q 39 538 39 460 q 87 643 39 608 q 208 688 135 678 q 356 699 281 699 l 356 789 q 346 849 356 825 q 301 874 336 874 q 253 852 267 874 q 239 789 239 831 q 240 763 239 776 q 243 736 242 749 q 216 729 235 731 q 188 728 197 728 q 106 747 142 728 q 71 811 71 767 q 111 890 71 863 q 208 926 151 917 q 313 936 264 936 m 554 328 q 560 303 557 318 q 564 279 564 289 q 545 231 564 242 q 489 219 526 219 l 90 219 q 84 244 88 229 q 81 268 81 258 q 99 317 81 306 q 156 328 118 328 l 554 328 m 356 639 q 272 617 303 639 q 242 543 242 596 q 254 490 242 511 q 297 468 267 468 q 343 498 331 468 q 356 560 356 528 l 356 639 z "},"º":{"ha":603,"x_min":39,"x_max":569,"o":"m 69 219 q 63 244 67 229 q 60 268 60 258 q 78 317 60 306 q 135 328 97 328 l 533 328 q 540 303 536 318 q 543 279 543 289 q 524 231 543 242 q 468 219 506 219 l 69 219 m 304 936 q 501 867 432 936 q 569 671 569 799 q 500 467 569 544 q 304 389 431 389 q 110 464 182 389 q 39 661 39 539 q 108 863 39 789 q 304 936 176 936 m 304 456 q 344 491 332 456 q 358 576 356 526 q 361 665 361 625 q 353 797 361 725 q 304 869 346 869 q 253 797 261 869 q 246 665 246 725 q 249 576 246 625 q 263 491 251 526 q 304 456 275 456 z "},"Δ":{"ha":833,"x_min":-4,"x_max":860,"o":"m 588 917 l 860 0 l -4 0 l 289 917 l 588 917 m 383 724 l 207 101 l 557 101 l 390 683 l 383 724 z "},"Ω":{"ha":928,"x_min":28,"x_max":900,"o":"m 464 944 q 783 828 667 944 q 900 508 900 711 q 838 291 900 382 q 660 149 775 200 l 900 149 l 900 0 l 515 0 l 494 115 q 571 260 558 167 q 583 463 583 354 q 577 630 583 542 q 545 780 571 718 q 464 842 519 842 q 383 780 408 842 q 351 630 357 718 q 344 463 344 542 q 357 260 344 354 q 433 115 369 167 l 413 0 l 28 0 l 28 149 l 268 149 q 90 291 153 200 q 28 508 28 382 q 144 828 28 711 q 464 944 261 944 z "},"μ":{"ha":847,"x_min":75,"x_max":815,"o":"m 350 736 l 350 335 q 353 203 350 263 q 371 110 356 144 q 421 75 386 75 q 488 124 472 75 q 503 225 503 172 l 503 708 l 772 708 l 772 161 q 781 85 772 121 q 815 17 790 49 q 755 -12 793 -3 q 688 -21 717 -21 q 521 63 560 -21 q 439 -8 488 14 q 333 -29 390 -29 q 291 -27 313 -29 q 247 -21 269 -25 l 344 43 l 344 -250 l 75 -268 l 75 708 l 350 736 z "},"π":{"ha":892,"x_min":10,"x_max":882,"o":"m 875 708 q 881 683 879 697 q 882 663 882 669 q 853 590 882 614 q 778 567 825 567 l 729 567 l 778 621 l 778 161 q 787 85 778 121 q 821 17 796 49 q 760 -12 799 -3 q 693 -21 722 -21 q 557 22 606 -21 q 508 151 508 64 l 508 567 l 383 567 l 383 0 l 114 0 l 114 567 l 15 567 q 11 591 13 578 q 10 613 10 604 q 38 685 10 661 q 114 708 67 708 l 875 708 z "},"¹":{"ha":482,"x_min":33,"x_max":457,"o":"m 363 482 l 457 482 l 457 396 l 67 396 l 67 482 l 164 482 l 164 763 q 93 736 133 736 q 44 764 54 736 q 33 831 33 792 q 166 881 100 853 q 292 944 232 908 l 363 924 l 363 482 z "},"²":{"ha":497,"x_min":35,"x_max":444,"o":"m 232 936 q 381 899 317 936 q 444 778 444 863 q 399 659 444 713 q 297 563 353 606 q 266 539 282 550 q 235 517 250 528 l 442 525 l 442 396 l 49 396 l 43 467 q 76 494 60 481 q 110 522 93 508 q 205 624 164 569 q 246 739 246 678 q 224 794 246 775 q 165 814 201 814 q 108 801 133 814 q 67 761 83 789 q 35 818 35 781 q 101 910 35 883 q 232 936 168 936 z "},"³":{"ha":485,"x_min":35,"x_max":432,"o":"m 224 936 q 350 907 294 936 q 406 810 406 878 q 296 682 406 713 q 396 642 360 675 q 432 549 432 608 q 372 420 432 464 q 218 376 311 376 q 94 402 153 376 q 35 493 35 428 q 40 521 35 508 q 56 542 44 533 q 165 497 100 497 q 217 513 197 497 q 236 560 236 528 q 165 625 236 625 q 145 625 156 625 q 126 624 135 625 l 126 697 q 204 710 168 697 q 240 765 240 724 q 172 828 240 828 q 113 810 136 828 q 72 763 90 793 q 42 819 42 781 q 101 910 42 883 q 224 936 160 936 z "},"⁄":{"ha":453,"x_min":36,"x_max":414,"o":"m 300 993 q 351 1000 318 1000 q 414 947 414 1000 q 413 928 414 938 q 408 908 411 918 l 150 -119 q 99 -126 132 -126 q 36 -74 36 -126 q 38 -54 36 -64 q 42 -35 39 -44 l 300 993 z "},"½":{"ha":1160,"x_min":33,"x_max":1082,"o":"m 694 1000 q 757 947 757 1000 q 755 928 757 938 q 751 908 753 918 l 493 -119 q 442 -126 475 -126 q 379 -74 379 -126 q 381 -54 379 -64 q 385 -35 383 -44 l 643 993 q 694 1000 661 1000 m 292 944 l 363 924 l 363 482 l 457 482 l 457 396 l 67 396 l 67 482 l 164 482 l 164 763 q 93 736 133 736 q 44 764 54 736 q 33 831 33 792 q 166 881 100 853 q 292 944 232 908 m 869 540 q 1019 503 956 540 q 1082 382 1082 467 q 1031 256 1082 313 q 921 156 981 200 q 896 138 908 146 q 872 121 883 129 l 1079 129 l 1079 0 l 686 0 l 681 71 q 712 97 696 83 q 743 124 728 110 q 841 226 799 172 q 883 343 883 281 q 861 399 883 379 q 803 418 839 418 q 747 405 772 418 q 704 365 721 392 q 672 422 672 385 q 739 513 672 486 q 869 540 806 540 z "},"⅓":{"ha":1160,"x_min":33,"x_max":1097,"o":"m 715 988 q 778 935 778 988 q 776 915 778 925 q 772 896 775 906 l 514 -132 q 463 -139 496 -139 q 400 -86 400 -139 q 401 -67 400 -76 q 406 -47 403 -57 l 664 981 q 715 988 682 988 m 292 944 l 363 924 l 363 482 l 457 482 l 457 396 l 67 396 l 67 482 l 164 482 l 164 763 q 93 736 133 736 q 44 764 54 736 q 33 831 33 792 q 166 881 100 853 q 292 944 232 908 m 889 540 q 1015 512 960 540 q 1071 414 1071 483 q 961 286 1071 317 q 1061 247 1025 279 q 1097 153 1097 214 q 1037 24 1097 68 q 883 -19 976 -19 q 760 7 819 -19 q 700 97 700 33 q 706 124 700 111 q 721 146 711 138 q 831 101 765 101 q 882 117 863 101 q 901 164 901 133 q 831 229 901 229 q 810 229 821 229 q 792 228 800 229 l 792 301 q 869 315 833 301 q 906 369 906 328 q 838 432 906 432 q 779 415 803 432 q 738 367 756 397 q 707 424 707 385 q 766 514 707 488 q 889 540 825 540 z "},"⅔":{"ha":1160,"x_min":58,"x_max":1097,"o":"m 715 988 q 778 935 778 988 q 776 915 778 925 q 772 896 775 906 l 514 -132 q 463 -139 496 -139 q 400 -86 400 -139 q 401 -67 400 -76 q 406 -47 403 -57 l 664 981 q 715 988 682 988 m 256 936 q 405 899 342 936 q 468 778 468 863 q 422 657 468 711 q 318 560 375 603 q 288 538 303 549 q 258 517 272 528 l 465 525 l 465 396 l 72 396 l 67 467 q 99 494 82 481 q 131 521 115 507 q 228 623 186 569 q 269 739 269 676 q 247 794 269 775 q 189 814 225 814 q 133 801 158 814 q 90 761 107 789 q 58 818 58 781 q 125 910 58 883 q 256 936 192 936 m 889 540 q 1015 512 960 540 q 1071 414 1071 483 q 961 286 1071 317 q 1061 247 1025 279 q 1097 153 1097 214 q 1037 24 1097 68 q 883 -19 976 -19 q 760 7 819 -19 q 700 97 700 33 q 706 124 700 111 q 721 146 711 138 q 831 101 765 101 q 882 117 863 101 q 901 164 901 133 q 831 229 901 229 q 810 229 821 229 q 792 228 800 229 l 792 301 q 869 315 833 301 q 906 369 906 328 q 838 432 906 432 q 779 415 803 432 q 738 367 756 397 q 707 424 707 385 q 766 514 707 488 q 889 540 825 540 z "},"¼":{"ha":1160,"x_min":33,"x_max":1143,"o":"m 694 1000 q 757 947 757 1000 q 755 928 757 938 q 751 908 753 918 l 493 -119 q 442 -126 475 -126 q 379 -74 379 -126 q 381 -54 379 -64 q 385 -35 383 -44 l 643 993 q 694 1000 661 1000 m 292 944 l 363 924 l 363 482 l 457 482 l 457 396 l 67 396 l 67 482 l 164 482 l 164 763 q 93 736 133 736 q 44 764 54 736 q 33 831 33 792 q 166 881 100 853 q 292 944 232 908 m 860 383 l 740 192 l 860 192 l 860 383 m 1058 521 l 1058 192 l 1143 192 l 1136 82 l 1058 82 l 1058 0 l 854 0 l 854 82 l 640 82 q 625 100 631 89 q 619 128 619 111 q 626 160 619 144 q 642 190 632 175 l 861 521 l 1058 521 z "},"¾":{"ha":1160,"x_min":49,"x_max":1143,"o":"m 694 1000 q 757 947 757 1000 q 755 928 757 938 q 751 908 753 918 l 493 -119 q 442 -126 475 -126 q 379 -74 379 -126 q 381 -54 379 -64 q 385 -35 383 -44 l 643 993 q 694 1000 661 1000 m 238 936 q 364 907 308 936 q 419 810 419 878 q 310 682 419 713 q 410 642 374 675 q 446 549 446 608 q 385 420 446 464 q 232 376 325 376 q 108 402 167 376 q 49 493 49 428 q 53 521 49 508 q 69 542 58 533 q 179 497 114 497 q 231 513 211 497 q 250 560 250 528 q 179 625 250 625 q 159 625 169 625 q 140 624 149 625 l 140 697 q 218 710 182 697 q 254 765 254 724 q 186 828 254 828 q 127 810 150 828 q 86 763 104 793 q 56 819 56 781 q 115 910 56 883 q 238 936 174 936 m 860 383 l 740 192 l 860 192 l 860 383 m 1058 521 l 1058 192 l 1143 192 l 1136 82 l 1058 82 l 1058 0 l 854 0 l 854 82 l 640 82 q 625 100 631 89 q 619 128 619 111 q 626 160 619 144 q 642 190 632 175 l 861 521 l 1058 521 z "},"⅛":{"ha":1160,"x_min":33,"x_max":1138,"o":"m 694 1000 q 757 947 757 1000 q 755 928 757 938 q 751 908 753 918 l 493 -119 q 442 -126 475 -126 q 379 -74 379 -126 q 381 -54 379 -64 q 385 -35 383 -44 l 643 993 q 694 1000 661 1000 m 292 944 l 363 924 l 363 482 l 457 482 l 457 396 l 67 396 l 67 482 l 164 482 l 164 763 q 93 736 133 736 q 44 764 54 736 q 33 831 33 792 q 166 881 100 853 q 292 944 232 908 m 867 213 q 852 171 856 193 q 849 128 849 149 q 864 71 849 94 q 914 47 879 47 q 953 63 942 47 q 965 108 965 79 q 937 164 965 142 q 867 213 908 186 m 919 540 q 1050 515 992 540 q 1108 415 1108 489 q 1080 344 1108 372 q 1008 294 1051 317 q 1096 227 1054 265 q 1138 132 1138 189 q 1066 15 1138 50 q 914 -19 994 -19 q 765 15 835 -19 q 696 128 696 49 q 731 204 696 169 q 803 263 767 239 q 738 321 768 289 q 708 400 708 353 q 775 509 708 478 q 919 540 842 540 m 919 475 q 872 424 872 476 q 893 376 872 394 q 949 335 914 357 q 963 375 958 353 q 967 417 967 397 q 919 475 967 474 z "},"*":{"ha":632,"x_min":18,"x_max":578,"o":"m 517 854 q 542 824 531 840 q 558 790 553 808 q 547 705 578 732 q 478 664 517 678 q 424 653 453 656 l 532 539 q 483 479 515 503 q 399 464 435 444 q 339 518 364 483 q 297 601 314 554 l 208 438 q 138 465 167 442 q 97 540 89 500 q 129 614 104 581 q 172 663 147 639 l 26 689 q 31 764 18 724 q 90 826 50 821 q 169 818 131 832 q 235 788 203 808 l 214 949 q 288 968 249 968 q 365 931 347 968 q 382 853 382 894 q 374 786 382 821 l 517 854 z "},"\\":{"ha":472,"x_min":36,"x_max":436,"o":"m 157 1113 q 213 1108 188 1113 l 429 -125 q 434 -156 432 -140 q 436 -187 436 -171 q 401 -258 436 -237 q 315 -278 367 -278 q 286 -276 300 -278 q 260 -274 272 -275 l 43 960 q 38 990 40 975 q 36 1021 36 1006 q 71 1092 36 1072 q 157 1113 106 1113 z "},"·":{"ha":350,"x_min":26,"x_max":326,"o":"m 181 457 q 285 428 244 457 q 326 346 326 399 q 283 263 326 290 q 175 235 239 235 q 69 263 111 235 q 26 343 26 290 q 72 428 26 399 q 181 457 117 457 z "},"•":{"ha":431,"x_min":40,"x_max":390,"o":"m 221 504 q 343 467 296 504 q 390 361 390 429 q 340 251 390 289 q 213 214 289 214 q 88 251 136 214 q 40 356 40 289 q 92 466 40 428 q 221 504 144 504 z "},":":{"ha":356,"x_min":28,"x_max":328,"o":"m 182 736 q 287 707 246 736 q 328 625 328 678 q 284 542 328 569 q 176 514 240 514 q 70 542 113 514 q 28 622 28 569 q 73 707 28 678 q 182 736 118 736 m 182 194 q 287 165 246 194 q 328 83 328 136 q 284 0 328 28 q 176 -28 240 -28 q 70 0 113 -28 q 28 81 28 28 q 73 165 28 136 q 182 194 118 194 z "},",":{"ha":346,"x_min":28,"x_max":318,"o":"m 160 193 q 318 39 318 193 q 250 -120 318 -53 q 90 -187 182 -187 q 28 -179 57 -187 q 76 -87 58 -135 q 93 14 93 -40 q 56 167 93 97 q 101 185 69 178 q 160 193 133 193 z "},"…":{"ha":1049,"x_min":26,"x_max":1024,"o":"m 528 194 q 633 165 592 194 q 674 83 674 136 q 630 0 674 28 q 522 -28 586 -28 q 416 0 458 -28 q 374 81 374 28 q 419 165 374 136 q 528 194 464 194 m 878 194 q 983 165 942 194 q 1024 83 1024 136 q 980 0 1024 28 q 872 -28 936 -28 q 766 0 808 -28 q 724 81 724 28 q 769 165 724 136 q 878 194 814 194 m 181 194 q 285 165 244 194 q 326 83 326 136 q 283 0 326 28 q 175 -28 239 -28 q 69 0 111 -28 q 26 81 26 28 q 72 165 26 136 q 181 194 117 194 z "},"!":{"ha":350,"x_min":26,"x_max":326,"o":"m 164 946 q 263 908 232 946 q 294 803 294 869 q 290 716 294 765 q 282 622 286 667 l 250 267 q 185 250 228 250 q 106 284 122 250 q 85 379 90 318 l 43 901 q 98 935 64 924 q 164 946 132 946 m 181 194 q 285 165 244 194 q 326 83 326 136 q 283 0 326 28 q 175 -28 239 -28 q 69 0 111 -28 q 26 81 26 28 q 72 165 26 136 q 181 194 117 194 z "},"¡":{"ha":350,"x_min":26,"x_max":326,"o":"m 165 457 q 244 423 228 457 q 265 328 260 389 l 307 -194 q 252 -228 286 -217 q 186 -239 218 -239 q 87 -201 118 -239 q 56 -96 56 -162 q 60 -8 56 -58 q 68 85 64 42 l 100 440 q 165 457 122 457 m 181 735 q 285 706 244 735 q 326 624 326 676 q 283 540 326 568 q 175 513 239 513 q 69 540 111 513 q 26 621 26 568 q 72 706 26 676 q 181 735 117 735 z "},"#":{"ha":861,"x_min":50,"x_max":810,"o":"m 606 917 q 641 911 624 917 q 672 900 658 906 l 672 688 l 794 688 q 810 626 810 657 q 786 546 810 569 q 724 522 763 522 l 672 522 l 672 365 l 794 365 q 810 304 810 335 q 786 226 810 251 q 724 200 763 200 l 672 200 l 672 94 q 649 26 672 53 q 574 0 626 0 q 538 6 556 0 q 507 17 521 11 l 507 200 l 367 200 l 367 94 q 344 26 367 53 q 268 0 321 0 q 233 6 250 0 q 201 17 215 11 l 201 200 l 65 200 q 50 261 50 231 q 74 340 50 314 q 136 365 97 365 l 201 365 l 201 522 l 65 522 q 50 583 50 553 q 74 663 50 639 q 136 688 97 688 l 201 688 l 201 822 q 224 890 201 864 q 300 917 247 917 q 335 911 318 917 q 367 900 353 906 l 367 688 l 507 688 l 507 822 q 530 890 507 864 q 606 917 553 917 m 507 522 l 367 522 l 367 365 l 507 365 l 507 522 z "},".":{"ha":350,"x_min":26,"x_max":326,"o":"m 181 194 q 285 165 244 194 q 326 83 326 136 q 283 0 326 28 q 175 -28 239 -28 q 69 0 111 -28 q 26 81 26 28 q 72 165 26 136 q 181 194 117 194 z "},"?":{"ha":703,"x_min":3,"x_max":675,"o":"m 328 944 q 497 926 418 944 q 626 860 576 908 q 675 722 675 813 q 627 585 675 642 q 516 484 579 529 q 405 394 453 439 q 357 290 357 349 q 330 281 349 283 q 297 278 311 278 q 228 307 253 278 q 203 381 203 336 q 233 471 203 429 q 304 555 264 513 q 375 644 344 597 q 406 750 406 692 q 388 829 406 797 q 324 861 371 861 q 256 819 272 861 q 239 728 239 778 q 247 638 239 683 q 210 630 231 632 q 175 628 190 628 q 53 662 104 628 q 3 771 3 696 q 51 876 3 839 q 175 929 100 914 q 328 944 250 944 m 299 194 q 404 165 364 194 q 444 83 444 136 q 401 0 444 28 q 293 -28 358 -28 q 186 0 228 -28 q 144 81 144 28 q 189 165 144 136 q 299 194 233 194 z "},"¿":{"ha":703,"x_min":28,"x_max":700,"o":"m 406 431 q 475 401 450 431 q 500 328 500 372 q 469 238 500 279 q 399 153 439 196 q 328 64 358 111 q 297 -42 297 17 q 315 -121 297 -89 q 379 -153 332 -153 q 447 -111 431 -153 q 464 -19 464 -69 q 456 71 464 25 q 492 78 472 76 q 528 81 513 81 q 649 47 599 81 q 700 -62 700 13 q 651 -168 700 -131 q 528 -221 603 -206 q 375 -236 453 -236 q 206 -218 285 -236 q 77 -152 126 -200 q 28 -14 28 -104 q 76 123 28 67 q 187 224 124 179 q 298 315 250 269 q 346 418 346 360 q 373 428 354 425 q 406 431 392 431 m 400 735 q 505 706 464 735 q 546 624 546 676 q 502 540 546 568 q 394 513 458 513 q 288 540 331 513 q 246 621 246 568 q 291 706 246 676 q 400 735 336 735 z "},"\"":{"ha":567,"x_min":18,"x_max":532,"o":"m 31 640 q 42 819 46 714 q 18 1006 39 924 q 57 1011 36 1008 q 96 1014 78 1014 q 208 979 171 1014 q 244 869 244 944 q 222 749 244 817 q 164 640 199 681 l 31 640 m 318 640 q 330 819 333 714 q 306 1006 326 924 q 344 1011 324 1008 q 383 1014 365 1014 q 495 979 458 1014 q 532 869 532 944 q 509 749 532 817 q 451 640 486 681 l 318 640 z "},"'":{"ha":279,"x_min":18,"x_max":244,"o":"m 31 640 q 42 819 46 714 q 18 1006 39 924 q 57 1011 36 1008 q 96 1014 78 1014 q 208 979 171 1014 q 244 869 244 944 q 222 749 244 817 q 164 640 199 681 l 31 640 z "},";":{"ha":364,"x_min":36,"x_max":336,"o":"m 190 736 q 295 707 254 736 q 336 625 336 678 q 292 542 336 569 q 185 514 249 514 q 78 542 121 514 q 36 622 36 569 q 81 707 36 678 q 190 736 126 736 m 169 193 q 328 39 328 193 q 260 -120 328 -53 q 100 -187 192 -187 q 38 -179 67 -187 q 85 -87 68 -135 q 103 14 103 -40 q 65 167 103 97 q 111 185 79 178 q 169 193 143 193 z "},"/":{"ha":472,"x_min":36,"x_max":436,"o":"m 315 1113 q 401 1092 367 1113 q 436 1021 436 1072 q 434 990 436 1006 q 429 960 432 975 l 213 -274 q 186 -276 200 -275 q 157 -278 172 -278 q 71 -258 106 -278 q 36 -187 36 -237 q 38 -156 36 -171 q 43 -125 40 -140 l 260 1108 q 315 1113 285 1113 z "},"_":{"ha":704,"x_min":10,"x_max":694,"o":"m 15 -196 q 11 -172 13 -186 q 10 -150 10 -158 q 114 -54 10 -54 l 688 -54 q 693 -78 692 -64 q 694 -100 694 -93 q 589 -196 694 -196 l 15 -196 z "},"{":{"ha":535,"x_min":38,"x_max":529,"o":"m 388 1111 q 453 1108 415 1111 q 529 1100 490 1106 l 529 1019 l 488 1019 q 403 990 429 1019 q 376 897 376 960 l 378 582 q 345 481 378 514 q 236 439 313 449 q 349 391 321 426 q 378 276 378 356 l 378 -12 q 397 -128 378 -72 q 486 -185 417 -185 l 528 -185 l 528 -267 q 445 -275 481 -272 q 383 -278 410 -278 q 226 -242 286 -278 q 167 -110 167 -207 l 167 233 q 132 340 167 300 q 38 382 97 381 l 38 482 q 138 515 106 482 q 171 618 171 549 l 171 947 q 223 1074 171 1038 q 388 1111 275 1111 z "},"}":{"ha":535,"x_min":6,"x_max":497,"o":"m 157 582 q 190 481 157 514 q 299 439 222 449 q 185 391 214 426 q 157 276 157 356 l 157 -12 q 138 -128 157 -72 q 49 -185 118 -185 l 7 -185 l 7 -267 q 90 -275 54 -272 q 151 -278 125 -278 q 308 -242 249 -278 q 368 -110 368 -207 l 368 233 q 402 340 368 300 q 497 382 436 381 l 497 482 q 396 515 428 482 q 364 618 364 549 l 364 947 q 312 1074 364 1038 q 147 1111 260 1111 q 82 1108 119 1111 q 6 1100 44 1106 l 6 1019 l 47 1019 q 132 990 106 1019 q 158 897 158 960 l 157 582 z "},"[":{"ha":471,"x_min":103,"x_max":478,"o":"m 468 1099 q 478 1057 478 1079 q 419 1006 478 1006 l 314 1006 l 314 -171 l 419 -171 q 478 -222 478 -171 q 468 -264 478 -244 l 103 -264 l 103 1099 l 468 1099 z "},"]":{"ha":471,"x_min":-7,"x_max":368,"o":"m 368 -264 l 3 -264 q -7 -222 -7 -244 q 51 -171 -7 -171 l 157 -171 l 157 1006 l 51 1006 q -7 1057 -7 1006 q 3 1099 -7 1079 l 368 1099 l 368 -264 z "},"(":{"ha":456,"x_min":72,"x_max":525,"o":"m 450 1111 q 525 1083 499 1111 q 381 914 435 1019 q 303 679 326 808 q 279 417 279 550 q 303 154 279 283 q 381 -81 326 25 q 525 -250 435 -186 q 450 -278 499 -278 q 261 -189 347 -278 q 124 57 175 -100 q 72 417 72 214 q 124 776 72 619 q 261 1022 175 933 q 450 1111 347 1111 z "},")":{"ha":456,"x_min":-69,"x_max":383,"o":"m 6 1111 q 194 1022 108 1111 q 332 776 281 933 q 383 417 383 619 q 332 57 383 214 q 194 -189 281 -100 q 6 -278 108 -278 q -69 -250 -43 -278 q 75 -81 21 -186 q 153 154 129 25 q 176 417 176 283 q 153 679 176 550 q 75 914 129 808 q -69 1083 21 1019 q 6 1111 -43 1111 z "},"—":{"ha":1401,"x_min":10,"x_max":1392,"o":"m 15 264 q 11 288 13 275 q 10 310 10 301 q 114 406 10 406 l 1385 406 q 1390 381 1389 394 q 1392 360 1392 367 q 1286 264 1392 264 l 15 264 z "},"–":{"ha":711,"x_min":10,"x_max":701,"o":"m 15 264 q 11 288 13 275 q 10 310 10 301 q 114 406 10 406 l 694 406 q 700 381 699 394 q 701 360 701 367 q 596 264 701 264 l 15 264 z "},"-":{"ha":518,"x_min":40,"x_max":478,"o":"m 49 253 q 42 280 44 264 q 40 304 40 296 q 139 400 40 396 l 468 417 q 476 389 474 406 q 478 365 478 372 q 378 269 478 276 l 49 253 z "},"­":{"ha":518,"x_min":40,"x_max":478,"o":"m 49 253 q 42 280 44 264 q 40 304 40 296 q 139 400 40 393 l 468 417 q 476 389 474 406 q 478 365 478 372 q 378 269 478 276 l 49 253 z "},"«":{"ha":719,"x_min":10,"x_max":676,"o":"m 192 708 l 358 708 l 238 440 l 353 175 l 190 175 l 10 440 l 192 708 m 510 708 l 676 708 l 556 440 l 671 175 l 508 175 l 328 440 l 510 708 z "},"»":{"ha":719,"x_min":43,"x_max":710,"o":"m 210 708 l 392 440 l 210 175 l 47 175 l 164 440 l 43 708 l 210 708 m 528 708 l 710 440 l 528 175 l 365 175 l 482 440 l 361 708 l 528 708 z "},"‹":{"ha":401,"x_min":10,"x_max":358,"o":"m 192 708 l 358 708 l 238 440 l 353 175 l 190 175 l 10 440 l 192 708 z "},"›":{"ha":401,"x_min":43,"x_max":392,"o":"m 392 440 l 210 175 l 47 175 l 164 440 l 43 708 l 210 708 l 392 440 z "},"„":{"ha":667,"x_min":18,"x_max":632,"o":"m 150 193 q 308 39 308 193 q 240 -120 308 -53 q 81 -187 172 -187 q 18 -179 47 -187 q 67 -87 50 -135 q 83 14 83 -40 q 46 167 83 97 q 92 185 61 178 q 150 193 122 193 m 474 193 q 632 39 632 193 q 564 -120 632 -53 q 404 -187 496 -187 q 342 -179 371 -187 q 390 -87 372 -135 q 407 14 407 -40 q 369 167 407 97 q 415 185 383 178 q 474 193 447 193 z "},"“":{"ha":667,"x_min":35,"x_max":649,"o":"m 517 635 q 358 789 358 635 q 426 948 358 881 q 586 1015 494 1015 q 649 1007 619 1015 q 600 915 617 963 q 583 814 583 868 q 621 661 583 731 q 575 642 606 650 q 517 635 544 635 m 193 635 q 35 789 35 635 q 103 948 35 881 q 263 1015 171 1015 q 325 1007 296 1015 q 277 915 294 963 q 260 814 260 868 q 297 661 260 731 q 251 642 283 650 q 193 635 219 635 z "},"”":{"ha":667,"x_min":18,"x_max":632,"o":"m 150 1015 q 308 861 308 1015 q 240 702 308 769 q 81 635 172 635 q 18 643 47 635 q 67 735 50 688 q 83 836 83 782 q 46 989 83 919 q 92 1008 61 1000 q 150 1015 122 1015 m 474 1015 q 632 861 632 1015 q 564 702 632 769 q 404 635 496 635 q 342 643 371 635 q 390 735 372 688 q 407 836 407 782 q 369 989 407 919 q 415 1008 383 1000 q 474 1015 447 1015 z "},"‘":{"ha":440,"x_min":132,"x_max":422,"o":"m 290 635 q 132 789 132 635 q 200 948 132 881 q 360 1015 268 1015 q 422 1007 393 1015 q 374 915 392 963 q 357 814 357 868 q 394 661 357 731 q 349 642 381 650 q 290 635 317 635 z "},"’":{"ha":343,"x_min":18,"x_max":308,"o":"m 150 1015 q 308 861 308 1015 q 240 702 308 769 q 81 635 172 635 q 18 643 47 635 q 67 735 50 688 q 83 836 83 782 q 46 989 83 919 q 92 1008 61 1000 q 150 1015 122 1015 z "},"‚":{"ha":343,"x_min":18,"x_max":308,"o":"m 150 192 q 308 38 308 192 q 240 -122 308 -54 q 81 -189 172 -189 q 18 -181 47 -189 q 67 -89 50 -136 q 83 13 83 -42 q 74 91 83 53 q 46 165 65 129 q 92 184 61 176 q 150 192 122 192 z "}," ":{"ha":833,"x_min":0,"x_max":0,"o":""}," ":{"ha":833,"x_min":0,"x_max":0,"o":""}," ":{"ha":833,"x_min":0,"x_max":0,"o":""}," ":{"ha":243,"x_min":0,"x_max":0,"o":""}," ":{"ha":243,"x_min":0,"x_max":0,"o":""}," ":{"ha":833,"x_min":0,"x_max":0,"o":""},"¢":{"ha":861,"x_min":104,"x_max":786,"o":"m 517 825 q 647 810 585 825 q 747 756 708 794 q 786 650 786 718 q 739 563 786 589 q 631 536 692 536 q 592 539 617 536 q 557 549 568 542 q 560 583 558 565 q 563 618 563 601 q 552 701 563 661 q 497 742 542 742 q 419 693 444 742 q 386 578 393 644 q 379 456 379 511 q 393 340 379 392 q 447 256 407 288 q 560 225 486 225 q 715 333 669 225 q 755 306 742 328 q 768 257 768 283 q 731 145 768 189 q 633 80 693 101 q 506 58 572 58 q 287 106 376 58 q 151 240 197 153 q 104 449 104 328 q 213 728 104 632 q 517 825 321 825 m 394 192 l 533 179 l 533 18 q 514 -44 533 -19 q 456 -68 494 -68 q 423 -63 439 -68 q 394 -53 407 -58 l 394 192 m 469 956 q 502 951 486 956 q 531 940 518 946 l 531 785 l 392 761 l 392 869 q 411 931 392 907 q 469 956 431 956 z "},"¤":{"ha":861,"x_min":86,"x_max":775,"o":"m 424 224 q 232 290 308 224 q 156 469 156 357 q 236 650 156 585 q 424 715 317 715 q 614 648 536 715 q 692 469 692 581 q 613 288 692 353 q 424 224 533 224 m 424 582 q 353 552 379 582 q 328 469 328 522 q 353 387 328 417 q 424 357 379 357 q 494 387 468 357 q 519 469 519 417 q 494 552 519 522 q 424 582 468 582 m 228 581 l 86 704 l 158 801 l 306 658 l 228 581 m 526 668 l 653 806 l 746 718 l 610 590 l 526 668 m 622 365 l 775 239 l 700 144 l 549 282 l 622 365 m 317 272 l 185 135 l 93 224 l 231 356 l 317 272 z "},"$":{"ha":861,"x_min":69,"x_max":790,"o":"m 460 917 q 599 901 528 917 q 720 849 671 886 q 769 743 769 811 q 719 634 769 668 q 597 600 668 600 q 562 602 582 600 q 525 610 542 604 q 533 700 533 656 q 513 782 533 750 q 440 814 492 814 q 374 790 399 814 q 350 724 350 765 q 394 619 350 657 q 504 553 439 581 q 635 492 569 525 q 746 408 701 460 q 790 265 790 356 q 737 93 790 158 q 594 -1 683 28 q 399 -31 506 -31 q 249 -15 325 -31 q 121 42 172 1 q 69 157 69 83 q 120 273 69 232 q 242 314 171 314 q 277 312 257 314 q 314 304 297 310 q 308 266 310 283 q 306 228 306 249 q 328 117 306 161 q 418 72 351 72 q 500 99 469 72 q 531 178 531 126 q 486 277 531 240 q 376 342 442 314 q 245 403 311 369 q 135 492 179 438 q 90 636 90 546 q 144 792 90 729 q 282 885 197 854 q 460 917 367 917 m 350 40 l 489 28 l 489 -78 q 469 -140 489 -115 q 411 -164 450 -164 q 378 -159 394 -164 q 350 -149 363 -154 l 350 40 m 451 1050 q 484 1045 468 1050 q 513 1035 500 1040 l 513 879 l 374 856 l 374 964 q 392 1026 374 1001 q 451 1050 411 1050 z "},"€":{"ha":861,"x_min":-4,"x_max":844,"o":"m 546 917 q 694 904 626 917 q 801 857 761 892 q 842 757 842 822 q 788 658 842 688 q 669 628 735 628 q 634 630 654 628 q 597 638 614 632 q 603 676 601 658 q 606 714 606 693 q 592 790 606 765 q 526 814 578 814 q 444 761 469 814 q 413 636 418 708 q 407 506 407 564 q 418 335 407 411 q 467 216 429 260 q 588 172 506 172 q 706 194 653 172 q 790 261 758 215 q 844 161 844 228 q 792 51 844 93 q 662 -11 739 8 q 510 -31 585 -31 q 260 34 351 -31 q 129 208 168 99 q 90 453 90 318 q 146 710 90 607 q 303 865 201 814 q 546 917 406 917 m 594 393 q 598 376 597 386 q 599 360 599 365 q 522 290 599 290 l 0 290 q -4 324 -4 306 q 71 393 -4 393 l 594 393 m 594 579 q 598 562 597 572 q 599 546 599 551 q 522 476 599 476 l 0 476 q -4 510 -4 492 q 71 579 -4 579 l 594 579 z "},"ƒ":{"ha":861,"x_min":-103,"x_max":864,"o":"m 594 1000 q 712 991 649 1000 q 819 955 775 982 q 864 874 864 928 q 814 796 864 818 q 708 774 764 774 q 670 776 694 774 q 635 786 646 779 q 638 814 636 797 q 640 842 640 831 q 628 897 640 872 q 585 921 617 921 q 525 873 535 921 q 515 775 515 825 l 515 579 l 738 579 q 740 562 739 572 q 742 546 742 551 q 665 476 742 476 l 517 476 l 517 -12 q 467 -156 517 -104 q 338 -229 418 -208 q 167 -250 258 -250 q 49 -241 113 -250 q -58 -205 -14 -232 q -103 -124 -103 -178 q -53 -46 -103 -68 q 53 -24 -3 -24 q 91 -26 67 -24 q 126 -36 115 -29 q 121 -92 121 -67 q 133 -147 121 -122 q 176 -171 144 -171 q 236 -123 226 -171 q 246 -25 246 -75 l 246 476 l 101 476 q 97 510 97 492 q 172 579 97 579 l 244 579 l 244 763 q 294 906 244 854 q 423 979 343 958 q 594 1000 503 1000 z "},"₲":{"ha":861,"x_min":50,"x_max":843,"o":"m 414 40 l 553 28 l 553 -78 q 533 -140 553 -115 q 475 -164 514 -164 q 442 -159 458 -164 q 414 -149 426 -154 l 414 40 m 515 1050 q 548 1045 532 1050 q 576 1035 564 1040 l 576 879 l 438 856 l 438 964 q 456 1026 438 1001 q 515 1050 475 1050 m 500 814 q 410 758 439 814 q 374 626 382 701 q 367 492 367 550 q 378 327 367 407 q 426 195 389 247 q 546 143 464 143 q 618 154 585 143 l 608 393 l 824 413 l 824 29 l 824 26 q 663 -18 746 -6 q 497 -31 581 -31 q 155 106 260 -31 q 50 439 50 243 q 167 793 50 669 q 519 917 283 917 q 672 902 597 917 q 794 847 746 888 q 843 729 843 807 q 792 613 843 654 q 671 572 742 572 q 635 574 656 572 q 599 582 615 576 q 607 658 607 624 q 584 767 607 719 q 500 814 561 814 z "},"£":{"ha":861,"x_min":38,"x_max":814,"o":"m 636 558 q 640 541 639 551 q 640 525 640 531 q 564 456 640 456 l 42 456 q 38 489 38 469 q 113 558 38 558 l 636 558 m 494 838 q 435 795 444 838 q 426 692 426 753 l 426 418 q 394 271 426 328 q 283 185 361 214 l 788 201 l 772 0 l 78 0 l 63 139 q 142 230 129 168 q 154 385 154 292 l 154 679 q 203 823 154 771 q 333 896 253 875 q 504 917 413 917 q 644 901 572 917 q 765 849 715 886 q 814 743 814 811 q 763 634 814 668 q 642 600 713 600 q 606 602 626 600 q 569 610 586 604 q 576 656 574 633 q 578 700 578 678 q 562 794 578 750 q 494 838 546 838 z "},"¥":{"ha":861,"x_min":54,"x_max":808,"o":"m 808 917 l 574 415 l 574 0 l 279 0 l 279 403 l 54 917 l 356 917 l 485 554 l 590 917 l 808 917 m 729 289 q 732 272 731 282 q 733 256 733 261 q 657 186 733 186 l 135 186 q 131 219 131 200 q 206 289 131 289 l 729 289 m 729 475 q 732 458 731 468 q 733 442 733 447 q 657 372 733 372 l 135 372 q 131 406 131 386 q 206 475 131 475 l 729 475 z "},"∙":{"ha":350,"x_min":26,"x_max":326,"o":"m 181 457 q 285 428 244 457 q 326 346 326 399 q 283 263 326 290 q 175 235 239 235 q 69 263 111 235 q 26 343 26 290 q 72 428 26 399 q 181 457 117 457 z "},"∕":{"ha":163,"x_min":-93,"x_max":285,"o":"m 222 1000 q 285 947 285 1000 q 283 928 285 938 q 279 908 281 918 l 21 -119 q -31 -126 3 -126 q -93 -74 -93 -126 q -91 -54 -93 -64 q -87 -35 -89 -44 l 171 993 q 222 1000 189 1000 z "},"+":{"ha":861,"x_min":136,"x_max":725,"o":"m 439 644 q 507 631 476 644 l 507 104 q 485 36 507 63 q 421 10 464 10 q 354 24 385 10 l 354 550 q 375 618 354 592 q 439 644 396 644 m 710 403 q 721 374 717 390 q 725 342 725 358 q 701 284 725 303 q 639 265 678 265 l 151 265 q 136 326 136 296 q 160 384 136 365 q 222 403 183 403 l 710 403 z "},"−":{"ha":861,"x_min":136,"x_max":725,"o":"m 151 265 q 136 326 136 296 q 160 384 136 365 q 222 403 183 403 l 710 403 q 725 342 725 372 q 701 284 725 303 q 639 265 678 265 l 151 265 z "},"×":{"ha":861,"x_min":147,"x_max":713,"o":"m 638 635 q 684 622 664 635 q 713 581 704 608 l 461 263 l 318 68 q 276 26 300 43 q 222 10 253 10 q 147 64 164 10 l 543 576 q 583 617 560 599 q 638 635 606 635 m 290 649 l 492 375 l 651 179 q 678 141 665 160 q 692 99 692 122 q 665 32 692 56 q 594 8 638 8 l 390 281 l 233 478 q 206 515 219 497 q 192 557 192 533 q 219 624 192 600 q 290 649 247 649 z "},"÷":{"ha":861,"x_min":136,"x_max":725,"o":"m 536 563 q 505 497 536 519 q 429 475 474 475 q 354 497 383 475 q 325 560 325 519 q 357 626 325 603 q 435 649 389 649 q 508 626 479 649 q 536 563 536 603 m 536 107 q 505 42 536 64 q 429 19 474 19 q 354 42 383 19 q 325 104 325 64 q 357 170 325 147 q 435 193 389 193 q 508 170 479 193 q 536 107 536 147 m 151 265 q 136 326 136 296 q 160 384 136 365 q 222 403 183 403 l 710 403 q 721 374 717 390 q 725 342 725 358 q 701 284 725 303 q 639 265 678 265 l 151 265 z "},"=":{"ha":861,"x_min":136,"x_max":725,"o":"m 151 367 q 136 428 136 397 q 160 485 136 467 q 222 504 183 504 l 710 504 q 721 476 717 492 q 725 443 725 460 q 701 385 725 404 q 639 367 678 367 l 151 367 m 151 122 q 136 183 136 153 q 160 241 136 222 q 222 260 183 260 l 710 260 q 725 199 725 229 q 701 141 725 160 q 639 122 678 122 l 151 122 z "},"≠":{"ha":861,"x_min":136,"x_max":725,"o":"m 583 719 q 644 700 615 717 q 674 651 674 683 q 669 624 674 636 q 657 597 664 611 l 283 -81 q 222 -61 251 -78 q 193 -12 193 -44 q 198 15 193 3 q 210 42 203 28 l 583 719 m 710 260 q 725 199 725 229 q 701 141 725 160 q 639 122 678 122 l 151 122 q 136 183 136 153 q 160 241 136 222 q 222 260 183 260 l 710 260 m 710 504 q 721 476 717 492 q 725 443 725 460 q 701 385 725 404 q 639 367 678 367 l 151 367 q 136 428 136 397 q 160 485 136 467 q 222 504 183 504 l 710 504 z "},">":{"ha":861,"x_min":149,"x_max":722,"o":"m 722 347 l 365 69 q 311 28 339 49 q 249 8 283 8 q 149 99 174 8 l 461 350 l 722 347 m 475 322 l 213 499 q 171 578 171 528 q 199 645 171 621 q 269 669 226 669 l 722 347 l 475 322 z "},"<":{"ha":861,"x_min":139,"x_max":713,"o":"m 392 375 l 649 193 q 690 114 690 161 q 663 37 690 65 q 592 8 635 8 l 139 331 l 392 375 m 139 331 l 497 608 q 551 649 525 629 q 613 669 578 669 q 713 579 688 669 l 406 333 l 139 331 z "},"≥":{"ha":861,"x_min":178,"x_max":683,"o":"m 342 683 l 651 413 l 457 242 q 399 193 428 215 q 338 171 369 171 q 278 190 307 171 q 250 244 250 208 q 251 256 250 250 q 254 269 253 263 l 447 418 l 319 513 q 273 553 293 531 q 253 600 253 576 q 279 660 253 636 q 342 683 306 683 m 668 138 q 683 76 683 107 q 660 19 683 38 q 597 0 636 0 l 193 0 q 178 61 178 31 q 201 119 178 100 q 264 138 225 138 l 668 138 z "},"≤":{"ha":861,"x_min":176,"x_max":682,"o":"m 522 683 q 582 662 558 683 q 606 604 606 640 l 413 456 l 540 361 q 587 319 567 342 q 607 274 607 297 q 581 215 607 239 q 518 190 554 190 l 208 461 l 403 632 q 462 671 432 658 q 522 683 492 683 m 667 138 q 682 76 682 107 q 658 19 682 38 q 596 0 635 0 l 192 0 q 176 61 176 31 q 200 119 176 100 q 263 138 224 138 l 667 138 z "},"±":{"ha":861,"x_min":164,"x_max":697,"o":"m 440 672 q 508 658 478 672 l 508 285 q 487 217 508 243 q 422 190 465 190 q 387 194 404 190 q 356 204 369 197 l 356 578 q 376 646 356 619 q 440 672 397 672 m 682 138 q 697 76 697 107 q 674 19 697 38 q 611 0 650 0 l 179 0 q 164 61 164 31 q 188 119 164 100 q 250 138 211 138 l 682 138 m 682 500 q 693 472 689 488 q 697 439 697 456 q 674 381 697 400 q 611 363 650 363 l 179 363 q 168 391 172 375 q 164 424 164 407 q 188 481 164 463 q 250 500 211 500 l 682 500 z "},"≈":{"ha":861,"x_min":133,"x_max":728,"o":"m 269 533 q 434 509 349 533 q 582 485 519 485 q 638 492 608 485 q 682 524 668 500 q 714 483 700 508 q 728 435 728 458 q 685 367 728 383 q 592 351 643 351 q 427 376 513 351 q 279 400 342 400 q 223 392 253 400 q 179 361 193 385 q 147 401 161 376 q 133 450 133 426 q 176 517 133 501 q 269 533 218 533 m 269 292 q 434 267 349 292 q 582 243 519 243 q 638 251 608 243 q 682 282 668 258 q 714 242 700 267 q 728 193 728 217 q 685 126 728 142 q 592 110 643 110 q 427 134 513 110 q 279 158 342 158 q 223 151 253 158 q 179 119 193 143 q 147 160 161 135 q 133 208 133 185 q 176 276 133 260 q 269 292 218 292 z "},"~":{"ha":861,"x_min":133,"x_max":728,"o":"m 582 363 q 434 387 519 363 q 269 411 349 411 q 176 395 218 411 q 133 328 133 379 q 147 279 133 304 q 179 239 161 254 q 223 270 193 263 q 279 278 253 278 q 427 253 342 278 q 592 229 513 229 q 685 245 643 229 q 728 313 728 261 q 714 361 728 336 q 682 401 700 386 q 638 370 668 378 q 582 363 608 363 z "},"¬":{"ha":861,"x_min":99,"x_max":732,"o":"m 732 403 l 732 13 q 701 1 718 6 q 665 -4 683 -4 q 601 22 622 -4 q 581 90 581 49 l 581 265 l 114 265 q 99 326 99 296 q 122 384 99 365 q 185 403 146 403 l 732 403 z "},"∞":{"ha":861,"x_min":10,"x_max":851,"o":"m 649 149 q 522 197 579 149 q 415 306 465 244 q 333 193 383 238 q 215 149 282 149 q 62 219 114 149 q 10 390 10 289 q 61 574 10 497 q 213 651 113 651 q 338 603 281 651 q 443 494 394 556 q 527 606 476 561 q 646 651 578 651 q 799 581 747 651 q 851 410 851 511 q 800 226 851 303 q 649 149 749 149 m 653 296 q 716 322 694 296 q 738 388 738 347 q 697 481 738 446 q 600 515 657 515 q 541 493 565 515 q 497 433 517 471 q 573 337 535 378 q 653 296 611 296 m 261 285 q 320 307 296 285 q 364 367 344 329 q 288 463 325 422 q 208 504 250 504 q 145 478 167 504 q 124 413 124 453 q 164 319 124 354 q 261 285 204 285 z "},"∫":{"ha":861,"x_min":-39,"x_max":836,"o":"m 592 1000 q 754 971 672 1000 q 836 868 836 942 q 791 799 836 819 q 696 779 746 779 q 661 781 683 779 q 629 790 639 783 q 633 815 631 800 q 635 840 635 831 q 626 897 635 872 q 582 921 617 921 q 522 873 532 921 q 513 775 513 825 l 513 -12 q 427 -199 513 -149 q 206 -250 342 -250 q 43 -221 125 -250 q -39 -118 -39 -192 q 6 -49 -39 -69 q 101 -29 51 -29 q 136 -31 114 -29 q 168 -40 158 -33 q 165 -65 167 -50 q 163 -90 163 -81 q 172 -147 163 -122 q 215 -171 181 -171 q 275 -123 265 -171 q 285 -25 285 -75 l 285 763 q 370 949 285 899 q 592 1000 456 1000 z "},"Ω":{"ha":928,"x_min":28,"x_max":900,"o":"m 464 944 q 783 828 667 944 q 900 508 900 711 q 838 291 900 382 q 660 149 775 200 l 900 149 l 900 0 l 515 0 l 494 115 q 571 260 558 167 q 583 463 583 354 q 577 630 583 542 q 545 780 571 718 q 464 842 519 842 q 383 780 408 842 q 351 630 357 718 q 344 463 344 542 q 357 260 344 354 q 433 115 369 167 l 413 0 l 28 0 l 28 149 l 268 149 q 90 291 153 200 q 28 508 28 382 q 144 828 28 711 q 464 944 261 944 z "},"∆":{"ha":861,"x_min":-1,"x_max":863,"o":"m 590 917 l 863 0 l -1 0 l 292 917 l 590 917 m 386 724 l 210 101 l 560 101 l 393 683 l 386 724 z "},"∏":{"ha":861,"x_min":33,"x_max":828,"o":"m 828 917 l 828 -110 l 533 -110 l 533 800 l 328 800 l 328 -110 l 33 -110 l 33 917 l 828 917 z "},"∑":{"ha":861,"x_min":10,"x_max":804,"o":"m 717 944 q 775 888 775 944 q 769 846 775 868 q 749 807 764 824 l 343 807 l 594 468 l 340 124 l 781 124 q 797 76 789 100 q 804 26 804 53 q 769 -74 804 -37 q 672 -110 735 -110 l 10 -110 l 372 389 l 88 788 q 62 830 74 807 q 50 879 50 853 q 69 944 50 921 l 717 944 z "},"√":{"ha":861,"x_min":56,"x_max":1129,"o":"m 1115 1128 q 1125 1100 1121 1114 q 1129 1071 1129 1086 q 1051 990 1129 990 l 813 990 l 590 0 l 288 0 l 56 668 q 124 714 83 693 q 215 735 165 735 q 297 709 268 735 q 344 628 325 683 l 496 181 l 700 1128 l 1115 1128 z "},"µ":{"ha":847,"x_min":75,"x_max":815,"o":"m 350 736 l 350 335 q 353 203 350 263 q 371 110 356 144 q 421 75 386 75 q 488 124 472 75 q 503 225 503 172 l 503 708 l 772 708 l 772 161 q 781 85 772 121 q 815 17 790 49 q 755 -12 793 -3 q 688 -21 717 -21 q 521 63 560 -21 q 439 -8 488 14 q 333 -29 390 -29 q 291 -27 313 -29 q 247 -21 269 -25 l 344 43 l 344 -250 l 75 -268 l 75 708 l 350 736 z "},"∂":{"ha":861,"x_min":56,"x_max":799,"o":"m 411 1000 q 640 919 556 1000 q 762 710 725 839 q 799 438 799 581 q 762 197 799 303 q 644 31 725 92 q 428 -31 563 -31 q 161 63 267 -31 q 56 315 56 156 q 93 497 56 425 q 190 610 131 569 q 317 668 250 651 q 442 685 383 685 q 477 683 460 685 q 511 678 494 682 q 475 809 501 760 q 367 858 449 858 q 292 838 322 858 q 274 910 274 871 q 316 981 274 963 q 411 1000 358 1000 m 428 53 q 495 103 475 53 q 519 235 515 154 q 524 404 524 315 q 521 492 524 444 q 514 571 518 540 q 442 601 481 601 q 365 555 388 601 q 336 444 342 508 q 331 325 331 379 q 335 214 331 278 q 360 101 340 150 q 428 53 381 53 z "},"%":{"ha":1417,"x_min":39,"x_max":1378,"o":"m 1026 976 q 1085 955 1061 976 q 1124 900 1110 933 l 501 36 q 461 -10 483 10 q 408 -31 439 -31 q 349 -9 372 -31 q 311 46 325 13 l 933 910 q 974 956 953 936 q 1026 976 996 976 m 300 944 q 493 868 425 944 q 561 678 561 792 q 492 481 561 565 q 300 396 422 396 q 109 477 179 396 q 39 668 39 558 q 107 864 39 783 q 300 944 175 944 m 300 872 q 258 811 269 872 q 247 674 247 750 q 258 533 247 597 q 300 468 269 468 q 342 533 331 468 q 353 674 353 597 q 342 811 353 750 q 300 872 331 872 m 1117 518 q 1310 442 1242 518 q 1378 251 1378 367 q 1308 54 1378 139 q 1117 -31 1239 -31 q 926 50 996 -31 q 856 242 856 131 q 924 437 856 356 q 1117 518 992 518 m 1117 446 q 1075 385 1086 446 q 1064 247 1064 325 q 1075 106 1064 169 q 1117 42 1086 42 q 1158 106 1147 42 q 1169 247 1169 169 q 1158 385 1169 325 q 1117 446 1147 446 z "},"‰":{"ha":2004,"x_min":39,"x_max":1965,"o":"m 1026 976 q 1085 955 1061 976 q 1124 900 1110 933 l 501 36 q 461 -10 483 10 q 408 -31 439 -31 q 349 -9 372 -31 q 311 46 325 13 l 933 910 q 974 956 953 936 q 1026 976 996 976 m 300 944 q 493 868 425 944 q 561 678 561 792 q 492 481 561 565 q 300 396 422 396 q 109 477 179 396 q 39 668 39 558 q 107 864 39 783 q 300 944 175 944 m 300 872 q 258 811 269 872 q 247 674 247 750 q 258 533 247 597 q 300 468 269 468 q 342 533 331 468 q 353 674 353 597 q 342 811 353 750 q 300 872 331 872 m 1117 518 q 1310 442 1242 518 q 1378 251 1378 367 q 1308 54 1378 139 q 1117 -31 1239 -31 q 926 50 996 -31 q 856 242 856 131 q 924 437 856 356 q 1117 518 992 518 m 1117 446 q 1075 385 1086 446 q 1064 247 1064 325 q 1075 106 1064 169 q 1117 42 1086 42 q 1158 106 1147 42 q 1169 247 1169 169 q 1158 385 1169 325 q 1117 446 1147 446 m 1704 518 q 1897 442 1829 518 q 1965 251 1965 367 q 1897 54 1965 139 q 1704 -31 1828 -31 q 1513 50 1583 -31 q 1443 242 1443 131 q 1511 437 1443 356 q 1704 518 1579 518 m 1704 446 q 1662 385 1672 446 q 1651 247 1651 325 q 1662 106 1651 169 q 1704 42 1672 42 q 1747 106 1736 42 q 1757 247 1757 169 q 1747 385 1757 325 q 1704 446 1736 446 z "},"◊":{"ha":861,"x_min":33,"x_max":829,"o":"m 582 917 l 829 458 l 532 0 l 281 0 l 33 458 l 331 917 l 582 917 m 410 790 l 249 531 l 453 128 l 614 386 l 410 790 z "},"@":{"ha":1108,"x_min":39,"x_max":1069,"o":"m 554 835 q 922 726 774 835 q 1069 397 1069 617 q 1017 169 1069 254 q 821 85 964 85 q 715 103 761 85 q 646 178 668 122 q 592 117 632 140 q 490 93 553 93 q 352 128 414 93 q 290 240 290 164 q 338 344 290 311 q 456 388 385 378 q 601 399 528 399 l 601 488 q 592 547 601 522 q 549 571 583 571 q 501 549 514 571 q 488 488 488 528 q 488 461 488 475 q 490 436 489 447 q 465 429 483 431 q 436 428 446 428 q 357 447 392 428 q 322 510 322 465 q 362 586 322 560 q 456 622 401 613 q 560 632 511 632 q 737 596 671 632 q 803 447 803 560 l 803 232 q 810 175 803 200 q 849 150 817 150 q 914 211 901 150 q 926 363 926 272 q 837 649 926 556 q 554 742 747 742 q 276 636 368 742 q 183 344 183 531 q 276 60 183 156 q 558 -36 369 -36 q 686 -24 621 -36 q 800 28 751 -11 q 824 -19 824 13 q 780 -85 824 -58 q 672 -124 736 -111 q 546 -136 608 -136 q 178 -10 317 -136 q 39 344 39 115 q 177 697 39 560 q 554 835 315 835 m 601 340 q 519 319 550 340 q 489 246 489 297 q 501 194 489 215 q 544 172 514 172 q 589 201 576 172 q 601 263 601 231 l 601 340 z "},"&":{"ha":994,"x_min":28,"x_max":1010,"o":"m 456 944 q 589 928 522 944 q 701 874 656 913 q 746 769 746 836 q 696 669 746 703 q 585 636 646 636 q 551 638 569 636 q 517 646 532 640 q 523 681 521 664 q 525 717 525 697 q 507 808 525 768 q 438 849 489 849 q 378 751 378 849 q 419 557 378 660 q 532 363 461 454 q 693 213 603 271 q 802 159 751 175 q 900 143 853 143 q 952 149 928 143 q 983 161 976 156 q 1010 71 1010 115 q 969 -5 1010 18 q 868 -28 929 -28 q 704 12 776 -28 q 571 90 632 51 q 378 269 478 156 q 210 507 279 383 q 140 726 140 631 q 186 852 140 804 q 305 922 232 900 q 456 944 378 944 m 704 543 q 834 499 788 543 q 881 371 881 454 q 819 156 881 244 q 656 19 758 67 q 425 -28 553 -28 q 230 3 321 -28 q 83 100 139 35 q 28 267 28 165 q 85 419 28 360 q 236 497 142 478 l 278 414 q 267 376 271 403 q 263 331 263 350 q 316 155 263 222 q 478 88 369 88 q 598 119 558 88 q 651 208 638 150 q 665 347 665 267 q 653 442 665 397 q 610 517 642 488 q 652 536 626 529 q 704 543 678 543 z "},"¶":{"ha":936,"x_min":67,"x_max":990,"o":"m 203 -136 q 317 -175 247 -175 q 419 -122 394 -175 q 443 10 443 -68 l 443 368 q 338 353 390 353 q 136 432 206 353 q 67 643 67 511 q 168 869 67 808 q 433 931 269 931 q 510 928 474 931 q 588 917 547 925 l 588 49 q 535 -185 588 -92 q 344 -278 483 -278 q 229 -250 276 -278 q 182 -178 182 -222 q 203 -136 182 -147 m 990 917 q 890 810 990 810 q 832 817 856 810 l 832 0 l 696 -21 l 696 917 l 990 917 z "},"§":{"ha":601,"x_min":28,"x_max":574,"o":"m 243 554 l 294 501 q 217 449 240 483 q 194 378 194 415 q 247 278 194 319 q 370 197 300 236 q 493 103 440 157 q 546 -35 546 49 q 460 -197 546 -144 q 264 -250 374 -250 q 113 -221 183 -250 q 43 -110 43 -192 q 74 -28 43 -61 q 157 4 106 4 q 187 1 172 4 q 213 -11 201 -3 q 208 -64 208 -33 q 222 -144 208 -110 q 282 -178 236 -178 q 337 -156 317 -178 q 357 -97 357 -133 q 307 -3 357 -39 q 192 67 257 33 q 78 149 128 100 q 28 281 28 197 q 61 410 28 353 q 144 506 94 468 q 243 554 194 543 m 338 944 q 489 915 419 944 q 558 804 558 886 q 528 723 558 756 q 444 690 497 690 q 415 694 431 690 q 389 706 400 697 q 393 758 393 728 q 379 838 393 804 q 319 872 365 872 q 264 850 283 872 q 244 792 244 828 q 294 697 244 733 q 409 628 344 661 q 524 546 474 594 q 574 414 574 497 q 524 269 574 344 q 390 143 474 194 l 328 192 q 390 253 372 219 q 407 317 407 286 q 354 417 407 375 q 231 498 301 458 q 108 592 161 538 q 56 729 56 646 q 142 892 56 839 q 338 944 228 944 z "},"©":{"ha":1044,"x_min":28,"x_max":1017,"o":"m 522 854 q 876 717 736 854 q 1017 365 1017 579 q 878 19 1017 149 q 522 -110 739 -110 q 167 19 306 -110 q 28 365 28 149 q 168 717 28 579 q 522 854 308 854 m 547 650 q 679 624 619 650 q 739 525 739 597 q 706 464 739 483 q 629 444 672 444 q 601 447 619 444 q 576 453 583 449 q 579 478 578 465 q 581 503 581 492 q 573 563 581 533 q 535 592 565 592 q 492 557 506 592 q 474 475 478 522 q 469 388 469 428 q 490 272 469 319 q 578 225 511 225 q 689 301 656 225 q 717 281 708 296 q 726 247 726 265 q 669 140 726 175 q 540 106 613 106 q 343 180 411 106 q 275 382 275 254 q 347 582 275 514 q 547 650 418 650 m 522 753 q 263 643 354 753 q 172 365 172 533 q 262 93 172 194 q 522 -8 351 -8 q 783 93 693 -8 q 872 365 872 194 q 781 643 872 533 q 522 753 690 753 z "},"®":{"ha":1044,"x_min":28,"x_max":1017,"o":"m 522 944 q 876 807 736 944 q 1017 456 1017 669 q 878 110 1017 239 q 522 -19 739 -19 q 167 110 306 -19 q 28 456 28 239 q 168 807 28 669 q 522 944 308 944 m 522 843 q 263 733 354 843 q 172 456 172 624 q 262 183 172 285 q 522 82 351 82 q 783 183 693 82 q 872 456 872 285 q 781 733 872 624 q 522 843 690 843 m 513 738 q 675 707 610 738 q 740 579 740 676 q 647 432 740 469 l 774 211 l 603 211 l 510 447 q 504 462 507 454 q 501 478 501 469 q 560 505 546 478 q 575 576 575 532 q 563 648 575 617 q 513 679 551 679 q 496 677 504 679 q 479 674 488 675 l 479 211 l 311 211 l 311 726 q 414 735 365 732 q 513 738 463 738 z "},"™":{"ha":1099,"x_min":10,"x_max":1033,"o":"m 983 917 l 1033 413 l 864 413 l 835 804 l 729 413 l 628 413 l 522 804 l 493 413 l 396 413 l 451 917 l 647 917 l 718 633 l 790 917 l 983 917 m 392 917 l 385 844 l 285 844 l 285 413 l 114 413 l 114 844 l 10 844 l 10 917 l 392 917 z "},"°":{"ha":504,"x_min":19,"x_max":485,"o":"m 251 514 q 86 575 153 514 q 19 735 19 636 q 85 893 19 836 q 251 950 150 950 q 419 893 353 950 q 485 735 485 836 q 418 575 485 636 q 251 514 351 514 m 251 603 q 326 642 304 603 q 347 735 347 682 q 325 824 347 786 q 251 861 303 861 q 179 824 201 861 q 157 735 157 786 q 178 643 157 683 q 251 603 200 603 z "},"|":{"ha":431,"x_min":114,"x_max":317,"o":"m 317 1111 l 114 1111 l 114 -278 l 317 -278 l 317 1111 z "},"¦":{"ha":433,"x_min":114,"x_max":319,"o":"m 319 539 l 319 917 l 118 917 l 118 539 l 319 539 m 315 0 l 315 378 l 114 378 l 114 0 l 315 0 z "},"ℓ":{"ha":567,"x_min":6,"x_max":547,"o":"m 185 294 q 6 272 101 272 l 6 372 q 167 393 96 372 l 185 294 m 178 379 q 361 496 294 411 q 428 728 428 581 q 417 805 428 772 q 378 838 407 838 q 340 812 350 838 q 329 760 329 786 l 329 238 q 345 172 329 203 q 413 140 361 140 q 508 192 481 140 q 539 160 531 181 q 547 121 547 140 q 482 16 547 53 q 318 -21 417 -21 q 126 46 185 -21 q 67 236 67 113 l 67 665 q 133 867 67 789 q 335 944 200 944 q 488 896 431 944 q 546 724 546 847 q 449 432 546 547 q 196 281 351 317 l 178 379 z "},"†":{"ha":604,"x_min":10,"x_max":594,"o":"m 431 -157 q 376 -190 410 -179 q 310 -201 342 -201 q 210 -163 242 -201 q 179 -58 179 -125 q 183 28 179 -21 q 192 122 188 78 l 226 503 q 40 456 138 503 q 17 511 25 481 q 10 574 10 542 q 40 693 10 640 q 135 656 88 667 q 226 644 182 644 q 208 774 226 714 q 161 900 189 835 q 230 926 190 918 q 301 933 269 933 q 374 926 335 933 q 442 900 414 918 q 396 774 414 835 q 378 644 378 714 q 469 656 422 644 q 564 693 517 667 q 594 574 594 640 q 587 511 594 542 q 564 456 579 481 q 378 503 467 503 l 431 -157 z "},"‡":{"ha":604,"x_min":10,"x_max":594,"o":"m 301 933 q 374 926 335 933 q 442 900 414 918 q 396 774 414 835 q 378 644 378 714 q 469 656 422 644 q 564 693 517 667 q 594 574 594 640 q 564 456 594 504 q 378 503 467 503 l 431 -157 q 376 -190 410 -179 q 310 -201 342 -201 q 210 -163 242 -201 q 179 -58 179 -125 q 183 28 179 -21 q 192 122 188 78 l 226 503 q 40 456 138 503 q 10 574 10 504 q 40 693 10 640 q 135 656 88 667 q 226 644 182 644 q 208 774 226 714 q 161 900 189 835 q 230 926 190 918 q 301 933 269 933 m 564 303 q 594 183 594 250 q 564 65 594 114 q 378 113 467 113 l 226 113 q 40 65 138 113 q 10 183 10 114 q 40 303 10 250 q 135 265 88 276 q 226 254 182 254 l 378 254 q 469 265 422 254 q 564 303 517 276 z "},"℮":{"ha":1044,"x_min":28,"x_max":1017,"o":"m 522 944 q 876 807 736 944 q 1017 456 1017 669 q 1017 433 1017 444 q 1015 411 1017 422 l 332 411 l 332 144 q 526 97 417 97 q 708 136 625 97 q 836 243 790 175 l 938 168 q 526 -19 800 -19 q 167 110 307 -19 q 28 456 28 239 q 168 807 28 669 q 522 944 308 944 m 522 828 q 332 776 417 828 l 332 528 l 713 528 l 713 776 q 522 828 628 828 z "},"^":{"ha":736,"x_min":10,"x_max":726,"o":"m 478 917 q 576 635 515 746 q 726 456 636 524 q 681 401 713 417 q 610 385 650 385 q 458 466 521 385 q 342 738 394 547 q 215 466 272 547 q 99 385 157 385 q 10 456 32 385 q 181 640 111 513 q 288 917 250 768 l 478 917 z "},"̈":{"ha":0,"x_min":-307,"x_max":311,"o":"z "},"̇":{"ha":0,"x_min":-150,"x_max":150,"o":"m 4 1042 q 109 1013 68 1042 q 150 931 150 983 q 106 847 150 875 q -1 819 63 819 q -108 847 -65 819 q -150 928 -150 875 q -105 1013 -150 983 q 4 1042 -60 1042 z "},"̀":{"ha":0,"x_min":-264,"x_max":115,"o":"m 85 797 l -110 853 q -214 891 -164 868 q -264 968 -264 914 q -241 1028 -264 1000 q -189 1071 -218 1057 l 115 863 l 85 797 z "},"́":{"ha":0,"x_min":-97,"x_max":282,"o":"m -97 863 l 207 1071 q 259 1028 236 1057 q 282 968 282 1000 q 232 891 282 914 q 128 853 182 868 l -67 797 l -97 863 z "},"̋":{"ha":0,"x_min":-236,"x_max":418,"o":"m -236 831 l 14 1089 q 78 1050 49 1079 q 107 985 107 1021 q 69 898 107 932 q -12 846 32 864 l -194 772 l -236 831 m 75 831 l 325 1089 q 389 1050 360 1079 q 418 985 418 1021 q 381 898 418 932 q 299 846 343 864 l 117 772 l 75 831 z "},"̂":{"ha":0,"x_min":-240,"x_max":243,"o":"m -186 813 l -240 876 l -31 1038 l 29 1038 l 243 876 l 189 813 l 1 885 l -186 813 z "},"̌":{"ha":0,"x_min":-240,"x_max":243,"o":"m 189 1051 l 243 988 l 47 799 l -40 799 l -240 988 l -186 1051 l 1 951 l 189 1051 z "},"̆":{"ha":0,"x_min":-264,"x_max":272,"o":"m 272 1035 q 206 878 272 940 q 4 815 140 815 q -198 878 -132 815 q -264 1035 -264 940 l -61 1035 q -58 937 -61 986 q 4 888 -56 888 q 67 937 64 888 q 69 1035 69 986 l 272 1035 z "},"̊":{"ha":0,"x_min":-153,"x_max":167,"o":"m 7 806 q -107 842 -61 806 q -153 940 -153 878 q -108 1038 -153 1004 q 7 1071 -62 1071 q 122 1038 76 1071 q 167 940 167 1004 q 121 842 167 878 q 7 806 75 806 m 7 861 q 54 884 39 861 q 69 940 69 907 q 54 994 69 972 q 7 1015 39 1015 q -40 994 -25 1015 q -56 940 -56 972 q -41 884 -56 907 q 7 861 -26 861 z "},"̃":{"ha":0,"x_min":-275,"x_max":275,"o":"m 243 1010 q 275 926 275 971 q 234 854 275 871 q 138 838 193 838 q -8 851 81 838 q -154 865 -96 865 q -201 860 -178 865 q -243 838 -225 856 q -266 877 -257 854 q -275 921 -275 900 q -234 993 -275 976 q -137 1010 -193 1010 q 8 996 -81 1010 q 154 982 96 982 q 201 987 178 982 q 243 1010 225 992 z "},"̄":{"ha":0,"x_min":-194,"x_max":232,"o":"m 219 990 q 228 967 225 981 q 232 936 232 953 q 210 883 232 903 q 153 863 189 863 l -182 863 q -194 917 -194 883 q -115 990 -194 990 l 219 990 z "},"̣":{"ha":0,"x_min":-154,"x_max":146,"o":"m 0 -57 q 105 -86 64 -57 q 146 -168 146 -115 q 102 -251 146 -224 q -6 -279 58 -279 q -112 -251 -69 -279 q -154 -171 -154 -224 q -109 -86 -154 -115 q 0 -57 -64 -57 z "},"̦":{"ha":274,"x_min":14,"x_max":260,"o":"m 131 -71 q 229 -98 199 -71 q 260 -183 260 -125 q 205 -306 260 -253 q 69 -358 150 -358 q 41 -357 56 -358 q 14 -353 26 -356 q 56 -283 42 -318 q 71 -207 71 -247 q 39 -92 71 -143 q 79 -76 51 -82 q 131 -71 107 -71 z "},"̧":{"ha":0,"x_min":-125,"x_max":225,"o":"m 54 15 l 11 -96 l -4 -83 q 22 -81 6 -82 q 53 -79 39 -79 q 176 -110 126 -79 q 225 -214 225 -140 q 161 -323 225 -287 q 24 -358 97 -358 q -72 -342 -18 -358 q -125 -274 -125 -326 q -108 -219 -125 -239 q -66 -252 -92 -240 q 1 -264 -40 -264 q 40 -249 24 -264 q 57 -210 57 -233 q 28 -163 57 -174 q -36 -153 -1 -153 q -64 -153 -50 -153 q -92 -156 -78 -154 l -29 15 l 54 15 z "},"ʼ":{"ha":274,"x_min":14,"x_max":260,"o":"m 131 1015 q 260 885 260 1015 q 205 742 260 804 q 69 681 150 681 q 41 683 56 681 q 14 688 26 685 q 71 857 71 771 q 39 992 71 929 q 79 1009 51 1003 q 131 1015 107 1015 z "},"ˉ":{"ha":454,"x_min":14,"x_max":440,"o":"m 428 990 q 437 967 433 981 q 440 936 440 953 q 419 883 440 903 q 361 863 397 863 l 26 863 q 14 917 14 883 q 93 990 14 990 l 428 990 z "},"´":{"ha":407,"x_min":14,"x_max":393,"o":"m 14 863 l 318 1071 q 370 1028 347 1057 q 393 968 393 1000 q 343 891 393 914 q 239 853 293 868 l 44 797 l 14 863 z "},"˘":{"ha":453,"x_min":-42,"x_max":494,"o":"m 494 1035 q 428 878 494 940 q 226 815 363 815 q 24 878 90 815 q -42 1035 -42 940 l 161 1035 q 164 937 161 986 q 226 888 167 888 q 289 937 286 888 q 292 1035 292 986 l 494 1035 z "},"ˇ":{"ha":511,"x_min":14,"x_max":497,"o":"m 443 1051 l 497 988 l 301 799 l 214 799 l 14 988 l 68 1051 l 256 951 l 443 1051 z "},"¸":{"ha":378,"x_min":14,"x_max":364,"o":"m 193 15 l 150 -96 l 135 -83 q 161 -81 144 -82 q 192 -79 178 -79 q 315 -110 265 -79 q 364 -214 364 -140 q 300 -323 364 -287 q 163 -358 236 -358 q 67 -342 121 -358 q 14 -274 14 -326 q 31 -219 14 -239 q 73 -252 47 -240 q 140 -264 99 -264 q 179 -249 163 -264 q 196 -210 196 -233 q 167 -163 196 -174 q 103 -153 138 -153 q 75 -153 89 -153 q 47 -156 61 -154 l 110 15 l 193 15 z "},"ˆ":{"ha":511,"x_min":14,"x_max":497,"o":"m 68 813 l 14 876 l 224 1038 l 283 1038 l 497 876 l 443 813 l 256 885 l 68 813 z "},"¨":{"ha":617,"x_min":-1,"x_max":617,"o":"m 471 1042 q 576 1013 535 1042 q 617 931 617 983 q 573 847 617 875 q 465 819 529 819 q 359 847 401 819 q 317 928 317 875 q 362 1013 317 983 q 471 1042 407 1042 m 153 1042 q 258 1013 217 1042 q 299 931 299 983 q 255 847 299 875 q 147 819 211 819 q 41 847 83 819 q -1 928 -1 875 q 44 1013 -1 983 q 153 1042 89 1042 z "}}}
